<svg width="682.739990234375px" height="170.03999023437498px" xmlns="http://www.w3.org/2000/svg" viewBox="-91.3699951171875 -10.019995117187491 682.739990234375 170.03999023437498" style="background: none;" preserveAspectRatio="xMidYMid"><defs><filter id="editing-hole" x="-100%" y="-100%" width="300%" height="300%"><feFlood flood-color="#000000" result="black"></feFlood><feMorphology operator="dilate" radius="2" in="SourceGraphic" result="erode"></feMorphology><feGaussianBlur in="erode" stdDeviation="4" result="blur"></feGaussianBlur><feOffset in="blur" dx="2" dy="2" result="offset"></feOffset><feComposite operator="atop" in="offset" in2="black" result="merge"></feComposite><feComposite operator="in" in="merge" in2="SourceGraphic" result="inner-shadow"></feComposite></filter></defs><g filter="url(#editing-hole)"><g transform="translate(7.049995422363281, 120)"><path d="M9.90-70L12.90-70L12.90 0L9.90 0L9.90-70ZM49.70-70L54-70L20.40-36.60L57.20 0L52.90 0L16.10-36.60L49.70-70ZM103.40-7.90L105.60-5.90L105.60-5.90Q100.10 1 87.60 1L87.60 1L87.60 1Q75.10 1 69.70-6.10L69.70-6.10L69.70-6.10Q64.30-13.20 64.30-29L64.30-29L64.30-29Q64.30-44.80 69.70-51.90L69.70-51.90L69.70-51.90Q75.10-59 87.60-59L87.60-59L87.60-59Q102.10-59 107.30-49.50L107.30-49.50L82.80-29L78.10-29L103.40-50.10L103.40-50.10Q99-56 87.60-56L87.60-56L87.60-56Q82.60-56 79.20-54.95L79.20-54.95L79.20-54.95Q75.80-53.90 72.95-51.05L72.95-51.05L72.95-51.05Q70.10-48.20 68.70-42.75L68.70-42.75L68.70-42.75Q67.30-37.30 67.30-29L67.30-29L67.30-29Q67.30-20.70 68.70-15.25L68.70-15.25L68.70-15.25Q70.10-9.80 72.95-6.95L72.95-6.95L72.95-6.95Q75.80-4.10 79.20-3.05L79.20-3.05L79.20-3.05Q82.60-2 87.60-2L87.60-2L87.60-2Q99-2 103.40-7.90L103.40-7.90ZM124.60 0L121.60 0L121.60-58L124.60-58L157.20-5.50L157.20-58L160.20-58L160.20 0L157.20 0L124.60-52.60L124.60 0ZM208.40-54.95L208.40-54.95L208.40-54.95Q205.00-56 200.00-56L200.00-56L200.00-56Q195.00-56 191.60-54.95L191.60-54.95L191.60-54.95Q188.20-53.90 185.35-51.05L185.35-51.05L185.35-51.05Q182.50-48.20 181.10-42.75L181.10-42.75L181.10-42.75Q179.70-37.30 179.70-29L179.70-29L179.70-29Q179.70-20.70 181.10-15.25L181.10-15.25L181.10-15.25Q182.50-9.80 185.35-6.95L185.35-6.95L185.35-6.95Q188.20-4.10 191.60-3.05L191.60-3.05L191.60-3.05Q195.00-2 200.00-2L200.00-2L200.00-2Q205.00-2 208.40-3.05L208.40-3.05L208.40-3.05Q211.80-4.10 214.65-6.95L214.65-6.95L214.65-6.95Q217.50-9.80 218.90-15.25L218.90-15.25L218.90-15.25Q220.30-20.70 220.30-29L220.30-29L220.30-29Q220.30-37.30 218.90-42.75L218.90-42.75L218.90-42.75Q217.50-48.20 214.65-51.05L214.65-51.05L214.65-51.05Q211.80-53.90 208.40-54.95ZM217.90-6.10L217.90-6.10L217.90-6.10Q212.50 1 200.00 1L200.00 1L200.00 1Q187.50 1 182.10-6.10L182.10-6.10L182.10-6.10Q176.70-13.20 176.70-29L176.70-29L176.70-29Q176.70-44.80 182.10-51.90L182.10-51.90L182.10-51.90Q187.50-59 200.00-59L200.00-59L200.00-59Q212.50-59 217.90-51.90L217.90-51.90L217.90-51.90Q223.30-44.80 223.30-29L223.30-29L223.30-29Q223.30-13.20 217.90-6.10ZM270.20-24.80L264.60-21.60L263.10-24.20L268.70-27.40L268.70-27.40Q275.60-31.20 275.60-39.50L275.60-39.50L275.60-39.50Q275.60-55 252-55L252-55L242.80-55L242.80 20L239.80 20L239.80-58L252-58L252-58Q265.20-58 271.90-53.15L271.90-53.15L271.90-53.15Q278.60-48.30 278.60-39.50L278.60-39.50L278.60-39.50Q278.60-29.50 270.20-24.80L270.20-24.80ZM292.70 0L292.70-58L295.70-58L295.70 0L292.70 0ZM330.00-59.20L330.00-59.20L330.00-59.20Q342.40-59.20 347.60-53.70L347.60-53.70L345.60-51.50L345.60-51.50Q340.80-56.20 330.40-56.20L330.40-56.20L330.40-56.20Q314.80-56.20 314.80-43.80L314.80-43.80L314.80-43.80Q314.80-39 318.60-36.15L318.60-36.15L318.60-36.15Q322.40-33.30 327.85-31.80L327.85-31.80L327.85-31.80Q333.30-30.30 338.75-28.65L338.75-28.65L338.75-28.65Q344.20-27 348.00-23.35L348.00-23.35L348.00-23.35Q351.80-19.70 351.80-13.80L351.80-13.80L351.80-13.80Q351.80-6.90 346.10-2.80L346.10-2.80L346.10-2.80Q340.40 1.30 329.60 1.30L329.60 1.30L329.60 1.30Q324.30 1.30 319.15-0.10L319.15-0.10L319.15-0.10Q314.00-1.50 311.50-4.20L311.50-4.20L313.50-6.40L313.50-6.40Q318.60-1.70 329.20-1.70L329.20-1.70L329.20-1.70Q338.90-1.70 343.85-5.30L343.85-5.30L343.85-5.30Q348.80-8.90 348.80-13.70L348.80-13.70L348.80-13.70Q348.80-18.70 345.00-21.80L345.00-21.80L345.00-21.80Q341.20-24.90 335.75-26.45L335.75-26.45L335.75-26.45Q330.30-28 324.85-29.65L324.85-29.65L324.85-29.65Q319.40-31.30 315.60-34.80L315.60-34.80L315.60-34.80Q311.80-38.30 311.80-44L311.80-44L311.80-44Q311.80-51.70 316.95-55.45L316.95-55.45L316.95-55.45Q322.10-59.20 330.00-59.20ZM365.40-58L368.40-58L368.40-29L368.40-29Q368.40-14.10 373.15-8.05L373.15-8.05L373.15-8.05Q377.90-2 386.20-2L386.20-2L386.20-2Q394.50-2 399.25-8.05L399.25-8.05L399.25-8.05Q404.00-14.10 404.00-29L404.00-29L404.00-58L407.00-58L407.00-29L407.00-29Q407.00 1 386.20 1L386.20 1L386.20 1Q365.40 1 365.40-29L365.40-29L365.40-58ZM434.40-0.10L434.40-3L473.00-3L473.00-53.80L450.50-31.30L428.00-53.80L428.00 0L425.00-0.10L425.00-58L428.00-58L450.50-35.50L473.00-58L476.00-58L476.00 0L434.40-0.10Z" fill="#ffffff"></path></g></g><style>text {
  font-size: 64px;
  font-family: Arial Black;
  dominant-baseline: central;
  text-anchor: middle;
}</style></svg>