<svg xmlns="http://www.w3.org/2000/svg" viewBox="1178.55 541.67 2094.78 450.93" xmlns:v="https://vecta.io/nano"><g fill="#d2a3e9"><path d="M1754 601l6.375 6.25 1.652 1.68L1766 613l2.234-.898L1771 611l2.078-.852c5.454-1.942 10.679-2.521 16.422-2.648l2.083-.092c11.255-.008 19.706 7.578 27.301 15.069 10.767 11.492 16.725 26.28 23.169 40.452l4.373 9.332 7.932 17.142 4.301 9.353a1481.37 1481.37 0 0 1 20.904 47.369l1.005 2.391L1893 779l.938-30.687.07-2.355 1.673-84.191.269-17.728.052-10.64.072-8.792-.003-4.169c-.11-12.051-.11-12.051 4.321-17.243 2.654-2.577 5.132-4.43 8.672-5.633l2.594-.887c8.467-2.441 17.972-2.773 26.344.324 5.703 3.252 10.079 7.746 14.688 12.375l2.299 2.25c3.892 3.888 6.968 7.24 9.014 12.375l2.625-1.875c6.299-3.966 11.863-4.513 19.125-4.562l2.555-.1c9.045-.076 15.619 3.294 22.102 9.49l4.094 4.297 4.156 4.328 1.807 1.919c1.483 1.603 1.483 1.603 3.537 2.503l.625-2.062c5.017-10.719 16.058-17.23 26.477-21.93 19.424-6.754 40.499-3.944 58.678 4.739 9.608 4.799 17.451 11.203 25.225 18.566 1.815 1.903 1.815 1.903 3.996 1.688l1.172-3.727 1.578-4.898.766-2.449c2.446-7.521 5.158-13.132 12.484-16.926 10.859-3.704 22.338-4.972 33 0 3.012 2.014 5.452 4.434 8 7l3.316 3.207 3.559 3.48 1.734 1.693c5.592 5.584 5.592 5.584 6.391 8.62-.313 5.778-1.758 10.611-3.75 16-6.212 17.72-9.494 36.731-10.668 55.445l-.232 3.514-.39 6.944c-.402 6.46-1.028 10.872-4.96 16.096-6.041 5.309-14.355 6.492-22 8l2.017 1.591c7.092 5.685 13.635 11.71 20.045 18.159l1.454 1.461c21.706 21.862 37.906 48.524 38.796 80.164-.402 20.805-8.621 38.206-23.312 52.625-23.079 20.492-55.24 26.342-85.168 25.168-15.769-.938-31.016-5.098-45.207-11.981l-1.872-.893c-10.495-5.356-18.859-14.002-27.122-22.237l-5.087-4.975c-9.315-9.176-16.575-18.881-21.545-31.082l.092 2.848.851 29.964.169 6.006.201 9.494.09 2.756c.051 5.5-.718 8.574-4.402 12.931-7.748 6.614-17.556 7.321-27.348 7.496-10.462-1.421-16.525-6.507-23.652-13.996l-2.559-2.59c-6.673-6.844-6.673-6.844-8.441-10.91-.866 3.849-1.238 7.575-1.465 11.512l-.233 3.937-.24 4.239-.258 4.392-.67 11.565-1.071 18.421-.367 6.375-.469 7.847-.421 7.439-.209 3.504-.168 3.083c-.715 4.471-2.827 7.072-6.43 9.687-9.722 5.553-20.752 6.301-31.699 4.574-6.011-1.71-9.937-5.241-14.301-9.574l-3.098-3.02c-10.811-10.627-10.811-10.627-12.242-17.98l-.764-3.808-.408-2.058C1871.567 900.424 1855.511 845.89 1835 794l-.12 3.537c-.816 23.465-1.969 46.872-3.88 70.276l-.253 3.17-.747 8.975-.215 2.64c-1.54 17.392-1.54 17.392-7.656 23.712-8.205 6.519-19.028 7.437-29.129 6.691-7.305-1.28-11.84-4.869-17-10l-2.5-2.457L1767 894c-.768 4.217-1.217 8.347-1.465 12.625l-.233 3.936-.24 4.224-.258 4.387-.67 11.54-1.071 18.391-.367 6.362-.469 7.828-.421 7.43-.209 3.504-.168 3.084c-.715 4.471-2.826 7.073-6.43 9.688-9.722 5.553-20.752 6.301-31.699 4.574-6.011-1.71-9.937-5.241-14.301-9.574l-3.098-3.02c-10.811-10.627-10.811-10.627-12.242-17.98l-.764-3.808-.408-2.058C1681.567 900.424 1665.511 845.89 1645 794l-.12 3.537c-.816 23.465-1.969 46.872-3.88 70.276l-.253 3.17-.747 8.975-.215 2.64c-1.54 17.392-1.54 17.392-7.656 23.712-8.205 6.519-19.028 7.437-29.129 6.691-10.633-1.863-17.118-9.976-24.32-17.355-2.579-2.664-2.579-2.664-5.68-4.645l-.738 2.23c-4.471 9.815-16.667 15.787-26.262 19.77-31.54 11.601-72.601 14.784-104 1-13.372-6.905-23.511-17.309-34.125-27.812l-2.84-2.752c-6.393-6.335-11.337-12.77-16.035-20.436l-1.285 3.113c-9.951 23.7-23.955 39.448-47.715 49.887-28 10.695-58.723 6.869-86-4l-6.986-3.446c-2.051-.774-2.051-.774-4.14.221-2 1.235-2 1.235-3.999 3.162-9.025 6.474-20.94 6.14-31.551 4.699-6.843-1.787-11.432-6.782-16.324-11.637l-2.527-2.414c-9.064-8.785-9.064-8.785-9.918-14.637.767-6.798 3.42-13.019 5.777-19.408l1.113-3.146 1.047-2.848c.603-3.028.186-4.018-1.493-6.546l-3.125-4.312c-2.73-4.082-3.818-6.691-2.875-11.687 2.679-5.693 6.396-7.756 12-10l3-1c.973-2.611.973-2.611 1.563-5.809l.75-3.589c.994-5.21 1.909-10.417 2.688-15.665l.511-3.397c1.001-7.02 1.746-14.021 2.305-21.087l.194-2.455.862-12.04.318-4.447.256-3.954c.811-5.219 2.648-9.41 6.865-12.682 5.552-3.958 12.15-5.314 18.688-6.875l-2.422-1.473c-4.716-3.16-8.741-7.046-12.828-10.965l-2.469-2.217c-6.517-6.296-7.735-11.467-8.281-20.346l-.53-6.06-.674-8.766c-.978-13.222-2.289-26.268-4.525-39.347-3.13-18.859-3.13-18.859.917-24.765 6.067-5.81 14.771-8.313 23-8.625 19.62.852 38.771 8.268 55.813 17.563l1.906 1.031c19.697 10.797 35.769 26.628 51.594 42.344l1.67 1.656c13.606 13.662 25.206 29.286 34.83 45.969l1.253 2.161c7.066 12.356 12.172 25.172 16.853 38.597.894 2.466.894 2.466 2.895 5.242l1.18-2.387c7.615-14.827 17.885-26.142 29.82-37.613-1.514-3.599-3.62-5.801-6.43-8.484l-2.66-2.586-5.547-5.312c-7.046-6.871-12.436-13.41-12.613-23.68.191-14.567 8.012-26.225 17.25-36.937l2.16-2.531c13.691-15.647 31.444-29.964 52.84-32.469 15.384-.95 27.563 1.304 41.164 8.574 2.605 1.576 2.605 1.576 4.836 1.426l.516-2.449c2.548-11.236 2.548-11.236 6.484-14.551 10.022-5.399 21.677-7.036 32.813-4.062 5.711 2.27 9.901 6.798 14.188 11.063l2.188 2.145L1571 624l1.063-3.125c2.301-5.261 5.923-8.371 11.02-10.914 5.355-1.952 10.77-2.313 16.418-2.461l2.083-.093c11.256-.003 19.704 7.577 27.3 15.07 10.767 11.492 16.725 26.28 23.169 40.452l4.373 9.332 7.932 17.142 4.301 9.353a1481.37 1481.37 0 0 1 20.904 47.369l1.005 2.391L1703 779l.938-30.687.07-2.355 1.673-84.191.269-17.728.052-10.64.072-8.792-.003-4.169c-.11-12.051-.11-12.051 4.321-17.243 2.654-2.577 5.132-4.43 8.672-5.633l2.594-.887c11.21-3.232 22.812-2.72 32.344 4.324zm-180 62c-.779 4.279-1.241 8.472-1.5 12.813l-.127 2.091c-.303 5.456-.443 10.911-.552 16.374l-.1 4.464-.152 8.946-.092 4.204-.06 3.782c-.447 3.568-1.283 5.465-3.417 8.327-8.976 6.374-20.608 8.241-31.352 6.652-4.619-.919-8.515-2.321-12.648-4.652l-.262 2.047-.426 2.703-.387 2.672c-1.253 3.488-2.83 4.577-5.926 6.578-2.282.99-4.599 1.901-6.937 2.75-27.181 10.379-49.408 31.748-61.501 58.122-2.448 5.576-4.363 11.146-5.561 17.128l-.687 3.313c-1.35 15.927.337 31.228 9.688 44.688 4.958 5.525 13.792 7.913 21 9 12.818.675 23.83.611 34.094-8.062 2.976-3.025 4.544-5.942 5.906-9.937l.863-2.508c6.718-22.86 2.128-48.692-.985-71.778-1.811-14.235-1.811-14.235 1.685-20.527 7.189-6.452 14.897-7.398 24.188-7.5l2.633-.088c8.823-.086 13.849 2.575 20.266 8.518l4.727 4.758 2.441 2.395c7.13 7.178 7.13 7.178 8.184 12.73h1c.198-27.891.37-55.757-.937-83.625l-.132-2.815L1575 663h-1zm511 2c-4.361 5.346-3.57 12.465-3 19 .677 3.497 1.719 6.683 3 10l.563 2.078c3.456 9.975 17.743 14.656 26.506 18.918 6.091 2.921 12.211 5.75 18.443 8.359l2.464 1.032c2.066.878 2.066.878 4.025-.387l-2.625-2.562c-3.353-3.92-4.919-8.041-6.708-12.836-9.443-25.126-9.443-25.126-26.741-44.375-6.227-2.611-9.959-2.717-15.926.773zm-599 0c-10.532 6.502-22.809 17.839-26.375 30.063L1459 698c6.684 1.478 13.441.99 20.238.785 8.411-.122 16.301 1.047 23.387 5.902l1.977 1.324L1506 707c-2.049-14.346-8.69-29.149-17-41l-3-1zm-219 12l.438 8.688.135 2.64c.251 4.776.566 9.534.99 14.297a276.57 276.57 0 0 1 .75 15.313l.09 2.153c.058 5.14-1.131 7.986-4.403 11.91-5.754 4.633-13.97 5.586-21 7l1.781 1.316c5.977 4.535 11.346 9.712 16.656 14.996l1.613 1.599c5.633 5.656 5.201 9.987 5.198 17.634-.318 27.924-4.366 57.452-11.647 84.435-.599 3.005-.674 4.227.398 7.02a71.32 71.32 0 0 0 7.563 4.125l2.096 1.051c9.67 4.704 19.881 6.645 30.494 4.055 11.108-4.046 18.599-11.978 23.572-22.608 9.697-22.462 9.036-52.055 3.276-75.622l-.602-2.489c-7.244-29.031-20.09-56.804-38.398-80.511l-1.266-1.678c-4.507-5.961-9.151-11.58-15.734-15.322h-2zm755 14c-.995 3.354-1.181 6.491-1.281 9.98l-.113 3.529-.105 3.678c-.689 23.65-.689 23.65-5.5 28.813-3.232 1.918-6.551 3.513-10 5 1.566 3.844 4.021 6.16 7 9 5.39 5.14 7.192 8.035 7.379 15.399l.035 2.523.059 2.606.152 8.222.117 5.582L2020 799c1.987-2.882 1.987-2.882 3.41-5.602 8.884-16.257 21.922-24.848 39.412-30.274 9.417-2.416 18.352-2.474 27.991-2.312l4.736.041L2107 761c-2.165-2.165-3.889-2.989-6.664-4.25l-2.878-1.329-3.083-1.421c-7.238-3.405-14.336-6.885-21.125-11.125l-1.76-1.086c-10.201-6.563-19.058-14.943-27.615-23.477l-1.453-1.444c-7.397-7.384-13.318-14.75-18.422-23.869l-2-2zm-60 36v11l7-2c.345-3.008.345-3.008-1.531-4.605l-1.969-1.582L1962 727zm185 56l4 4-2-4h-2zm7 8l-.562 3.125c-1.402 4.786-4.302 7.259-8.437 9.875-7.515 3.625-14.047 5.18-22.375 5.188l-2.25.037c-4.57.012-8.035-.667-12.375-2.225-4.843-.517-9.388-.652-13.937 1.188-6.216 5.463-8.126 10.752-9.062 18.813-.218 14.452 2.723 31.424 12 43 2.849 2.088 5.603 3.101 9 4l2.344.668c12.173 2.944 24.948 2.229 36.004-3.988 10.565-7.451 16.627-17.689 19.258-30.241 2.824-17.44-.684-33.823-8.605-49.438h-1zm736.914-191.734c2.15 1.811 4.105 3.737 6.086 5.734l3.574 3.5 7.547 7.488 1.607 1.611c2.752 3.032 2.424 5.712 2.477 9.687l.03 1.952.081 6.396.063 4.431.153 11.669.161 11.904L2913 687l.681-1.545 3.108-7.033 1.071-2.43c12.817-28.937 32.509-53.591 62.691-65.378 20.423-6.361 39.547-2.254 58.449 6.387l1.836-2.863c3.756-5.444 8.75-7.882 14.992-9.594 4.072-.697 8.045-.91 12.172-.98l2.228-.067c8.672.034 15.341 2.826 21.651 8.763l4.684 4.867 2.439 2.496c7.346 7.576 7.346 7.576 7.248 14.201-.421 3.67-2.001 6.536-3.766 9.737l-1.112 2.113-2.379 4.458-4.992 9.446-3.724 7.08c-20.041 38.127-37.17 80.519-43.508 123.294l-.31 2.046-1.372 9.907c-1.114 7.778-2.778 13.105-9.087 18.098-9.594 5.465-20.656 6.435-31.477 4.574-5.532-1.796-9.431-5.58-13.523-9.574l-1.489-1.432-4.886-4.756-1.589-1.549c-3.567-3.56-5.97-5.974-6.118-11.122.768-9.499 2.235-18.737 4.082-28.08l.46-2.351c6.347-32.175 17.063-62.854 30.06-92.927 2.258-5.224 4.4-10.488 6.48-15.785l-2.179.813-5.145 1.921c-16.018 7.576-25.043 32.63-30.731 48.176A328.53 328.53 0 0 0 2976 720l-.627 2.033c-13.93 46.06-8.235 94.904 13.635 137.452 3.62 6.636 6.439 11.211 13.992 13.516 9.373 2.224 18.74-.544 26.855-5.516 19.906-13.778 27.594-37.722 32.145-60.484 2.831-15.915 3.322-31.502 3-47.625l-.187-12.414-.075-2.819c-.056-4.906.046-8.168 3.263-12.142 7.067-7.067 14.35-8.259 24.063-8.375l2.29-.042c11.783.099 17.527 5.481 25.522 13.605l2.875 2.791c5.104 5.122 8.444 8.72 9.25 16.021h1c.731-13.143 1.076-26.243.957-39.406l-.031-3.982-.173-16.265-.084-8.17-.096-7.586c-.022-7.033.613-11.624 4.428-17.591 1.93-1.805 1.93-1.805 3.875-2.875l1.93-1.117c6.139-2.818 11.404-3.373 18.07-3.383l2.605-.074c8.927-.041 13.937 2.773 20.387 8.82l5.008 5.066 2.586 2.564c6.61 6.678 8.809 10.841 8.953 20.361l.059 2.4.152 7.549.117 5.135L3202 720l.145-3.166 1.368-29.615.703-15.224.681-14.706.257-5.596.366-7.869.102-2.31c.183-3.794.439-7.576.799-11.358l.207-2.174c.822-4.369 3.535-7.168 6.623-10.17 9.394-6.191 20.361-6.974 31.316-5.457 6.912 1.842 11.477 6.726 16.434 11.645l2.527 2.414c9.157 8.875 9.157 8.875 9.799 14.389l-.079 3.18-.083 3.769L3273 652l-.086 2.291-.718 15.969-.61 12.7-.495 10.362-5.279 130.177-.125 3.767-3.092 102.27-.505 17.48-.157 5.833-.234 7.572-.033 2.118c-.26 5.966-2.722 9.571-6.916 13.648-9.394 6.191-20.361 6.974-31.316 5.457-6.912-1.842-11.477-6.726-16.434-11.645l-2.527-2.414c-9.598-9.302-9.598-9.302-9.816-16.389l.066-6.291.033-3.623 1.577-61.326.412-13.916.404-13.522.19-6.401c.624-21.177.624-21.177 1.661-31.118l-2 1c-.511 2.337-.511 2.337-.73 5.209l-.334 3.386-.338 3.714-.566 5.823-.776 8.235L3191 876l-.378 3.809-1.126 10.726-.322 3.211c-.703 6.321-1.451 12.272-5.901 17.145-7.966 5.704-14.624 7.36-24.336 7.484l-2.291.042c-9.804-.083-15.113-3.276-22.006-10.191l-2.516-2.602-2.586-2.578c-7.351-7.467-7.351-7.467-8.539-12.047.08-2.795.273-5.413.609-8.176l.262-2.408.879-7.728.869-7.945.578-5.275c.801-7.293 1.47-14.59 2.053-21.905l.241-3.007.51-6.555-.544 1.838c-6.31 20.946-14.547 41.76-29.456 58.162l-1.569 1.744c-16.928 18.523-39.172 30.906-64.609 32.383-28.615.983-50.736-8.342-71.704-27.802l-8.68-8.575-1.527-1.534c-16.982-17.098-29.795-36.203-38.011-58.956l-1.081-2.989L2909 820l-.17 3.505-1.631 33.463-.837 17.184-3.968 74.071-.191 3.147-.544 8.818-.157 2.576L2901 970l-.176 2.695-.209 2.676-.175 2.408c-.813 4.108-3.21 6.696-6.44 9.221-9.912 5.714-22.743 7.013-33.812 4.063-5.726-2.295-9.879-6.787-14.187-11.062l-2.785-2.672c-6.262-6.09-9.032-9.709-10.773-18.336l-.902-4.364-.479-2.339c-9.906-48.033-24.536-94.501-40.435-140.836l-.974-2.843a518.8 518.8 0 0 0-5.651-15.611l-.056 1.68c-1.592 47.577-1.592 47.577-3.444 70.507l-.181 2.273-1.119 12.504-.396 4.196-.647 6.453-.381 3.794c-1.091 5.055-3.015 9.07-7.002 12.518-9.724 5.622-20.017 7.633-31.187 5.645-6.19-1.723-10.096-5.111-14.586-9.57l-3.355-3.277c-10.56-10.396-10.56-10.396-10.791-14.018-.006-6.859.408-13.592 1.098-20.415 1.316-13.057 2.414-26.12 3.134-39.223l.13-2.352c.989-18.434 1.091-36.858 1.045-55.314l.007-13.761c.072-33.899-1.185-67.72-3.893-101.515-2.482-31.307-2.482-31.307 1.625-37.125 5.934-6.12 14.123-8.18 22.403-8.468l2.222-.032 2.097-.056c11.013.13 18.844 6.568 26.408 13.934 13.28 14.242 20.605 33.478 28.645 50.959l3.446 7.434 10.274 22.602 5.712 12.626c9.636 21.046 18.219 42.505 26.793 64 1.508-28.258 1.966-56.555 2.346-84.847l.152-10.783.053-3.618.106-7.275.242-18.596.256-18.342.082-6.91.141-9.561.008-2.838c.159-6.599 1.516-9.98 6.113-14.805 10.589-7.859 28.135-9.618 39.414-2.16zM3128 819l1 3z"/><path d="M2631 545c3.916 3.32 7.455 6.981 11 10.688l2.926 2.994L2652 566l4.289-5.859c6.435-9.107 13.643-15.594 24.711-18.141 6.117-.86 11.548-.04 17 3 3.866 3.145 7.328 6.63 10.813 10.188l2.85 2.791c6.857 6.906 10.64 12.275 10.806 22.211l-.031 2.123-.023 2.244c-.296 9.918-3.825 18.95-10.415 26.443-8.158 6.937-15.921 8.201-26.402 8.461-9.032-1.157-14.324-6.658-20.41-13.023l-2.271-2.326-4.142-4.274L2654 595l-.664 1.688c-3.776 9.086-8.277 15.96-17.336 20.313-3.912 1.423-7.608 2.111-11.723 2.547l-2.434.261L2620 620l1.728 1.712 7.709 7.663 2.721 2.695 2.588 2.578 2.396 2.38c3.375 3.582 3.06 6.422 3.026 11.151-.261 4.38-1.183 8.556-2.168 12.82l1.633-.641c5.766-2.113 10.81-2.851 16.93-2.797l2.42-.061c9.891.008 15.518 4.462 22.426 11.213l2.529 2.535 2.611 2.488 2.479 2.465 2.242 2.208c3.966 5.933 2.709 12.98 1.805 19.694l-.663 5.366-.359 2.825c-1.968 15.605-3.565 31.181-4.365 46.892l-.118 2.228c-2.437 47.163.543 97.926 23.43 140.21 2.286 4.462 3.159 8.427 2 13.375-3.976 6.586-9.958 9.348-17.25 11.25-8.616 1.649-17.822 1.909-25.75-2.25-2.962-2.055-5.436-4.475-8-7l-3.145-2.891c-7.49-7.014-12.629-13.719-16.855-23.109l-1.723 2.125-4.855 5.93-4.156 5.141c-10.46 12.79-25.889 21.663-42.266 23.805-11.422.829-26.763 1.701-36-6l-5.715-5.66-1.543-1.555L2542 905l.114 1.838 1.168 19.03.437 7.091.625 10.225.199 3.173c1.096 18.252 1.096 18.252-3.543 23.643-6.59 6.233-14.363 8.121-23.187 8.25l-3.168.078c-11.234-1.011-16.902-5.528-24.645-13.578l-2.848-2.816c-7.928-8.064-9.367-14.466-10.004-25.484l-.193-3.069-.388-6.427-.599-9.65c-.75-12.117-1.16-24.163-.969-36.303h-2l-.687 1.75c-3.083 5.286-7.767 7.181-13.441 8.707-9.526 1.801-18.222 1.037-26.871-3.457-3.729-2.954-6.946-6.275-10.187-9.75l-2.596-2.691L2413 869l-3.219 37.762-.317 4.166-1.287 17.107-.804 10.638-.435 5.887c-1.435 18.559-1.435 18.559-4.438 24.315-8.587 7.299-19.44 9.827-30.5 9.125-10.452-1.429-16.053-6.74-23.25-14.062l-2.18-2.182c-7.473-7.536-7.473-7.536-7.8-11.643a325.9 325.9 0 0 1 1.218-24.433l.637-7.666.34-4.018 1.73-21.231.173-2.166c1.679-21.118 2.957-42.252 3.978-63.412l.471-9.502c2.973-60.574 3.272-121.713.219-182.288l-.126-2.519-.602-11.119-.561-10.222-.208-3.212c-.276-5.595-.337-9.532 2.962-14.327 6.765-6.765 14.877-8.926 24.313-9.187 13.249.245 20.415 6.558 29.5 15.625l1.982 1.908 1.912 1.9 1.702 1.677c4.128 5.389 5.19 11.287 6.098 17.838l.786 5.259.408 2.792c5.824 39.563 14.752 78.379 24.298 117.187 2.304-5.806 4-11.542 5.418-17.621l.661-2.788 2.108-9.028.733-3.152c7.091-30.553 13.019-61.176 17.425-92.231l3.099-20.067.645-3.846c1.201-4.313 2.994-6.506 6.648-9.005L2479 590l2.043-1.293c5.755-2.984 11.727-3.145 18.082-3.27l2.567-.082c10.04.062 15.53 5.499 22.36 12.336l2.385 2.434 2.467 2.457c5.183 5.23 7.225 7.817 7.209 15.352v3.76l-.016 4.136-.004 4.353-.018 9.399-.024 14.975-.056 34.622-.048 31.487-.022 12.389c-.062 22.334.304 44.623 1.075 66.944l.425-2.711.56-3.567.554-3.531c7.044-44.681 16.508-88.663 27.898-132.442l.761-2.931c8.177-31.392 8.177-31.392 15.486-35.845 5.245-2.827 9.913-3.762 15.815-4.224l2.492-.234L2607 614l-1.681-1.585-7.569-7.29-2.645-2.492c-6.435-6.288-10.16-11.911-11.637-20.848.141-12.252 4.243-21.092 12.531-29.914 9.453-9.166 22.858-13.787 35-6.871zm-11 180l1 2zm-1 4v5h1v-5h-1zm-1 5l-3.418 16.815-1.164 5.718-1.668 8.229-.53 2.573c-.789 3.945-1.45 7.617-1.22 11.665 2.19-3.708 2.906-7.665 3.727-11.836l.462-2.294.953-4.796 1.468-7.301.93-4.672.445-2.188c.784-4.03 1.166-7.809 1.016-11.913h-1zm-9 45l1 4z"/></g><path d="M2385.875 593.625c5.499 4.179 5.648 10.761 6.641 17.242l.843 5.319.439 2.808 2.363 14.713.482 2.969c6.216 38.244 15.459 75.725 25.233 113.199l.657 2.526c3.206 12.288 6.754 24.455 10.468 36.599h3c4.291-13.116 7.858-26.392 11.313-39.75l.864-3.335c9.765-37.782 18.171-75.926 23.484-114.614l.398-2.866 1.777-13.567.646-4.861.242-2.2c.755-5.446 2.538-7.996 6.277-11.808 7.157-4.788 15.69-4.865 24-4 2.996.805 5.751 1.751 8 4 .089 1.563.109 3.13.1 4.695l-.009 3.089-.025 3.429-.014 3.603-.037 7.83-.052 12.601-.007 2.172-.014 4.417-.023 6.826c-.205 59.723.328 119.321 2.978 178.996l.301 6.916c1.201 27.959 2.591 55.904 4.889 83.798L2522 928l.151 2.655.306 8.188.137 2.548c.09 5.727.09 5.727-1.864 8.242-6.02 5.163-12.164 5.729-19.731 5.741l-2.367.074c-5.509.028-8.355-.96-12.633-4.449-1.999-1.999-1.488-5.878-1.684-8.625l-.181-2.415-.573-7.96-.2-2.768c-1.111-15.425-1.953-30.856-2.661-46.304l-.233-5.08-.115-2.505-1.416-25.342c-2.242-36.96-2.242-36.96-1.937-54h-5l-.611 2.615c-2.868 11.88-6.315 23.565-9.879 35.253l-3.021 10.056-1.957 6.432-.894 3.018c-1.983 6.418-3.73 11.009-9.852 14.416-4.304 1.377-7.87 1.658-12.348 1.586l-2.209.035c-4.784-.026-8.13-.717-12.229-3.41-3.157-3.469-4.758-6.478-6.106-10.952l-1.091-3.559-1.131-3.814-1.194-3.933-2.471-8.218-3.174-10.542-3.037-10.057-.586-1.941-1.622-5.421-.932-3.117C2397 802 2397 802 2397 800l-4 1-.875 12.563-.14 2.038-1.352 23.439c-.94 21.788-2.393 43.545-4.005 65.293l-.724 10.312-.899 12.313-.319 4.6c-.847 13.269-.847 13.269-4.659 17.841-7.184 6.175-15.34 5.942-24.51 6-3.813-.432-6.258-1.399-9.516-3.398-1.499-2.999-.922-5.511-.707-8.852l.144-2.251 1.915-24.488L2351 868l.16-2.294c3.421-49.411 4.198-98.758 4.153-148.268l-.002-2.142-.073-30.674-.011-3.694c-.075-28.464-.075-28.464-1.79-56.865-.427-5.351-.717-10.697-.875-16.062l-.141-2.469c-.082-4.507.093-5.993 3.231-9.469 8.333-5.134 21.027-6.494 30.223-2.437zm-461.75 7.938l2.026-.031c4.752.083 10.314.934 13.849 4.468a193.47 193.47 0 0 1 .145 7.904l.01 2.532.013 8.428.013 5.961.007 19.488v3.359c-.006 42.139-.68 84.217-2.187 126.328l-.087 2.442-1.413 37.62-.091 2.325-3.045 61.327-1.181 21.646-.19 3.646-.746 14.433-1.096 20.671-.371 7.808-.206 4.079-.15 3.357c-.46 2.865-.947 3.999-3.05 5.959-6.466 3.233-12.338 4.03-19.437 4l-2.354.049c-4.86.004-8.792-.054-12.584-3.361-1.514-4.233-2.215-8.582-3-13l-1.586-7.273-.423-1.928c-15.089-68.851-37.965-135.99-65.214-200.936l-2.184-5.328-1.281-3.035-1.074-2.594c-1.072-2.101-1.072-2.101-3.316-2.525L1812 729l.013 1.924c.286 43.021-.249 85.806-3.951 128.701l-.24 2.888-.724 8.026-.199 2.386c-.442 4.401-1.228 7.519-3.899 11.075-1.937 1.547-1.937 1.547-4 2.75l-2.062 1.234c-4.556 2.388-8.738 2.268-13.75 2.328l-2.408.088-2.361.025-2.132.044c-3.587-.737-5.581-2.008-8.286-4.47-.346-3.017-.33-5.118.031-8.066l.216-2.401.494-5.017c.329-3.189.567-6.381.803-9.577l1.154-14.258.583-7.145.174-2.051c1.317-16.275 1.697-32.506 1.678-48.828l.003-6.316-.005-13.161.003-16.617c.028-31.861-.731-63.41-3.196-95.188l-.836-10.947-.517-6.715c-1.281-16.891-1.281-16.891 1.853-20.588 7.39-4.978 15.803-6.255 24.563-5.125 3.651.769 6.834 1.649 9.333 4.544 1.222 2.04 2.236 4.108 3.23 6.269l1.23 2.501 2.711 5.594 4.942 9.862c9.105 17.825 17.519 35.929 25.656 54.214l2.628 5.863c14.713 32.73 28.02 66.105 40.103 99.892l4.764 13.14L1894 828h3c.972-5.858 1.27-11.636 1.465-17.566l.114-3.225.359-10.771.127-3.826 1.933-70.477.197-8.28.992-55.263.067-7.006.045-4.508.022-2.203.068-12.689.072-9.503-.016-3.402c.098-7.534.098-7.534 2.476-11.426 5.757-5.138 11.583-6.218 19.204-6.292zm-190 0l2.026-.031c4.752.083 10.314.934 13.849 4.468a193.47 193.47 0 0 1 .145 7.904l.01 2.532.013 8.428.013 5.961.007 19.488v3.359c-.006 42.139-.68 84.217-2.187 126.328l-.087 2.442-1.413 37.62-.091 2.325-3.045 61.327-1.181 21.646-.19 3.646-.746 14.433-1.096 20.671-.371 7.808-.206 4.079-.15 3.357c-.46 2.865-.947 3.999-3.05 5.959-6.466 3.233-12.338 4.03-19.437 4l-2.354.049c-4.86.004-8.792-.054-12.584-3.361-1.514-4.233-2.215-8.582-3-13l-1.586-7.273-.423-1.928c-15.089-68.851-37.965-135.99-65.214-200.936l-2.184-5.328-1.281-3.035-1.074-2.594c-1.072-2.101-1.072-2.101-3.316-2.525L1622 729l.013 1.924c.286 43.021-.249 85.806-3.951 128.701l-.24 2.888-.724 8.026-.199 2.386c-.442 4.401-1.228 7.519-3.899 11.075-1.937 1.547-1.937 1.547-4 2.75l-2.062 1.234c-4.556 2.388-8.738 2.268-13.75 2.328l-2.408.088-2.361.025-2.132.044c-3.587-.737-5.581-2.008-8.286-4.47-.346-3.017-.33-5.118.031-8.066l.216-2.401.494-5.017c.329-3.189.567-6.381.803-9.577l1.154-14.258.583-7.145.174-2.051c1.317-16.275 1.697-32.506 1.678-48.828l.003-6.316-.005-13.161.003-16.617c.028-31.861-.731-63.41-3.196-95.188l-.836-10.947-.517-6.715c-1.281-16.891-1.281-16.891 1.853-20.588 7.39-4.978 15.803-6.255 24.563-5.125 3.651.769 6.834 1.649 9.333 4.544 1.222 2.04 2.236 4.108 3.23 6.269l1.23 2.501 2.711 5.594 4.942 9.862c9.105 17.825 17.519 35.929 25.656 54.214l2.628 5.863c14.713 32.73 28.02 66.105 40.103 99.892l4.764 13.14L1704 828h3c.972-5.858 1.27-11.636 1.465-17.566l.114-3.225.359-10.771.127-3.826 1.933-70.477.197-8.28.992-55.263.067-7.006.045-4.508.022-2.203.068-12.689.072-9.503-.016-3.402c.098-7.534.098-7.534 2.476-11.426 5.757-5.138 11.583-6.218 19.204-6.292zm1139 0l2.026-.031c5.022.087 8.481 1.154 12.849 3.468 2.48 3.72 2.271 6.549 2.23 10.852v2.478l-.043 8.295-.022 5.911-.572 52.095-.09 6.266-1.149 43.465c-.361 8.402-.543 16.798-.685 25.206-.867 48.864-3.331 97.762-6.12 146.55l-1.034 20.097-.67 12.979-.283 6.04-.426 8.22-.076 2.422c-.2 2.954-.45 5.395-2.391 7.717-6.301 5.362-11.734 5.75-19.67 5.721l-2.695.049c-4.933.004-8.305-.151-12.305-3.361-2.234-2.234-2.361-2.929-2.866-5.937l-.436-2.471-.46-2.702c-2.201-12.172-5.043-24.145-8.051-36.141l-.842-3.371c-14.955-59.56-35.384-117.51-59.13-174.099l-.862-2.064-2.306-5.487C2766 731 2766 731 2766 729l-4 1-.025 2.261c-.839 76.1-.839 76.1-2.975 106.739l-.188 2.75-1.329 17.187-.435 5.425-.658 7.463-.152 2.203c-.608 5.695-3.012 9.156-7.239 12.972-5.409 3.164-10.489 3.287-16.625 3.375l-2.208.043c-4.931-.044-9.486-.737-13.167-4.418.04-2.197.162-4.393.313-6.586l.145-2.135 1.48-18.506.259-3.037 1.074-12.417c2.414-27.385 2.94-54.776 2.917-82.257l-.001-2.007c-.019-37.825-1.849-75.376-4.865-113.077l-.264-3.302-.499-6.115c-1.022-12.634-1.022-12.634.754-16.186 6.434-5.685 14.509-7.042 22.891-6.684 4.619.51 8.964 1.027 12.028 4.841 3.56 5.924 6.701 12.027 9.769 18.218l1.716 3.449c5.414 10.952 10.591 22.011 15.677 33.119l5.468 11.842c21.66 46.617 40.094 94.364 57.14 142.84l4-1 1.122-35.323.521-16.418 2.517-105.557.053-7.615.036-4.994.018-2.48.06-12.701.081-12.695.015-4.744.048-6.521.018-3.718c.707-4.464 2.757-6.904 6.309-9.598 5.033-2.446 9.775-3.02 15.328-3.074z" fill="#a933e4"/><path d="M3083 613c.974 3.118 1.147 4.623-.057 7.709l-1.669 2.955-1.858 3.358-1.007 1.776-5.213 9.456-1.073 1.961C3061.621 659.484 3052.92 679.554 3045 700l-1.12 2.868c-9.683 24.981-16.845 50.945-20.673 77.479l-.37 2.494-.586 4.505c-.759 5.408-2.414 7.953-6.251 11.654-7.683 4.117-16.956 5.613-25.43 3.352-5.025-1.806-5.025-1.806-6.57-3.352-.661-8.076.54-15.893 2-23.812l.669-3.66c6.564-34.503 17.411-69.468 33.064-101.021l1.693-3.421 1.564-3.038c1.252-3.775.911-6.204.01-10.048-1.757-3.03-1.757-3.03-4-5.75-3.921-5.013-3.921-5.013-5-8.25-1.782-1.142-1.782-1.142-4-2l-2.25-1.125c-7.141-2.272-11.83-.776-18.258 2.543-23.227 14.745-34.267 52.389-39.902 77.574-9.423 45.946-3.44 97.932 22.576 137.794 2.438 3.553 5.073 6.907 7.834 10.213l1.629 2.043c5.403 6.134 16.147 12.343 24.43 13.16 15.046.296 26.66-5.369 37.496-15.543 22.784-24.786 28.741-64.95 28.57-97.223l.003-2.567c-.018-4.348-.152-8.653-.495-12.988l-.188-2.459-.44-4.6c-.303-3.612-.175-5.538 1.707-8.683 6.482-6.062 14.418-6.788 23-6.535 4.642.557 7.417 1.788 11.289 4.395 3.348 5.022 3.177 10.063 3.238 15.957l.03 2.338c.176 17.621-.263 34.453-4.268 51.705l-.551 2.528c-6.632 30.096-22.27 61.646-48.804 78.921-20.997 12.313-43.963 17.878-68.047 12.523-26.255-7.098-45.974-26.139-59.598-48.973-24.619-42.958-27.723-94.711-15.371-142.047 8.765-32.156 24.775-65.341 54.358-83.149 15.077-8.555 30.754-12.415 48.013-8.804 5.882 1.656 11.214 4.411 16.57 7.307 3.499 1.872 5.372 2.693 9.43 2.693 1.591-1.847 1.591-1.847 2.875-4.25 3.418-5.444 6.621-7.887 12.75-10 8.805-1.869 17.106-1.258 25.375 2.25z" fill="#a934e4"/><path d="M2171.438 616.688l2.197-.049c5.175-.005 8.75 1.009 13.365 3.361l1 1c-.447 6.591-2.271 12.435-4.312 18.688-5.833 18.565-9.311 37.806-9.852 57.289l-.081 2.458-.062 4.605c-.154 5.78-1.641 8.108-5.693 11.96-6.824 4.032-15.221 5.369-23 4-4.259-1.127-7.11-2.594-9.508-6.382-1.42-3.041-2.662-6.111-3.867-9.243l-2.832-6.809-1.413-3.386c-5.5-12.672-12.974-24.262-21.38-35.18l-1.832-2.395c-6.022-7.376-14.884-14.537-24.539-15.953-5.4-.321-9.5.423-13.934 3.609-4.323 4.433-5.872 10.362-6.195 16.426.768 15.78 7.511 29.326 18.91 40.074 12.354 10.677 27.071 17.705 41.948 24.108 37.541 16.197 37.541 16.197 50.642 28.13l2.121 1.73c18.102 14.856 32.192 39.983 34.879 63.27 1.089 20.118-1.521 36.905-14.949 52.762-18.674 20.382-47.066 28.012-73.859 29.441-26.237.339-52.276-6.477-72.191-24.203l-2.148-1.898c-14.815-13.907-21.441-34.366-22.102-54.289.177-14.238 5.057-26.23 14.805-36.492 7.191-6.824 15.111-11.095 24.445-14.32l2.773-.973c19.727-5.686 44.158-3.225 62.539 5.785 1.243.705 2.48 1.423 3.688 2.188-.375 2.454-.658 3.692-2.531 5.379-9.802 5.893-19.732 8.79-31.207 5.941l-4.926-1.637c-5.42-1.586-10.35-1.399-15.523.879-5.959 3.419-9.553 7.771-11.687 14.313-4.328 19.136.5 39.053 10.797 55.473 7.464 11.436 17.409 20.623 31.078 23.652 14.706 2.984 29.946 1.88 42.715-6.336 11.692-8.514 17.492-20.975 19.973-35.016 2.523-21.384-3.355-42.855-16.562-59.836-17.26-20.608-41.223-31.002-65.028-42.333-26.366-12.591-53.073-26.395-63.535-55.667-3.498-12.7-2.779-25.083 3.438-36.812 1.777-2.914 3.721-5.463 6-8l1.586-1.828c8.89-9.6 20.919-14.826 33.961-15.484 23.161-.578 42.172 8.066 59.453 23.313a323.22 323.22 0 0 1 7.773 7.996c2.193 1.973 3.348 2.642 6.227 3.004l.699-3.008c6.302-26.521 6.302-26.521 13.301-30.992 4.831-2.134 9.249-2.335 14.438-2.312zM3248 621c2 2 2 2 2.228 5.582l-.045 4.675-.023 2.567c-.112 9.021-.502 18.03-.933 27.041l-.44 9.493-.638 13.973-1.707 38.571-.089 2.071-4.021 111.277-.243 7.464-.926 28.656-.292 9.038-1.09 41.738-.094 5.748-.093 10.075-.062 4.297-.02 3.625c-.618 3.766-1.867 5.404-4.51 8.109-6.888 4.325-14.988 5.636-23 5-3.818-1.047-7.148-2.148-10-5a132 132 0 0 1-.266-9.242l-.008-2.926.024-9.707.006-3.39c.055-25.122.937-50.21 1.868-75.311l1.001-32.611.062-2.298c.281-10.507.358-21.004.313-31.514-6.915 1.179-13.774 2.56-20.625 4.063l-2.443.528c-3.775.559-3.775.559-6.932 2.409-.214 1.447-.366 2.903-.493 4.36l-.255 2.838-.268 3.123-.596 6.639-.315 3.546-5.276 52.493-.569 4.98-.823 6.866-.459 3.85c-1.351 4.718-4.038 7.114-8.131 9.67-7.707 3.246-16.42 4.467-24.488 1.73C3131.125 894 3131.125 894 3128 892c-.277-7.57.483-14.85 1.482-22.348 1.955-14.767 3.432-29.568 4.768-44.402l.268-2.95.747-8.347.227-2.521c.595-5.715.595-5.715.508-11.432-1.631-1.058-3.303-2.053-5-3-3.138-4.042-3.51-7.724-3.437-12.687l.019-2.14c.213-7.187 1.928-13.078 6.481-18.735C3136 762 3136 762 3139 761c.722-11.093 1.123-22.123 1.077-33.239l.025-11.999-.002-15.109.023-12.375-.017-4.674c-.134-12.06-.134-12.06 2.408-15.872 5.731-5.066 12.01-6.079 19.487-6.044l2.078-.049c4.726-.005 7.904.904 11.922 3.361 3.183 3.183 3.125 6.379 3.129 10.736l.009 2.854-.006 3.087.004 3.231-.012 10.406-.003 3.549c-.016 18.397-.287 36.76-1.122 55.138 3.638 1.283 6.163.709 9.859-.215l3.379-.83 3.512-.893 3.559-.881L3207 749l2.438-52.625 1.693-39.713.343-7.294.515-10.306.127-3.156c.32-5.479.616-9.012 4.885-12.907 9.773-5.944 20.603-6.703 31-2zm-631.148 4.105c2.193 3.618.457 8.533-.441 12.492l-2.325 8.941-.88 3.353-1.865 7.076-4.817 18.411-.946 3.634c-3.446 13.274-6.648 26.589-9.578 39.988l-.762 3.45c-4.475 20.395-8.035 40.922-11.238 61.55l-.504 3.239c-1.948 12.845-3.096 25.758-4.184 38.699l-.203 2.361c-.899 10.592-1.281 21.072-1.11 31.701l4 1c31.038-48.558 41.385-104.947 48.164-161.371l.27-2.235 1.186-10.383c1.689-14.748 1.689-14.748 7.131-19.324 5.851-3.038 11.253-3.98 17.813-4l3.816-.051c4.034.405 7.667 1.41 10.621 4.363.481 6.544-.287 12.866-1.312 19.313-6.242 43.583-8.293 89.189-.687 132.688l.485 2.932c3.636 21.691 9.966 44.19 21.515 63.068.5 2.563.5 2.563 0 5-4.464 4.6-10.064 7.089-16.41 7.398-1.551.008-3.102 0-4.652-.023l-2.354.035c-4.885-.025-8.497-.48-12.584-3.41-1.598-2.456-2.807-4.615-4-7.25l-1.021-2.156L2647 879l-.861-1.943c-2.533-5.806-4.782-11.597-6.444-17.706l-.644-2.354-1.14-4.541c-.56-2.329-.56-2.329-1.911-5.457-2.508-1.566-2.508-1.566-5-2l-.742 2.547c-1.4 3.845-3.264 7.225-5.383 10.703l-1.2 1.986c-3.464 5.625-7.401 10.73-11.675 15.764l-1.926 2.5c-10.298 12.412-25.315 19.409-41.074 21.5-9.111.834-20.391.423-28-5-1.194-2.389-1.139-3.886-1.161-6.553l-.029-2.886-.013-3.155-.021-3.276c-.123-24.545.123-48.765 3.225-73.13l.28-2.259c5.354-43.161 14.35-85.856 25.025-127.996l1.437-5.697 4.731-18.396 1.518-5.877 2.149-8.138.605-2.434c1.543-5.542 3.5-7.941 8.254-11.203 9.362-4.787 20.812-4.291 29.852 1.105zm-1063.289-9.542c1.67 2.832 1.51 3.578 1.117 6.75l-.317 2.723L1554 628c-1.575 14.153-2.949 28.258-3.535 42.488l-.123 2.953-.519 14.576-.198 5.373-.057 2.505c-.226 5.701-.226 5.701-1.98 7.768-5.888 4.953-12.929 5.72-20.338 5.773l-2.184.03c-4.77-.077-8.258-.537-12.066-3.468-1.659-3.157-2.645-6.473-3.687-9.875-4.99-14.877-12.056-28.493-20.625-41.625l-1.164-1.797c-3.245-4.771-6.908-8.657-12.336-10.828-9.096.357-16.001 8.195-22.187 14.125l-1.977 1.785c-7.895 7.356-13.283 17.054-14.398 27.84.631 5.68 2.095 9.15 6.25 13.125 10.485 6.672 24.324 5.673 36.217 5.602 7.943.097 14.356.846 20.908 5.648 2 3 2 3 1.843 5.063-1.065 2.448-1.908 2.851-4.323 3.921l-2.193 1.002L1493 721l-4.551 2.078-2.349 1.066c-8.415 3.857-15.924 7.937-23.1 13.856l-3.234 2.559c-7.216 5.8-13.284 11.93-18.766 19.441l-1.238 1.671c-14.332 19.547-21.853 42.165-18.453 66.545 2.385 12.757 8.196 24.067 16.691 33.784l1.578 1.863c9.58 10.487 24.176 16.307 38.176 17.34 11.737.196 22.877-1.721 32.246-9.203 9.668-9.522 12.192-24.509 12.379-37.551l-.004-3.199.004-3.434c-.144-12.313-1.505-24.489-2.956-36.706-2.174-18.409-2.174-18.409-1.423-24.11 2-2.5 2-2.5 5-4l3.375-1.75c7.435-2.559 17.179-2.797 24.438.375 4.395 3.274 4.834 6.409 5.782 11.678l1.531 12.384.268 2.344c1.502 13.568 2.045 27.073 2.107 40.719l.031 2.718c.135 14.752-.71 30.053-9.531 42.532l-1.266 1.848c-12.674 16.571-37.87 20.701-57.172 23.684-2.868.293-5.679.418-8.562.469l-2.172.058c-25.103.617-51.141-1.882-70.39-19.62-1.851-1.78-3.645-3.597-5.437-5.437l-1.793-1.766c-14.918-15.837-21.028-40.121-20.488-61.363 1.795-24.708 10.39-47.483 27.281-65.871l1.323-1.451c6.376-6.918 13.159-12.702 20.953-17.984 1.623-1.121 3.181-2.335 4.724-3.564v-3l-3.551-1.102c-26.917-8.531-26.917-8.531-34.105-20.703-3.123-7.425-2.225-15.907.594-23.32 9.867-20.839 30.089-39.694 51.445-48.227 15.145-5.172 29.457-5.14 44.087 1.814 4.475 2.216 8.729 4.525 12.718 7.537l2.813 2 3-1 .48-3.762.707-4.926.307-2.475c.816-5.45 1.955-8.342 6.506-11.838 9.784-5.409 21.315-4.076 30.563 1.563z" fill="#a933e4"/><path d="M1290.868 648.37c5.923 4.344 11.373 9.006 16.622 14.155l4.9 4.678c34.679 33.172 58.175 83.075 59.891 131.191.578 27.625-4.004 56.522-23.34 77.633-15.23 15.796-35.619 22.91-57.158 23.316-21.777.177-40.991-3.622-60.471-13.718-3.296-1.919-3.296-1.919-7.312-1.625l-1.75 2.75c-3.428 4.952-8.394 7.111-14.25 8.25-7.351.546-13.326.214-20-3l-2-2c.304-8.247 2.977-15.472 5.736-23.18l.963-2.836.901-2.54c.507-3.103-.185-4.675-1.6-7.444-1.795-2.324-3.699-4.513-5.637-6.719-1.363-2.281-1.363-2.281-1.371-4.89 1.34-3.178 2.712-3.739 5.82-5.141l2.645-1.234c2.189-.874 4.258-1.474 6.543-2.016 2.895-14.423 5.418-28.843 7.25-43.437l.258-2.05c1.134-9.148 2-18.275 1.989-27.502.081-5.149 1.149-8.096 4.503-12.01 7.198-4.7 15.585-5.741 24-5 3.858.985 7.134 2.134 10 5 .933 9.037-.333 18.483-1.125 27.5l-.19 2.189c-1.056 11.894-2.655 23.66-4.623 35.436l-.367 2.223c-1.529 9.163-3.468 18.102-5.928 27.062-1.441 6.721-1.441 6.721.744 12.926 13.727 12.864 31.342 25.355 50.863 25.102l2.515-.025c10.842-.297 19.338-3.729 27.11-11.412 7.877-9.307 12.338-20.206 15-32l.625-2.551c9.328-44.764-9.329-95.545-33.316-132.672-5.836-8.799-12.348-16.853-19.309-24.777l-1.859-2.266c-4.729-5.72-10.28-10.211-16.141-14.734l-2.941-2.277c-4.628-3.482-8.444-6.092-14.059-7.723-.882 2.954-1.047 5.289-.746 8.35l.243 2.58.281 2.768.273 2.878.887 9.111.876 9.057.551 5.63c1.48 15.411 1.48 15.411-1.364 19.501-7.019 4.972-15.433 6.98-24 6.125-7.654-1.687-7.654-1.687-10.575-4.537-2.029-3.508-2.028-6.961-2.198-10.916l-.303-5.212-.146-2.763c-.864-16.076-2.378-31.85-5.151-47.708l-.637-3.657-.577-3.141c-.46-3.427-.632-6.613-.411-10.066 20.309-23.516 69.822 5.764 88.868 19.37zM1994 742c2.564 2.069 3.846 3.236 4.506 6.505l.009 2.869.04 3.304-.016 3.611.052 5.798.024 6.229.148 19.746.063 6.895 1.237 50.231.141 4.254.069 2.09.199 6.1.249 7.38L2001 877l.095 3.839.055 3.806.059 3.456C2001 891 2001 891 1999 894.188c-7.982 4.823-17.13 7.327-26.41 5.281-4.578-1.37-6.977-2.316-9.59-6.469-.43-2.291-.43-2.291-.508-4.849l-.111-2.942-.076-3.197-.114-3.362-.316-10.962-.236-7.637-.543-19.385-.275-10.268-.732-34.818-.207-11.388-.221-14.102-.095-5.236-.089-7.169-.069-2.105c.024-5.571 1.8-7.805 5.592-11.579 8.715-5.077 19.686-5.802 29-2zm4.938-116.125C2002 628 2002 628 2003 630l-.312 6.625-.145 2.157-.988 12.105-.492 5.426-.268 2.898c-.62 7.239-.952 14.459-1.193 21.719l-.211 5.858-.273 8.827-.262 8.334-.035 2.541c-.18 4.251-.437 6.023-3.151 9.466-7.785 5.961-16.191 6.762-25.669 6.044-3.621-.96-6.319-2.319-9-5-.259-3.075-.259-3.075-.266-7.043l-.008-2.156.024-6.988.008-2.41c.05-12.237.528-24.334 1.916-36.5l1.021-9.907.742-7.121.333-3.364.35-3.144.295-2.778c.829-3.673 2.325-6.579 5.283-8.953 8.219-3.924 19.87-4.78 28.238-.762zm628.16-75.922c3.229 2.507 4.682 5.244 5.902 9.047 1.241 11.688-.824 22.098-8.289 31.344-5.905 5.716-13.396 6.976-21.309 6.871-4.563-.408-6.68-2.412-9.652-5.715-4.186-5.98-3.357-13.516-2.75-20.5 2.494-8.742 8.977-15.848 16.688-20.5 5.775-2.55 13.592-3.191 19.41-.547zm57.777-1.203l3.117-.078c4.077.445 6.721 1.798 9.371 4.949 4.204 8.044 3.557 16.187.949 24.691-3.296 8.736-6.425 12.803-15.008 16.742-5.914 2.426-12.151 3.248-18.18.758-5.538-4.723-7.767-9.29-8.5-16.5.385-10.644 5.815-18.251 13.375-25.312 4.716-3.842 8.806-5.159 14.875-5.25z" fill="#a934e4"/></svg>