<svg width="876.8199951171874px" height="170.03999023437498px" xmlns="http://www.w3.org/2000/svg" viewBox="-188.40999755859372 -10.019995117187491 876.8199951171874 170.03999023437498" style="background: none;" preserveAspectRatio="xMidYMid"><defs><filter id="editing-hole" x="-100%" y="-100%" width="300%" height="300%"><feFlood flood-color="#000000" result="black"></feFlood><feMorphology operator="dilate" radius="2" in="SourceGraphic" result="erode"></feMorphology><feGaussianBlur in="erode" stdDeviation="4" result="blur"></feGaussianBlur><feOffset in="blur" dx="2" dy="2" result="offset"></feOffset><feComposite operator="atop" in="offset" in2="black" result="merge"></feComposite><feComposite operator="in" in="merge" in2="SourceGraphic" result="inner-shadow"></feComposite></filter></defs><g filter="url(#editing-hole)"><g transform="translate(-64.30000114440918, 111.25)"><path d="M19.50 0L19.50 0L9.90 0L9.90-70L19.50-70L19.50-70Q33.90-70 43.90-59.40L43.90-59.40L43.90-59.40Q53.90-48.80 53.90-35L53.90-35L53.90-35Q53.90-21.20 43.90-10.60L43.90-10.60L43.90-10.60Q33.90 0 19.50 0ZM12.90-3L19.50-3L19.50-3Q32.60-3 41.75-12.65L41.75-12.65L41.75-12.65Q50.90-22.30 50.90-35L50.90-35L50.90-35Q50.90-47.70 41.75-57.35L41.75-57.35L41.75-57.35Q32.60-67 19.50-67L19.50-67L12.90-67L12.90-3ZM105.40-7.90L107.60-5.90L107.60-5.90Q102.10 1 89.60 1L89.60 1L89.60 1Q77.10 1 71.70-6.10L71.70-6.10L71.70-6.10Q66.30-13.20 66.30-29L66.30-29L66.30-29Q66.30-44.80 71.70-51.90L71.70-51.90L71.70-51.90Q77.10-59 89.60-59L89.60-59L89.60-59Q104.10-59 109.30-49.50L109.30-49.50L84.80-29L80.10-29L105.40-50.10L105.40-50.10Q101-56 89.60-56L89.60-56L89.60-56Q84.60-56 81.20-54.95L81.20-54.95L81.20-54.95Q77.80-53.90 74.95-51.05L74.95-51.05L74.95-51.05Q72.10-48.20 70.70-42.75L70.70-42.75L70.70-42.75Q69.30-37.30 69.30-29L69.30-29L69.30-29Q69.30-20.70 70.70-15.25L70.70-15.25L70.70-15.25Q72.10-9.80 74.95-6.95L74.95-6.95L74.95-6.95Q77.80-4.10 81.20-3.05L81.20-3.05L81.20-3.05Q84.60-2 89.60-2L89.60-2L89.60-2Q101-2 105.40-7.90L105.40-7.90ZM126.60 0L123.60 0L123.60-58L126.60-58L159.20-5.50L159.20-58L162.20-58L162.20 0L159.20 0L126.60-52.60L126.60 0ZM184.20 0L181.20 0L181.20-58L184.20-58L216.80-5.50L216.80-58L219.80-58L219.80 0L216.80 0L184.20-52.60L184.20 0ZM238.80 0L238.80-58L241.80-58L241.80 0L238.80 0ZM276.10-59.20L276.10-59.20L276.10-59.20Q288.50-59.20 293.70-53.70L293.70-53.70L291.70-51.50L291.70-51.50Q286.90-56.20 276.50-56.20L276.50-56.20L276.50-56.20Q260.90-56.20 260.90-43.80L260.90-43.80L260.90-43.80Q260.90-39 264.70-36.15L264.70-36.15L264.70-36.15Q268.50-33.30 273.95-31.80L273.95-31.80L273.95-31.80Q279.40-30.30 284.85-28.65L284.85-28.65L284.85-28.65Q290.30-27 294.10-23.35L294.10-23.35L294.10-23.35Q297.90-19.70 297.90-13.80L297.90-13.80L297.90-13.80Q297.90-6.90 292.20-2.80L292.20-2.80L292.20-2.80Q286.50 1.30 275.70 1.30L275.70 1.30L275.70 1.30Q270.40 1.30 265.25-0.10L265.25-0.10L265.25-0.10Q260.10-1.50 257.60-4.20L257.60-4.20L259.60-6.40L259.60-6.40Q264.70-1.70 275.30-1.70L275.30-1.70L275.30-1.70Q285-1.70 289.95-5.30L289.95-5.30L289.95-5.30Q294.90-8.90 294.90-13.70L294.90-13.70L294.90-13.70Q294.90-18.70 291.10-21.80L291.10-21.80L291.10-21.80Q287.30-24.90 281.85-26.45L281.85-26.45L281.85-26.45Q276.40-28 270.95-29.65L270.95-29.65L270.95-29.65Q265.50-31.30 261.70-34.80L261.70-34.80L261.70-34.80Q257.90-38.30 257.90-44L257.90-44L257.90-44Q257.90-51.70 263.05-55.45L263.05-55.45L263.05-55.45Q268.20-59.20 276.10-59.20ZM351-0.10L351-3L390.40-3L390.40-62.90L367.90-14.70L345.40-63L345.40 0L342.40-0.10L342.40-70.10L345.40-70.10L367.90-21.80L390.40-70L393.40-70.10L393.40 0L351-0.10ZM438.20-65.40L438.20-71.20L444.80-71.20L444.80-65.40L438.20-65.40ZM420.40-65.40L420.40-71.20L427-71.20L427-65.40L420.40-65.40ZM411.80-58L414.80-58L414.80-29L414.80-29Q414.80-14.10 419.55-8.05L419.55-8.05L419.55-8.05Q424.30-2 432.60-2L432.60-2L432.60-2Q440.90-2 445.65-8.05L445.65-8.05L445.65-8.05Q450.40-14.10 450.40-29L450.40-29L450.40-58L453.40-58L453.40-29L453.40-29Q453.40 1 432.60 1L432.60 1L432.60 1Q411.80 1 411.80-29L411.80-29L411.80-58ZM474.40 0L471.40 0L471.40-58L474.40-58L507.00-5.50L507.00-58L510.00-58L510.00 0L507.00 0L474.40-52.60L474.40 0ZM531.90-6.10L531.90-6.10L531.90-6.10Q526.50-13.20 526.50-29L526.50-29L526.50-29Q526.50-44.80 531.90-51.90L531.90-51.90L531.90-51.90Q537.30-59 549.80-59L549.80-59L549.80-59Q562.30-59 567.80-52.10L567.80-52.10L565.60-50.10L565.60-50.10Q561.20-56 549.80-56L549.80-56L549.80-56Q544.80-56 541.40-54.95L541.40-54.95L541.40-54.95Q538-53.90 535.15-51.05L535.15-51.05L535.15-51.05Q532.30-48.20 530.90-42.75L530.90-42.75L530.90-42.75Q529.50-37.30 529.50-29L529.50-29L529.50-29Q529.50-20.70 530.90-15.25L530.90-15.25L530.90-15.25Q532.30-9.80 535.15-6.95L535.15-6.95L535.15-6.95Q538-4.10 541.40-3.05L541.40-3.05L541.40-3.05Q544.80-2 549.80-2L549.80-2L549.80-2Q561.20-2 565.60-7.90L565.60-7.90L567.80-5.90L567.80-5.90Q562.30 1 549.80 1L549.80 1L549.80 1Q537.30 1 531.90-6.10ZM618.70-58L618.70 0L615.70 0L615.70-29L585.70-29L585.70 0L582.70 0L582.70-58L585.70-58L585.70-32L615.70-32L615.70-58L618.70-58Z" fill="#d3a4ea"></path></g></g><style>text {
  font-size: 64px;
  font-family: Arial Black;
  dominant-baseline: central;
  text-anchor: middle;
}</style></svg>