<svg width="511" height="116" viewBox="0 0 511 116" fill="none" xmlns="http://www.w3.org/2000/svg">
<path d="M12.8471 20.0091C18.9329 20.7967 24.6965 23.1236 30.1379 26.9899C35.651 30.8562 40.1974 35.51 43.7773 40.9515C47.3572 46.3213 49.9705 52.2997 51.6173 58.8867C53.264 65.4737 53.5504 71.7027 52.4765 77.5738C51.5457 82.3708 49.6484 86.3087 46.7844 89.3874C43.9921 92.4661 40.6986 94.4351 36.9039 95.2942C33.1809 96.225 29.2072 96.3682 24.9829 95.7238C20.8302 95.151 16.8923 93.8265 13.1693 91.7501C13.1693 91.7501 13.1335 91.8217 13.0619 91.9649C13.0619 92.0365 13.0619 92.1081 13.0619 92.1797C12.4175 93.8981 10.4843 94.8288 7.26244 94.972C4.11214 95.1152 2.25059 94.4351 1.67781 92.9315C1.46302 92.5019 1.46302 92.0007 1.67781 91.4279C2.39379 89.4948 3.18136 87.1321 4.04054 84.3398C3.10977 83.2658 2.39379 82.2992 1.8926 81.44C1.24822 80.5093 1.31982 79.6859 2.1074 78.9699C2.96657 78.1823 4.18373 77.6454 5.75889 77.359C7.11924 70.7004 7.97842 63.8628 8.33641 56.8462C8.33641 55.4142 9.30298 54.3403 11.2361 53.6243C13.2409 52.9083 15.174 52.7651 17.0355 53.1947C18.9687 53.6243 19.8995 54.4835 19.8279 55.7722C19.4699 65.5095 18.1811 74.4951 15.9616 82.7288C18.1095 84.8767 20.329 86.6309 22.6202 87.9912C24.9829 89.3516 27.5246 90.0318 30.2453 90.0318C33.0377 90.0318 35.4362 88.922 37.4409 86.7025C39.0877 84.7693 40.2332 82.2992 40.8776 79.2921C41.5936 76.2134 41.8442 73.3137 41.6294 70.593C41.4862 67.8007 41.1282 65.0083 40.5554 62.216C39.1951 56.0586 36.5102 49.7938 32.5007 43.4216C28.4912 36.9778 23.8373 32.2523 18.5391 29.2452C19.1119 33.3263 19.5415 38.016 19.8279 43.3142C19.8995 44.6746 18.9687 45.7485 17.0355 46.5361C15.174 47.2521 13.2409 47.3953 11.2361 46.9657C9.30298 46.5361 8.30061 45.6411 8.22901 44.2808C7.79942 36.1186 7.04765 29.3168 5.97368 23.8754C5.68729 22.3718 6.72546 21.2621 9.08819 20.5461C10.3053 20.0449 11.5583 19.8659 12.8471 20.0091ZM97.9833 59.9607C98.0549 60.7483 98.2339 62.4666 98.5203 65.1157C98.8783 67.7649 99.1289 70.0202 99.2721 71.8817C99.4153 73.6717 99.4869 75.7838 99.4869 78.2181C99.4869 80.6525 99.2005 82.8362 98.6277 84.7693C98.1265 86.7025 97.3389 88.3134 96.265 89.6022C94.3318 91.8933 91.1815 93.6475 86.8141 94.8646C82.5182 96.0102 78.1149 96.4756 73.6043 96.2608C69.1652 96.046 65.5853 95.2942 62.8646 94.0055C58.3539 91.7859 55.0604 88.385 52.9841 83.8028C50.9077 79.1489 50.1918 74.2445 50.8362 69.0894C52.1249 60.2113 56.922 53.0873 65.2273 47.7175C62.793 47.1447 60.7524 46.3929 59.1057 45.4621C57.4589 44.5314 56.1702 43.3858 55.2394 42.0254C54.3086 40.5935 54.0939 38.8393 54.595 36.763C55.1678 34.6151 56.5282 32.2881 58.6761 29.7822C61.7548 26.1307 64.9409 23.589 68.2344 22.157C71.5279 20.6535 74.6424 20.1523 77.5779 20.6535C80.5135 21.1547 83.3058 22.4792 85.9549 24.6272C86.1697 22.8372 86.3845 21.3695 86.5993 20.2239C86.8141 19.0067 87.9238 18.1476 89.9286 17.6464C91.9333 17.0736 93.8306 17.1094 95.6206 17.7538C97.4105 18.3982 98.1623 19.4721 97.8759 20.9757C97.0168 25.7011 96.5156 32.5029 96.3724 41.3811C96.6588 42.097 96.4798 42.7414 95.8354 43.3142C95.191 43.887 94.2602 44.3524 93.0431 44.7104C91.3247 45.2831 89.499 45.3547 87.5658 44.9251C85.7043 44.4956 84.8093 43.6364 84.8809 42.3476C83.6638 38.6961 82.196 35.4742 80.4777 32.6819C80.3345 32.5387 80.0839 32.1807 79.7259 31.608C79.4395 31.0352 79.1531 30.534 78.8667 30.1044C78.5803 29.6748 78.2581 29.2094 77.9001 28.7082C77.5421 28.2071 77.1484 27.8133 76.7188 27.5269C76.3608 27.2405 76.0028 27.0615 75.6448 26.9899C74.7856 26.7751 73.3179 27.6701 71.2415 29.6748C69.1652 31.608 67.8048 33.1473 67.1605 34.2929C66.3729 35.868 65.9791 37.2284 65.9791 38.3739C66.0507 39.4479 66.4445 40.2713 67.1605 40.8441C67.948 41.3453 68.9146 41.739 70.0602 42.0254C71.2057 42.3118 72.4587 42.455 73.8191 42.455C75.1794 42.3834 76.4682 42.3476 77.6853 42.3476C79.7617 42.2044 81.5158 42.8488 82.9478 44.2808C84.5945 45.7843 83.9859 47.0373 81.122 48.0397C76.3966 49.6148 72.1723 52.5503 68.4492 56.8462C64.7261 61.0705 62.5066 65.7243 61.7906 70.8078C61.0746 75.8196 62.7214 80.6883 66.7309 85.4137C68.4492 87.3469 70.7045 88.7072 73.4969 89.4948C76.2892 90.2108 78.9383 90.175 81.4442 89.3874C83.9501 88.5282 85.6685 86.9889 86.5993 84.7693C87.172 83.2658 87.53 81.3684 87.6732 79.0773C87.8164 76.7862 87.8164 74.7814 87.6732 73.0631C87.6016 71.3448 87.3868 69.1252 87.0289 66.4045C86.6709 63.6838 86.4561 61.8938 86.3845 61.0347C86.3129 59.6027 87.2079 58.5287 89.0694 57.8128C90.9309 57.0968 92.8641 56.9536 94.8688 57.3832C96.8736 57.7412 97.9117 58.6003 97.9833 59.9607ZM146.166 17.539C146.023 50.1876 144.949 81.44 142.944 111.296C143.159 112.37 142.586 113.265 141.226 113.981C139.865 114.697 138.29 115.055 136.5 115.055C134.997 115.055 133.744 114.805 132.741 114.303C131.739 113.874 131.274 113.194 131.345 112.263C127.407 92.6451 120.784 72.0249 111.477 50.4024C111.763 64.722 111.226 77.9318 109.866 90.0318C109.723 91.4637 108.649 92.5377 106.644 93.2537C104.639 93.8981 102.706 94.0055 100.844 93.5759C98.9829 93.1463 98.1237 92.3229 98.2669 91.1058C100.558 71.2732 100.558 48.1829 98.2669 21.8348C98.2669 21.8348 98.2669 21.6917 98.2669 21.4053C98.2669 21.4053 98.2669 21.3695 98.2669 21.2979C98.3385 21.2263 98.3743 21.1905 98.3743 21.1905C98.5891 20.0449 99.5557 19.1857 101.274 18.6129C102.992 17.9686 104.711 17.8254 106.429 18.1834C108.219 18.4698 109.329 19.1857 109.758 20.3313C119.496 39.4479 127.336 57.8844 133.278 75.6406C134.066 56.3808 134.495 37.3358 134.567 18.5055C134.567 17.0736 135.534 15.9996 137.467 15.2836C139.4 14.5677 141.333 14.4245 143.266 14.8541C145.199 15.2836 146.166 16.1786 146.166 17.539ZM192.837 17.539C192.694 50.1876 191.62 81.44 189.615 111.296C189.83 112.37 189.257 113.265 187.897 113.981C186.537 114.697 184.962 115.055 183.172 115.055C181.668 115.055 180.415 114.805 179.413 114.303C178.41 113.874 177.945 113.194 178.017 112.263C174.079 92.6451 167.456 72.0249 158.148 50.4024C158.435 64.722 157.898 77.9318 156.537 90.0318C156.394 91.4637 155.32 92.5377 153.315 93.2537C151.311 93.8981 149.377 94.0055 147.516 93.5759C145.654 93.1463 144.795 92.3229 144.938 91.1058C147.229 71.2732 147.229 48.1829 144.938 21.8348C144.938 21.8348 144.938 21.6917 144.938 21.4053C144.938 21.4053 144.938 21.3695 144.938 21.2979C145.01 21.2263 145.046 21.1905 145.046 21.1905C145.261 20.0449 146.227 19.1857 147.945 18.6129C149.664 17.9686 151.382 17.8254 153.101 18.1834C154.89 18.4698 156 19.1857 156.43 20.3313C166.167 39.4479 174.007 57.8844 179.95 75.6406C180.737 56.3808 181.167 37.3358 181.238 18.5055C181.238 17.0736 182.205 15.9996 184.138 15.2836C186.071 14.5677 188.004 14.4245 189.938 14.8541C191.871 15.2836 192.837 16.1786 192.837 17.539ZM192.254 55.6648C192.254 54.3045 193.221 53.2663 195.154 52.5503C197.087 51.7627 199.02 51.5837 200.953 52.0133C202.886 52.4429 203.853 53.3379 203.853 54.6983C203.853 68.087 204.139 80.6525 204.712 92.3945C204.712 93.8265 203.746 94.9004 201.812 95.6164C199.951 96.3324 198.054 96.4756 196.12 96.046C194.187 95.688 193.185 94.8288 193.113 93.4685C192.541 81.6548 192.254 69.0536 192.254 55.6648ZM193.973 23.6606C194.187 22.3718 195.297 21.4769 197.302 20.9757C199.307 20.4029 201.204 20.4387 202.994 21.0831C204.784 21.7274 205.536 22.8014 205.249 24.305C205.249 24.7346 205.213 25.1283 205.142 25.4863C204.999 26.9183 204.855 28.2787 204.712 29.5674C204.283 34.0781 203.996 39.1257 203.853 44.7104C203.853 46.1423 202.886 47.2163 200.953 47.9323C199.02 48.6482 197.087 48.7914 195.154 48.3618C193.221 47.9323 192.29 47.0731 192.362 45.7843C192.505 36.6914 193.042 29.3168 193.973 23.6606ZM243.06 53.4095C246.497 55.7722 249.325 58.7793 251.545 62.4308C253.836 66.0107 255.268 69.698 255.841 73.4927C256.485 77.2158 255.948 80.8673 254.23 84.4472C252.511 88.027 249.54 90.8552 245.316 92.9315C241.807 94.6498 237.941 95.688 233.717 96.046C229.493 96.404 225.412 96.0818 221.474 95.0794C217.607 94.0771 214.171 92.1797 211.164 89.3874C208.156 86.5235 206.223 82.9794 205.364 78.7551C204.648 75.2468 204.684 72.1323 205.472 69.4116C206.331 66.6909 207.727 64.5788 209.66 63.0752C211.665 61.5 213.956 60.3545 216.533 59.6385C219.183 58.8509 221.975 58.6003 224.91 58.8867C227.917 59.1015 230.781 59.7459 233.502 60.8199C236.008 61.8222 236.187 63.0394 234.039 64.4714C231.891 65.9033 229.564 66.5119 227.058 66.2971C226.557 66.2971 226.127 66.2255 225.77 66.0823C221.545 64.364 218.825 65.3305 217.607 68.982C216.39 72.4903 216.856 76.5356 219.004 81.1179C221.151 85.7717 224.194 88.564 228.132 89.4948C231.784 90.354 234.898 90.175 237.476 88.9578C240.125 87.6691 241.986 85.8075 243.06 83.3732C244.134 80.8673 244.564 78.0749 244.349 74.9962C244.206 71.8459 243.383 68.9104 241.879 66.1897C240.375 63.6122 238.299 61.3569 235.65 59.4237C233.072 57.419 230.352 55.7722 227.488 54.4835C224.696 53.1947 221.867 51.9059 219.004 50.6172C216.211 49.2568 213.598 47.5385 211.164 45.4621C208.801 43.3142 207.011 40.8441 205.794 38.0518C204.147 34.1855 204.29 30.4266 206.223 26.7751C208.156 23.1236 211.199 20.7967 215.352 19.7943C223.013 18.076 230.28 20.9757 237.154 28.4934C237.87 25.7727 238.586 23.4458 239.301 21.5127C240.017 19.7943 241.986 18.8635 245.208 18.7203C248.287 18.5771 250.077 19.2573 250.578 20.7609C250.721 21.1905 250.721 21.6559 250.578 22.157C248.001 28.8156 246.64 36.1544 246.497 44.1734C246.497 44.9609 246.175 45.6411 245.531 46.2139C245.459 46.2855 245.352 46.3929 245.208 46.5361C244.063 47.3953 242.523 47.8965 240.59 48.0397C238.729 48.1113 237.297 47.7891 236.294 47.0731C235.578 46.6435 235.185 46.0707 235.113 45.3547C234.469 43.6364 233.645 41.8464 232.643 39.9849C231.712 38.1234 230.567 36.1544 229.206 34.0781C227.917 31.9301 226.45 30.176 224.803 28.8156C223.228 27.3837 221.688 26.6319 220.185 26.5603C218.825 26.5603 217.786 27.0257 217.07 27.9565C216.354 28.8872 216.032 29.997 216.104 31.2858C216.175 32.5029 216.354 33.7201 216.641 34.9373C217.357 37.4432 218.825 39.6627 221.044 41.5959C223.264 43.529 225.519 45.0325 227.81 46.1065C230.101 47.1089 232.786 48.2902 235.865 49.6506C239.015 51.011 241.414 52.2639 243.06 53.4095ZM329.47 14.8541C328.611 39.9849 329.363 70.8436 331.726 107.43C331.869 108.862 330.974 109.936 329.041 110.652C327.179 111.368 325.246 111.511 323.241 111.082C321.308 110.724 320.306 109.864 320.234 108.504C319.303 94.614 318.587 81.2253 318.086 68.3376C316.583 73.5643 314.9 79.1847 313.039 85.1989C312.681 86.4161 311.642 87.3111 309.924 87.8838C308.206 88.385 306.487 88.4208 304.769 87.9912C303.051 87.4901 301.977 86.6309 301.547 85.4137C299.829 79.9007 298.254 74.6025 296.822 69.519C296.32 81.6906 295.461 94.3277 294.244 107.43C294.101 108.862 293.027 109.936 291.022 110.652C289.089 111.368 287.156 111.511 285.223 111.082C283.361 110.652 282.502 109.793 282.645 108.504C285.796 73.7791 286.476 42.8846 284.686 15.8206C284.543 14.4603 285.402 13.4221 287.263 12.7061C289.125 11.9185 291.022 11.7396 292.955 12.1691C294.96 12.5987 296.07 13.4937 296.285 14.8541C298.289 29.5316 302.013 46.3571 307.454 65.3305C312.752 46.6435 316.225 30.1402 317.871 15.8206C318.015 14.4603 319.053 13.4221 320.986 12.7061C322.919 11.9901 324.816 11.847 326.678 12.2765C328.54 12.6345 329.47 13.4937 329.47 14.8541ZM366.446 42.7772C364.226 63.9702 366.231 80.1871 372.46 91.4279C373.391 93.0747 372.567 94.3635 369.99 95.2942C367.126 96.3682 364.692 96.3682 362.687 95.2942C362.114 94.9362 361.72 94.5424 361.506 94.1129C359.429 90.3898 357.782 86.2013 356.565 81.5474C351.195 92.4303 344.25 97.2632 335.73 96.046C334.298 96.046 333.081 95.7954 332.079 95.2942C331.148 94.8646 330.683 94.1845 330.683 93.2537C330.253 82.7288 331.041 71.8101 333.045 60.4977C335.122 49.1136 338.021 36.584 341.745 22.9088C342.246 21.1905 344.036 20.2239 347.114 20.0091C350.265 19.7943 352.234 20.4387 353.021 21.9422C353.236 22.4434 353.272 23.0162 353.129 23.6606C349.835 35.4026 347.222 46.1781 345.289 55.987C343.427 65.7959 342.389 75.3184 342.174 84.5546C342.604 84.0534 342.819 83.8028 342.819 83.8028C346.327 78.5045 348.94 72.4545 350.658 65.6527C352.448 58.8509 353.916 50.9394 355.062 41.918C355.348 39.5553 355.635 37.3 355.921 35.152C356.136 33.3621 357.639 32.1807 360.432 31.608C363.296 31.0352 365.372 31.2858 366.661 32.3597C367.305 32.8609 367.591 33.4695 367.52 34.1855C367.448 34.5435 367.269 35.7248 366.983 37.7296C366.768 39.7343 366.589 41.4169 366.446 42.7772ZM352.055 14.4245C349.191 15.3552 347.114 15.1405 345.826 13.7801C344.608 12.4197 344.071 10.773 344.215 8.83984C344.358 6.9067 345.038 5.29575 346.255 4.00699C347.329 2.71823 348.367 1.78746 349.37 1.21467C350.444 0.570291 351.768 0.319699 353.343 0.462897C354.632 0.606091 355.599 1.21467 356.243 2.28864C356.959 3.29101 357.281 4.32918 357.21 5.40315C357.138 6.47711 357.066 7.40788 356.995 8.19546C356.207 11.5606 354.561 13.6369 352.055 14.4245ZM371.386 0.462897C372.675 0.606091 373.641 1.21467 374.286 2.28864C374.93 3.29101 375.217 4.32918 375.145 5.40315C375.145 6.47711 375.073 7.40788 374.93 8.19546C374.143 11.5606 372.496 13.6369 369.99 14.4245C367.126 15.3552 365.05 15.1405 363.761 13.7801C362.615 12.4197 362.114 10.773 362.257 8.83984C362.401 6.9067 363.045 5.29575 364.19 4.00699C365.264 2.71823 366.303 1.78746 367.305 1.21467C368.379 0.570291 369.739 0.319699 371.386 0.462897ZM421.894 17.539C421.751 50.1876 420.677 81.44 418.673 111.296C418.887 112.37 418.315 113.265 416.954 113.981C415.594 114.697 414.019 115.055 412.229 115.055C410.725 115.055 409.472 114.805 408.47 114.303C407.467 113.874 407.002 113.194 407.074 112.263C403.136 92.6451 396.513 72.0249 387.205 50.4024C387.492 64.722 386.955 77.9318 385.594 90.0318C385.451 91.4637 384.377 92.5377 382.372 93.2537C380.368 93.8981 378.435 94.0055 376.573 93.5759C374.711 93.1463 373.852 92.3229 373.995 91.1058C376.287 71.2732 376.287 48.1829 373.995 21.8348C373.995 21.8348 373.995 21.6917 373.995 21.4053C373.995 21.4053 373.995 21.3695 373.995 21.2979C374.067 21.2263 374.103 21.1905 374.103 21.1905C374.318 20.0449 375.284 19.1857 377.003 18.6129C378.721 17.9686 380.439 17.8254 382.158 18.1834C383.948 18.4698 385.057 19.1857 385.487 20.3313C395.224 39.4479 403.064 57.8844 409.007 75.6406C409.794 56.3808 410.224 37.3358 410.296 18.5055C410.296 17.0736 411.262 15.9996 413.195 15.2836C415.128 14.5677 417.062 14.4245 418.995 14.8541C420.928 15.2836 421.894 16.1786 421.894 17.539ZM476.298 52.0133C476.8 54.8772 476.907 57.956 476.621 61.2495C476.406 64.4714 475.976 67.6575 475.332 70.8078C474.687 73.9581 473.614 77.001 472.11 79.9365C470.606 82.872 468.888 85.4853 466.955 87.7765C465.022 90.0676 462.623 91.9649 459.759 93.4685C456.967 94.972 453.888 95.867 450.523 96.1534C446.299 96.5114 442.361 95.7954 438.71 94.0055C435.13 92.2155 432.123 89.7454 429.688 86.5951C427.326 83.3732 425.392 79.8649 423.889 76.0702C422.385 72.2755 421.419 68.4092 420.989 64.4714C420.13 56.7388 420.882 48.8988 423.244 40.9515C425.679 32.9325 429.652 26.7393 435.165 22.3718C438.745 19.6511 442.504 18.2192 446.442 18.076C450.452 17.9328 454.031 19.0067 457.182 21.2979C457.253 21.1547 457.397 20.8683 457.611 20.4387C457.826 20.0091 458.005 19.6869 458.148 19.4721C459.079 17.7538 461.299 16.9304 464.807 17.002C467.814 17.0736 469.461 17.7538 469.747 19.0425C469.819 19.4005 469.711 19.7943 469.425 20.2239C459.903 37.4074 454.354 52.8367 452.779 66.5119C452.635 67.9439 451.561 69.0178 449.557 69.7338C447.552 70.3782 445.619 70.4856 443.757 70.056C441.896 69.6264 441.036 68.7672 441.18 67.4785C442.54 55.9512 446.299 43.6722 452.456 30.6414C451.597 29.281 450.953 28.3503 450.523 27.8491C450.165 27.2763 449.592 26.6677 448.805 26.0233C448.089 25.3789 447.337 25.0925 446.55 25.1642C445.762 25.2357 444.831 25.5937 443.757 26.2381C441.896 27.3121 439.748 30.4266 437.313 35.5816C433.304 43.887 431.693 52.7651 432.481 62.216C432.624 64.006 432.946 66.1181 433.447 68.5524C434.02 70.9152 434.843 73.4569 435.917 76.1776C437.063 78.8983 438.352 81.3684 439.784 83.588C441.215 85.7359 442.934 87.3827 444.939 88.5282C447.015 89.6738 449.199 89.9602 451.49 89.3874C453.924 88.6714 456.072 87.2753 457.934 85.1989C459.795 83.051 461.191 80.6167 462.122 77.896C463.053 75.1752 463.805 72.2397 464.377 69.0894C464.95 65.9391 465.201 63.0036 465.129 60.2829C465.058 57.5622 464.95 55.1278 464.807 52.9799C464.592 51.6195 465.416 50.5814 467.277 49.8654C469.139 49.0778 471.072 48.8988 473.077 49.3284C475.081 49.6864 476.155 50.5814 476.298 52.0133ZM498.502 23.0162C498.573 21.5843 499.576 20.5103 501.509 19.7943C503.514 19.0783 505.447 18.9351 507.308 19.3647C509.242 19.7943 510.172 20.6535 510.101 21.9422C508.955 42.8488 507.881 71.7027 506.879 108.504C506.879 109.936 505.876 111.01 503.872 111.726C501.939 112.442 500.005 112.585 498.072 112.156C496.211 111.726 495.28 110.867 495.28 109.578C495.781 92.0365 496.247 77.538 496.676 66.0823C494.313 66.7267 491.951 67.2637 489.588 67.6933C489.087 73.9223 488.299 81.8696 487.225 91.5353C487.01 92.9673 485.901 94.0413 483.896 94.7572C481.963 95.4016 480.065 95.509 478.204 95.0794C476.342 94.6498 475.483 93.8265 475.626 92.6093C476.7 83.0868 477.488 75.2826 477.989 69.1968C476.772 68.982 476.02 67.9797 475.734 66.1897C475.376 64.3998 475.519 62.6456 476.163 60.9273C476.808 59.1373 477.703 58.0992 478.848 57.8128C479.278 49.4358 479.349 41.739 479.063 34.7225C478.991 33.2905 479.922 32.2165 481.855 31.5006C483.789 30.7846 485.722 30.6414 487.655 31.071C489.588 31.429 490.59 32.2881 490.662 33.6485C490.948 40.5219 490.877 48.0039 490.447 56.0944C492.738 55.5932 494.958 55.0562 497.106 54.4835C497.607 42.1686 498.072 31.6796 498.502 23.0162Z" fill="#D3A4EA"/>
</svg>