<svg xmlns="http://www.w3.org/2000/svg" viewBox="1200.55 744.67 2094.78 450.93" xmlns:v="https://vecta.io/nano"><g fill="#a933e4"><path d="M1776 804l6.375 6.25 1.652 1.68L1788 816l2.234-.898L1793 814l2.078-.852c5.454-1.942 10.679-2.521 16.422-2.648l2.083-.092c11.255-.008 19.706 7.578 27.301 15.069 10.767 11.492 16.725 26.28 23.169 40.452l4.373 9.332 7.932 17.142 4.301 9.353a1481.37 1481.37 0 0 1 20.904 47.369l1.005 2.391L1915 982l.938-30.687.07-2.355 1.673-84.191.269-17.728.052-10.64.072-8.792-.003-4.169c-.11-12.051-.11-12.051 4.321-17.243 2.654-2.577 5.132-4.43 8.672-5.633l2.594-.887c8.467-2.441 17.972-2.773 26.344.324 5.703 3.252 10.079 7.746 14.688 12.375l2.299 2.25c3.892 3.888 6.968 7.24 9.014 12.375l2.625-1.875c6.299-3.966 11.863-4.513 19.125-4.562l2.555-.1c9.045-.076 15.619 3.294 22.102 9.49l4.094 4.297 4.156 4.328 1.807 1.919c1.483 1.603 1.483 1.603 3.537 2.503l.625-2.062c5.017-10.719 16.058-17.23 26.477-21.93 19.424-6.754 40.499-3.944 58.678 4.739 9.608 4.799 17.451 11.203 25.225 18.566 1.815 1.903 1.815 1.903 3.996 1.688l1.172-3.727 1.578-4.898.766-2.449c2.446-7.521 5.158-13.132 12.484-16.926 10.859-3.704 22.338-4.972 33 0 3.012 2.014 5.452 4.434 8 7l3.316 3.207 3.559 3.48 1.734 1.693c5.592 5.584 5.592 5.584 6.391 8.62-.313 5.778-1.758 10.611-3.75 16-6.212 17.72-9.494 36.731-10.668 55.445l-.232 3.514-.39 6.944c-.402 6.46-1.028 10.872-4.96 16.096-6.041 5.309-14.355 6.492-22 8l2.017 1.591c7.092 5.685 13.635 11.71 20.045 18.159l1.454 1.461c21.706 21.862 37.906 48.524 38.796 80.164-.402 20.805-8.621 38.206-23.312 52.625-23.079 20.492-55.24 26.342-85.168 25.168-15.769-.938-31.016-5.098-45.207-11.981l-1.872-.893c-10.495-5.356-18.859-14.002-27.122-22.237l-5.087-4.975c-9.315-9.176-16.575-18.881-21.545-31.082l.092 2.848.851 29.964.169 6.006.201 9.494.09 2.756c.051 5.5-.718 8.574-4.402 12.931-7.748 6.614-17.556 7.321-27.348 7.496-10.462-1.421-16.525-6.507-23.652-13.996l-2.559-2.59c-6.673-6.844-6.673-6.844-8.441-10.91-.866 3.849-1.238 7.575-1.465 11.512l-.233 3.937-.24 4.239-.258 4.392-.67 11.565-1.071 18.421-.367 6.375-.469 7.847-.421 7.439-.209 3.504-.168 3.083c-.715 4.471-2.827 7.072-6.43 9.687-9.722 5.553-20.752 6.301-31.699 4.574-6.011-1.71-9.937-5.241-14.301-9.574l-3.098-3.02c-10.811-10.627-10.811-10.627-12.242-17.98l-.764-3.808-.408-2.058c-10.921-54.71-26.978-109.244-47.488-161.134l-.12 3.537c-.816 23.465-1.969 46.872-3.88 70.276l-.253 3.17-.747 8.975-.215 2.64c-1.54 17.392-1.54 17.392-7.656 23.712-8.205 6.519-19.028 7.437-29.129 6.691-7.305-1.28-11.84-4.869-17-10l-2.5-2.457-6.5-6.543c-.768 4.217-1.217 8.347-1.465 12.625l-.233 3.936-.24 4.224-.258 4.387-.67 11.54-1.071 18.391-.367 6.362-.469 7.828-.421 7.43-.209 3.504-.168 3.084c-.715 4.471-2.826 7.073-6.43 9.688-9.722 5.553-20.752 6.301-31.699 4.574-6.011-1.71-9.937-5.241-14.301-9.574l-3.098-3.02c-10.811-10.627-10.811-10.627-12.242-17.98l-.764-3.808-.408-2.058c-10.921-54.71-26.978-109.244-47.488-161.134l-.12 3.537c-.816 23.465-1.969 46.872-3.88 70.276l-.253 3.17-.747 8.975-.215 2.64c-1.54 17.392-1.54 17.392-7.656 23.712-8.205 6.519-19.028 7.437-29.129 6.691-10.633-1.863-17.118-9.976-24.32-17.355-2.579-2.664-2.579-2.664-5.68-4.645l-.738 2.23c-4.471 9.815-16.667 15.787-26.262 19.77-31.54 11.601-72.601 14.784-104 1-13.372-6.905-23.511-17.309-34.125-27.812l-2.84-2.752c-6.393-6.335-11.337-12.77-16.035-20.436l-1.285 3.113c-9.951 23.7-23.955 39.448-47.715 49.887-28 10.695-58.723 6.869-86-4l-6.986-3.446c-2.051-.774-2.051-.774-4.14.221-2 1.235-2 1.235-3.999 3.162-9.025 6.474-20.94 6.14-31.551 4.699-6.843-1.787-11.432-6.782-16.324-11.637l-2.527-2.414c-9.064-8.785-9.064-8.785-9.918-14.637.767-6.798 3.42-13.019 5.777-19.408l1.113-3.146 1.047-2.848c.603-3.028.186-4.018-1.493-6.546l-3.125-4.312c-2.73-4.082-3.818-6.691-2.875-11.687 2.679-5.693 6.396-7.756 12-10l3-1c.973-2.611.973-2.611 1.563-5.809l.75-3.589c.994-5.21 1.909-10.417 2.688-15.665l.511-3.397c1.001-7.02 1.746-14.021 2.305-21.087l.194-2.455.862-12.04.318-4.447.256-3.954c.811-5.219 2.648-9.41 6.865-12.682 5.552-3.958 12.15-5.314 18.688-6.875l-2.422-1.473c-4.716-3.16-8.741-7.046-12.828-10.965l-2.469-2.217c-6.517-6.296-7.735-11.467-8.281-20.346l-.53-6.06-.674-8.766c-.978-13.222-2.289-26.268-4.525-39.347-3.13-18.859-3.13-18.859.917-24.765 6.067-5.81 14.771-8.313 23-8.625 19.62.852 38.771 8.268 55.813 17.563l1.906 1.031c19.697 10.797 35.769 26.628 51.594 42.344l1.67 1.656c13.606 13.662 25.206 29.286 34.83 45.969l1.253 2.161c7.066 12.356 12.172 25.172 16.853 38.597.894 2.466.894 2.466 2.895 5.242l1.18-2.387c7.615-14.827 17.885-26.142 29.82-37.613-1.514-3.599-3.62-5.801-6.43-8.484l-2.66-2.586-5.547-5.312c-7.046-6.871-12.436-13.41-12.613-23.68.191-14.567 8.012-26.225 17.25-36.937l2.16-2.531c13.691-15.647 31.444-29.964 52.84-32.469 15.384-.95 27.563 1.304 41.164 8.574 2.605 1.576 2.605 1.576 4.836 1.426l.516-2.449c2.548-11.236 2.548-11.236 6.484-14.551 10.022-5.399 21.677-7.036 32.813-4.062 5.711 2.27 9.901 6.798 14.188 11.063l2.188 2.145L1593 827l1.063-3.125c2.301-5.261 5.923-8.371 11.02-10.914 5.355-1.952 10.77-2.313 16.418-2.461l2.083-.093c11.256-.003 19.704 7.577 27.3 15.07 10.767 11.492 16.725 26.28 23.169 40.452l4.373 9.332 7.932 17.142 4.301 9.353a1481.37 1481.37 0 0 1 20.904 47.369l1.005 2.391L1725 982l.938-30.687.07-2.355 1.673-84.191.269-17.728.052-10.64.072-8.792-.003-4.169c-.11-12.051-.11-12.051 4.321-17.243 2.654-2.577 5.132-4.43 8.672-5.633l2.594-.887c11.21-3.232 22.812-2.72 32.344 4.324zm-180 62c-.779 4.279-1.241 8.472-1.5 12.813l-.127 2.091c-.303 5.456-.443 10.911-.552 16.374l-.1 4.464-.152 8.946-.092 4.204-.06 3.782c-.447 3.568-1.283 5.465-3.417 8.327-8.976 6.374-20.608 8.241-31.352 6.652-4.619-.919-8.515-2.321-12.648-4.652l-.262 2.047-.426 2.703-.387 2.672c-1.253 3.488-2.83 4.577-5.926 6.578-2.282.99-4.599 1.901-6.937 2.75-27.181 10.379-49.408 31.748-61.501 58.122-2.448 5.576-4.363 11.146-5.561 17.128l-.687 3.313c-1.35 15.927.337 31.228 9.688 44.688 4.958 5.525 13.792 7.913 21 9 12.818.675 23.83.611 34.094-8.062 2.976-3.025 4.544-5.942 5.906-9.937l.863-2.508c6.718-22.86 2.128-48.692-.985-71.778-1.811-14.235-1.811-14.235 1.685-20.527 7.189-6.452 14.897-7.398 24.188-7.5l2.633-.088c8.823-.086 13.849 2.575 20.266 8.518l4.727 4.758 2.441 2.395c7.13 7.178 7.13 7.178 8.184 12.73h1c.198-27.891.37-55.757-.937-83.625l-.132-2.815L1597 866h-1zm511 2c-4.361 5.346-3.57 12.465-3 19 .677 3.497 1.719 6.683 3 10l.563 2.078c3.456 9.975 17.743 14.656 26.506 18.918 6.091 2.921 12.211 5.75 18.443 8.359l2.464 1.032c2.066.878 2.066.878 4.025-.387l-2.625-2.562c-3.353-3.92-4.919-8.041-6.708-12.836-9.443-25.126-9.443-25.126-26.741-44.375-6.227-2.611-9.959-2.717-15.926.773zm-599 0c-10.532 6.502-22.809 17.839-26.375 30.063L1481 901c6.684 1.478 13.441.99 20.238.785 8.411-.122 16.301 1.047 23.387 5.902l1.977 1.324L1528 910c-2.049-14.346-8.69-29.149-17-41l-3-1zm-219 12l.438 8.688.135 2.64c.251 4.776.566 9.534.99 14.297a276.57 276.57 0 0 1 .75 15.313l.09 2.153c.058 5.14-1.131 7.986-4.403 11.91-5.754 4.633-13.97 5.586-21 7l1.781 1.316c5.977 4.535 11.346 9.712 16.656 14.996l1.613 1.599c5.633 5.656 5.201 9.987 5.198 17.634-.318 27.924-4.366 57.452-11.647 84.435-.599 3.005-.674 4.227.398 7.02a71.32 71.32 0 0 0 7.563 4.125l2.096 1.051c9.67 4.704 19.881 6.645 30.494 4.055 11.108-4.046 18.599-11.978 23.572-22.608 9.697-22.462 9.036-52.055 3.276-75.622l-.602-2.489c-7.244-29.031-20.09-56.804-38.398-80.511l-1.266-1.678c-4.507-5.961-9.151-11.58-15.734-15.322h-2zm755 14c-.995 3.354-1.181 6.491-1.281 9.98l-.113 3.529-.105 3.678c-.689 23.65-.689 23.65-5.5 28.813-3.232 1.918-6.551 3.513-10 5 1.566 3.844 4.021 6.16 7 9 5.39 5.14 7.192 8.035 7.379 15.399l.035 2.523.059 2.606.152 8.222.117 5.582L2042 1002c1.987-2.882 1.987-2.882 3.41-5.602 8.884-16.257 21.922-24.848 39.412-30.274 9.417-2.416 18.352-2.474 27.991-2.312l4.736.041L2129 964c-2.165-2.165-3.889-2.989-6.664-4.25l-2.878-1.329-3.083-1.421c-7.238-3.405-14.336-6.885-21.125-11.125l-1.76-1.086c-10.201-6.563-19.058-14.943-27.615-23.477l-1.453-1.444c-7.397-7.384-13.318-14.75-18.422-23.869l-2-2zm-60 36v11l7-2c.345-3.008.345-3.008-1.531-4.605l-1.969-1.582L1984 930zm185 56l4 4-2-4h-2zm7 8l-.562 3.125c-1.402 4.786-4.302 7.259-8.437 9.875-7.515 3.625-14.047 5.18-22.375 5.188l-2.25.037c-4.57.012-8.035-.667-12.375-2.225-4.843-.517-9.388-.652-13.937 1.188-6.216 5.463-8.126 10.752-9.062 18.813-.218 14.452 2.723 31.424 12 43 2.849 2.088 5.603 3.101 9 4l2.344.668c12.173 2.944 24.948 2.229 36.004-3.988 10.565-7.451 16.627-17.689 19.258-30.241 2.824-17.44-.684-33.823-8.605-49.438h-1zm736.914-191.734c2.15 1.811 4.105 3.737 6.086 5.734l3.574 3.5 7.547 7.488 1.607 1.611c2.752 3.032 2.424 5.712 2.477 9.687l.03 1.952.081 6.396.063 4.431.153 11.669.161 11.904L2935 890l.681-1.545 3.108-7.033 1.071-2.43c12.817-28.937 32.509-53.591 62.691-65.378 20.423-6.361 39.547-2.254 58.449 6.387l1.836-2.863c3.756-5.444 8.75-7.882 14.992-9.594 4.072-.697 8.045-.91 12.172-.98l2.228-.067c8.672.034 15.341 2.826 21.651 8.763l4.684 4.867 2.439 2.496c7.346 7.576 7.346 7.576 7.248 14.201-.421 3.67-2.001 6.536-3.766 9.737l-1.112 2.113-2.379 4.458-4.992 9.446-3.724 7.08c-20.041 38.127-37.17 80.519-43.508 123.294l-.31 2.046-1.372 9.907c-1.114 7.778-2.778 13.105-9.087 18.098-9.594 5.465-20.656 6.435-31.477 4.574-5.532-1.796-9.431-5.58-13.523-9.574l-1.489-1.432-4.886-4.756-1.589-1.549c-3.567-3.56-5.97-5.974-6.118-11.122.768-9.499 2.235-18.737 4.082-28.08l.46-2.351c6.347-32.175 17.063-62.854 30.06-92.927 2.258-5.224 4.4-10.488 6.48-15.785l-2.179.813-5.145 1.921c-16.018 7.576-25.043 32.63-30.731 48.176A328.53 328.53 0 0 0 2998 923l-.627 2.033c-13.93 46.06-8.235 94.904 13.635 137.452 3.62 6.636 6.439 11.211 13.992 13.516 9.373 2.224 18.74-.544 26.855-5.516 19.906-13.778 27.594-37.722 32.145-60.484 2.831-15.915 3.322-31.502 3-47.625l-.187-12.414-.075-2.819c-.056-4.906.046-8.168 3.263-12.142 7.067-7.067 14.35-8.259 24.063-8.375l2.29-.042c11.783.099 17.527 5.481 25.522 13.605l2.875 2.791c5.104 5.122 8.444 8.72 9.25 16.021h1c.731-13.143 1.076-26.243.957-39.406l-.031-3.982-.173-16.265-.084-8.17-.096-7.586c-.022-7.033.613-11.624 4.428-17.591 1.93-1.805 1.93-1.805 3.875-2.875l1.93-1.117c6.139-2.818 11.404-3.373 18.07-3.383l2.605-.074c8.927-.041 13.937 2.773 20.387 8.82l5.008 5.066 2.586 2.564c6.61 6.678 8.809 10.841 8.953 20.361l.059 2.4.152 7.549.117 5.135L3224 923l.145-3.166 1.368-29.615.703-15.224.681-14.706.257-5.596.366-7.869.102-2.31c.183-3.794.439-7.576.799-11.358l.207-2.174c.822-4.369 3.535-7.168 6.623-10.17 9.394-6.191 20.361-6.974 31.316-5.457 6.912 1.842 11.477 6.726 16.434 11.645l2.527 2.414c9.157 8.875 9.157 8.875 9.799 14.389l-.079 3.18-.083 3.769L3295 855l-.086 2.291-.718 15.969-.61 12.7-.495 10.362-5.279 130.177-.125 3.767-3.092 102.27-.505 17.48-.157 5.833-.234 7.572-.033 2.118c-.26 5.966-2.722 9.571-6.916 13.648-9.394 6.191-20.361 6.974-31.316 5.457-6.912-1.842-11.477-6.726-16.434-11.645l-2.527-2.414c-9.598-9.302-9.598-9.302-9.816-16.389l.066-6.291.033-3.623 1.577-61.326.412-13.916.404-13.522.19-6.401c.624-21.177.624-21.177 1.661-31.118l-2 1c-.511 2.337-.511 2.337-.73 5.209l-.334 3.386-.338 3.714-.566 5.823-.776 8.235L3213 1079l-.378 3.809-1.126 10.726-.322 3.211c-.703 6.321-1.451 12.272-5.901 17.145-7.966 5.704-14.624 7.36-24.336 7.484l-2.291.042c-9.804-.083-15.113-3.276-22.006-10.191l-2.516-2.602-2.586-2.578c-7.351-7.467-7.351-7.467-8.539-12.047.08-2.795.273-5.413.609-8.176l.262-2.408.879-7.728.869-7.945.578-5.275c.801-7.293 1.47-14.59 2.053-21.905l.241-3.007.509-6.555-.544 1.838c-6.31 20.946-14.547 41.76-29.456 58.162l-1.569 1.744c-16.928 18.523-39.172 30.906-64.609 32.383-28.615.983-50.736-8.342-71.704-27.802l-8.68-8.575-1.527-1.534c-16.982-17.098-29.795-36.203-38.011-58.956l-1.081-2.989L2931 1023l-.17 3.505-1.631 33.463-.837 17.184-3.968 74.071-.191 3.147-.544 8.818-.157 2.576L2923 1173l-.176 2.695-.209 2.676-.175 2.408c-.813 4.108-3.21 6.696-6.44 9.221-9.912 5.714-22.743 7.013-33.812 4.063-5.726-2.295-9.879-6.787-14.187-11.062l-2.785-2.672c-6.262-6.09-9.032-9.709-10.773-18.336l-.902-4.364-.479-2.339c-9.906-48.033-24.536-94.501-40.435-140.836l-.974-2.843a518.8 518.8 0 0 0-5.651-15.611l-.056 1.68c-1.592 47.577-1.592 47.577-3.444 70.507l-.181 2.273-1.119 12.504-.396 4.196-.647 6.453-.381 3.794c-1.091 5.055-3.015 9.07-7.002 12.518-9.724 5.622-20.017 7.633-31.187 5.645-6.19-1.723-10.096-5.111-14.586-9.57l-3.355-3.277c-10.56-10.396-10.56-10.396-10.791-14.018-.006-6.859.408-13.592 1.098-20.415 1.316-13.057 2.414-26.12 3.134-39.223l.13-2.352c.989-18.434 1.091-36.858 1.045-55.314l.007-13.761c.072-33.899-1.185-67.72-3.893-101.515-2.482-31.307-2.482-31.307 1.625-37.125 5.934-6.12 14.123-8.18 22.403-8.468l2.222-.032 2.097-.056c11.013.13 18.844 6.568 26.408 13.934 13.28 14.242 20.605 33.478 28.645 50.959l3.446 7.434 10.274 22.602 5.712 12.626c9.636 21.046 18.219 42.505 26.793 64 1.508-28.258 1.966-56.555 2.346-84.847l.152-10.783.053-3.618.106-7.275.242-18.596.256-18.342.082-6.91.141-9.561.008-2.838c.159-6.599 1.516-9.98 6.113-14.805 10.589-7.859 28.135-9.618 39.414-2.16zM3150 1022l1 3z"/><path d="M2653 748c3.916 3.32 7.455 6.981 11 10.688l2.926 2.994L2674 769l4.289-5.859c6.435-9.107 13.643-15.594 24.711-18.141 6.117-.86 11.548-.04 17 3 3.866 3.145 7.328 6.63 10.813 10.188l2.85 2.791c6.857 6.906 10.64 12.275 10.806 22.211l-.031 2.123-.023 2.244c-.296 9.918-3.825 18.95-10.415 26.443-8.158 6.937-15.921 8.201-26.402 8.461-9.032-1.157-14.324-6.658-20.41-13.023l-2.271-2.326-4.142-4.274L2676 798l-.664 1.688c-3.776 9.086-8.277 15.96-17.336 20.313-3.912 1.423-7.608 2.111-11.723 2.547l-2.434.261L2642 823l1.728 1.712 7.709 7.663 2.721 2.695 2.588 2.578 2.396 2.38c3.375 3.582 3.06 6.422 3.026 11.151-.261 4.38-1.183 8.556-2.168 12.82l1.633-.641c5.766-2.113 10.81-2.851 16.93-2.797l2.42-.061c9.891.008 15.518 4.462 22.426 11.213l2.529 2.535 2.611 2.488 2.479 2.465 2.242 2.208c3.966 5.933 2.709 12.98 1.805 19.694l-.663 5.366-.359 2.825c-1.968 15.605-3.565 31.181-4.365 46.892l-.118 2.228c-2.437 47.163.543 97.926 23.43 140.21 2.286 4.462 3.159 8.427 2 13.375-3.976 6.586-9.958 9.348-17.25 11.25-8.616 1.649-17.822 1.909-25.75-2.25-2.962-2.055-5.436-4.475-8-7l-3.145-2.891c-7.49-7.014-12.629-13.719-16.855-23.109l-1.723 2.125-4.855 5.93-4.156 5.141c-10.46 12.79-25.889 21.663-42.266 23.805-11.422.829-26.763 1.701-36-6l-5.715-5.66-1.543-1.555L2564 1108l.114 1.838 1.168 19.03.437 7.091.625 10.225.199 3.173c1.096 18.252 1.096 18.252-3.543 23.643-6.59 6.233-14.363 8.121-23.187 8.25l-3.168.078c-11.234-1.011-16.902-5.528-24.645-13.578l-2.848-2.816c-7.928-8.064-9.367-14.466-10.004-25.484l-.193-3.069-.388-6.427-.599-9.65c-.75-12.117-1.16-24.163-.969-36.303h-2l-.687 1.75c-3.083 5.286-7.767 7.181-13.441 8.707-9.526 1.801-18.222 1.037-26.871-3.457-3.729-2.954-6.946-6.275-10.187-9.75l-2.596-2.691L2435 1072l-3.219 37.762-.317 4.166-1.287 17.107-.804 10.638-.435 5.887c-1.435 18.559-1.435 18.559-4.438 24.315-8.587 7.299-19.44 9.827-30.5 9.125-10.452-1.429-16.053-6.74-23.25-14.062l-2.18-2.182c-7.473-7.536-7.473-7.536-7.8-11.643a325.9 325.9 0 0 1 1.218-24.433l.637-7.666.34-4.018 1.73-21.231.173-2.166c1.679-21.118 2.957-42.252 3.978-63.412l.471-9.502c2.973-60.574 3.272-121.713.219-182.288l-.126-2.519-.602-11.119-.561-10.222-.208-3.212c-.276-5.595-.337-9.532 2.962-14.327 6.765-6.765 14.877-8.926 24.313-9.187 13.249.245 20.415 6.558 29.5 15.625l1.982 1.908 1.912 1.9 1.702 1.677c4.128 5.389 5.19 11.287 6.098 17.838l.786 5.259.408 2.792c5.824 39.563 14.752 78.379 24.298 117.187 2.304-5.806 4-11.542 5.418-17.621l.661-2.788 2.108-9.028.733-3.152c7.091-30.553 13.019-61.176 17.425-92.231l3.099-20.067.645-3.846c1.201-4.313 2.994-6.506 6.648-9.005L2501 793l2.043-1.293c5.755-2.984 11.727-3.145 18.082-3.27l2.567-.082c10.04.062 15.53 5.499 22.36 12.336l2.385 2.434 2.467 2.457c5.183 5.23 7.225 7.817 7.209 15.352v3.76l-.016 4.136-.004 4.353-.018 9.399-.024 14.975-.056 34.622-.048 31.487-.022 12.389c-.062 22.334.304 44.623 1.075 66.944l.425-2.711.56-3.567.554-3.531c7.044-44.681 16.508-88.663 27.898-132.442l.761-2.931c8.177-31.392 8.177-31.392 15.486-35.845 5.245-2.827 9.913-3.762 15.815-4.224l2.492-.234L2629 817l-1.681-1.585-7.569-7.29-2.645-2.492c-6.435-6.288-10.16-11.911-11.637-20.848.141-12.252 4.243-21.092 12.531-29.914 9.453-9.166 22.858-13.787 35-6.871zm-11 180l1 2zm-1 4v5h1v-5h-1zm-1 5l-3.418 16.815-1.164 5.718-1.668 8.229-.53 2.573c-.789 3.945-1.45 7.617-1.22 11.665 2.19-3.708 2.906-7.665 3.727-11.836l.462-2.294.953-4.796 1.468-7.301.93-4.672.445-2.188c.784-4.03 1.166-7.809 1.016-11.913h-1zm-9 45l1 4z"/></g><path d="M2407.875 796.625c5.499 4.179 5.648 10.761 6.641 17.242l.843 5.319.439 2.808 2.363 14.713.482 2.969c6.216 38.244 15.459 75.725 25.233 113.199l.657 2.526c3.206 12.288 6.754 24.455 10.468 36.599h3c4.291-13.116 7.858-26.392 11.313-39.75l.864-3.335c9.765-37.782 18.171-75.926 23.484-114.614l.398-2.866 1.777-13.567.646-4.861.242-2.2c.755-5.446 2.538-7.996 6.277-11.808 7.157-4.788 15.69-4.865 24-4 2.996.805 5.751 1.751 8 4a272.44 272.44 0 0 1 .098 9.351l-.004 2.993-.018 6.492-.026 10.405-.032 14.845-.041 38.48-.001 3.817L2536 970l.089 3.448c.806 31.316 2.189 62.588 3.911 93.865l.128 2.319 3.219 52.495 1.153 20.935.132 2.259c.048 4.085-.477 5.511-3.288 8.549-6.107 3.888-11.286 4.492-18.344 4.504l-2.367.074c-5.509.028-8.355-.96-12.633-4.449-2.146-2.146-1.5-6.871-1.684-9.852l-.183-2.8-.571-8.974-.369-5.703-.77-12.049-.91-13.822-3.042-56.869-.402-9.119-.391-8.923-.184-4.187c-.335-7.572-.588-15.123-.494-22.703h-5l-.611 2.615c-2.868 11.88-6.315 23.565-9.879 35.253l-3.021 10.056-1.957 6.432-.894 3.018c-1.983 6.418-3.73 11.009-9.852 14.416-4.304 1.377-7.87 1.658-12.348 1.586l-2.209.035c-4.784-.026-8.13-.717-12.229-3.41-3.157-3.469-4.758-6.478-6.106-10.952l-1.091-3.559-1.131-3.814-1.194-3.933-2.471-8.218-3.174-10.542-3.037-10.057-.586-1.941-1.622-5.421-.932-3.117C2419 1005 2419 1005 2419 1003l-4 1-.156 2.785-6.992 112.186-.547 7.649-.801 10.525-.19 3.06c-.585 6.521-2.253 10.516-7.314 14.796-5.409 3.164-10.489 3.287-16.625 3.375l-2.208.043c-4.754-.043-8.045-.818-12.167-3.418-1.483-2.965-.882-5.423-.63-8.713l.15-2.032.32-4.2.685-9.203.561-7.442 5.664-85.16.178-3.369L2376 1013l.137-2.895c.766-16.387 1.025-32.74 1.03-49.144l.01-7.626.007-15.908.021-15.984c.075-29.326-.116-58.569-1.643-87.86l-.455-10.079-.246-5.16-.298-7.834-.141-2.377c-.057-2.946-.041-5.355 1.843-7.725 7.883-6.773 22.09-7.983 31.61-3.783zm-461.75 7.938l2.026-.031c4.752.083 10.314.934 13.849 4.468a170.1 170.1 0 0 1 .145 7.409l.01 2.376.013 7.922.013 5.622.007 18.483-.001 3.203c-.028 88.927-2.316 178.072-8.723 266.783-.418 6.003-.67 12.004-.882 18.018l-.207 5.271-.29 9.721-.167 4.261-.101 3.711c-1.153 4.542-2.978 5.6-6.817 8.218-5.362 2.095-10.388 2.336-16.062 2.313l-2.354.049c-4.86.004-8.792-.054-12.584-3.361-1.517-4.225-2.191-8.594-3-13l-1.98-8.527-1.075-4.599c-16.532-70.4-38.986-139.561-67.944-205.873l-.893-2.273c-.973-1.934-.973-1.934-3.176-2.335L1834 932l.013 2.006c.275 43.143-.155 86.044-3.951 129.056l-.24 2.822-.724 7.839-.199 2.329c-.588 5.711-2.051 9.152-6.149 13.136-5.678 3.742-11.712 4.176-18.312 4.188l-2.209.074-2.17.012-1.928.025c-3.486-.795-5.479-2.094-8.131-4.486-.346-3.017-.33-5.118.031-8.066l.216-2.401.494-5.017c.329-3.189.567-6.381.803-9.577l1.154-14.258.583-7.145.174-2.051c1.332-16.459 1.707-32.88 1.713-49.387l.01-6.52.007-13.612.021-13.714c.08-27.16-.25-54.157-2.206-81.251l-.446-6.45-1.179-15.675c-2.195-27.887-2.195-27.887 1.063-31.812 7.432-4.886 15.806-6.192 24.563-5.062 3.651.769 6.834 1.649 9.333 4.544 1.222 2.04 2.236 4.108 3.23 6.269l1.23 2.501 2.711 5.594 4.942 9.862c9.44 18.481 18.13 37.268 26.555 56.23l.922 2.071c18.51 41.588 35.086 83.948 50.078 126.929h3c.763-4.846 1.185-9.563 1.357-14.475l.08-2.19.247-7.249.181-5.268.475-14.419.3-9.078 1.832-77.312.115-8.095.464-37.738.183-14.859.064-6.954.112-9.533-.001-2.819c.088-4.197.219-6.428 2.516-10.043 5.614-5.331 11.6-6.334 19.2-6.408zm-190 0l2.026-.031c4.752.083 10.314.934 13.849 4.468a170.1 170.1 0 0 1 .145 7.409l.01 2.376.013 7.922.013 5.622.007 18.483-.001 3.203c-.028 88.927-2.316 178.072-8.723 266.783-.418 6.003-.67 12.004-.882 18.018l-.207 5.271-.29 9.721-.167 4.261-.101 3.711c-1.153 4.542-2.978 5.6-6.817 8.218-5.362 2.095-10.388 2.336-16.062 2.313l-2.354.049c-4.86.004-8.792-.054-12.584-3.361-1.517-4.225-2.191-8.594-3-13l-1.98-8.527-1.075-4.599c-16.532-70.4-38.986-139.561-67.944-205.873l-.893-2.273c-.973-1.934-.973-1.934-3.176-2.335L1644 932l.013 2.006c.275 43.143-.155 86.044-3.951 129.056l-.24 2.822-.724 7.839-.199 2.329c-.588 5.711-2.051 9.152-6.149 13.136-5.678 3.742-11.712 4.176-18.312 4.188l-2.209.074-2.17.012-1.928.025c-3.486-.795-5.479-2.094-8.131-4.486-.346-3.017-.33-5.118.031-8.066l.216-2.401.494-5.017c.329-3.189.567-6.381.803-9.577l1.154-14.258.583-7.145.174-2.051c1.332-16.459 1.707-32.88 1.713-49.387l.01-6.52.007-13.612.021-13.714c.08-27.16-.25-54.157-2.206-81.251l-.446-6.45-1.179-15.675c-2.195-27.887-2.195-27.887 1.063-31.812 7.432-4.886 15.806-6.192 24.563-5.062 3.651.769 6.834 1.649 9.333 4.544 1.222 2.04 2.236 4.108 3.23 6.269l1.23 2.501 2.711 5.594 4.942 9.862c9.44 18.481 18.13 37.268 26.555 56.23l.922 2.071c18.51 41.588 35.086 83.948 50.078 126.929h3c.763-4.846 1.185-9.563 1.357-14.475l.08-2.19.247-7.249.181-5.268.475-14.419.3-9.078 1.832-77.312.115-8.095.464-37.738.183-14.859.064-6.954.112-9.533-.001-2.819c.088-4.197.219-6.428 2.516-10.043 5.614-5.331 11.6-6.334 19.2-6.408zm1139 0l2.026-.031c5.022.087 8.481 1.154 12.849 3.468 2.627 3.94 2.265 7.284 2.224 11.854l-.002 2.742-.046 9.033-.024 6.383-.899 65.714-.197 9.847-3.961 124.232-.279 6.5-2.61 54.72-.631 12.612-1.038 19.685-.547 10.416-.635 11.426-.142 3.425c-.502 7.449-.502 7.449-2.538 10.204-6.086 5.241-12.612 5.549-20.237 5.519l-2.537.049c-4.812.004-7.981-.269-11.9-3.361-2.245-2.245-2.369-2.974-2.881-6.002l-.443-2.501-.465-2.723c-2.082-11.503-4.733-22.815-7.586-34.148l-.776-3.097c-14.309-56.842-33.245-112.279-55.536-166.466l-.905-2.199c-2.631-6.38-5.26-12.715-8.408-18.863h-3l-.025 2.364c-.471 44.588-1.01 88.968-5.654 133.356l-.546 6.47-.209 2.955-.154 2.562c-.756 4.207-3.059 6.789-6.412 9.294-5.324 3.16-11.128 3.282-17.187 3.375l-2.052.043c-4.78-.046-9.254-.912-12.76-4.418.04-2.031.163-4.06.313-6.086l.145-1.995 1.738-21.036c1.999-23.412 3.591-46.714 3.782-70.212l.084-8.73c.421-44.166-1.212-87.987-4.741-132.011l-.264-3.296-.499-6.098c-1.023-12.606-1.023-12.606.754-16.16 6.434-5.685 14.509-7.042 22.891-6.684 4.596.507 8.945 1.023 12.01 4.806 3.765 6.249 7.046 12.719 10.287 19.253l.921 1.852c6.461 12.999 12.623 26.13 18.64 39.34l3.002 6.558c21.355 46.603 40.06 94.103 56.937 142.5l4-1 1.122-35.633.521-16.56 1.181-38.044.337-10.876 1.015-53.481.036-5.462.036-5.456.018-2.729.06-13.953.081-13.841.015-5.196.048-7.169-.02-2.121c.091-4.751 1.235-7.113 4.55-10.478 5.115-3.881 10.877-4.376 17.125-4.437z" fill="#d2a3e9"/><path d="M3105 816c.986 3.138 1.143 4.635-.073 7.741l-1.689 2.993-1.874 3.388-1.013 1.789-5.226 9.483-1.067 1.949c-23.523 43.116-41.826 91.303-48.851 140.004l-.37 2.494-.586 4.505c-.759 5.408-2.414 7.953-6.251 11.654-7.683 4.117-16.956 5.613-25.43 3.352-5.025-1.806-5.025-1.806-6.57-3.352-.661-8.076.54-15.893 2-23.812l.669-3.66c6.564-34.503 17.411-69.468 33.064-101.021l1.693-3.421 1.564-3.038c1.25-3.77.896-6.208.01-10.048-3.965-7.127-10.006-15.335-18-18-8.432-.888-14.359 2.247-21.012 7.277-23.107 19.873-32.931 61.074-36.988 89.723l-.526 3.27c-.508 3.995-.67 7.932-.712 11.952l-.03 2.346c-.169 16.84-.101 33.045 4.268 49.431l.649 2.516c6.705 25.454 17.093 55.459 39.351 71.484 11.367 6.134 20.527 7.492 33.055 4.031 16.183-5.666 26.529-19.024 33.887-33.855 13.138-27.799 17.153-61.633 14.691-92.082l-.188-2.452-.44-4.666c-.3-3.656-.192-5.661 1.707-8.847 6.497-6.043 14.415-6.776 23-6.523 4.642.557 7.417 1.788 11.289 4.395 3.341 5.011 3.167 10 3.203 15.879l.021 2.304.026 7.38.002 2.54c-.016 12.56-.567 24.592-3.252 36.897l-.504 2.523c-6.362 31.761-21.368 64.34-48.705 83.346-19.168 12.534-42.808 18.047-65.417 13.943-26.283-5.844-46.768-23.562-60.961-45.836-25.921-41.981-30.148-93.444-19.102-140.852 8.286-33.379 23.8-67.793 53.688-87.125 15.613-9.398 32.298-14.046 50.531-9.762 6.45 1.99 12.682 4.592 18.469 8.074 3.007 2.014 3.007 2.014 7 1.688 1.591-1.847 1.591-1.847 2.875-4.25 3.483-5.56 7.438-8.831 13.949-10.434 8.609-1.252 16.145-.583 24.176 2.684zm-911.562 3.688l2.197-.049c5.175-.005 8.75 1.009 13.365 3.361l1 1c-.446 6.576-2.268 12.39-4.312 18.625-5.81 18.43-9.311 37.927-9.852 57.281l-.081 2.456-.062 4.627c-.153 5.807-1.619 8.144-5.693 12.011-6.824 4.032-15.221 5.369-23 4-4.259-1.127-7.11-2.594-9.508-6.382-1.42-3.041-2.662-6.111-3.867-9.243l-2.832-6.809-1.413-3.386c-5.507-12.686-13.005-24.223-21.38-35.18l-1.574-2.137c-5.849-7.458-15.239-14.82-24.793-16.207-5.401-.328-9.503.419-13.937 3.605-4.323 4.433-5.872 10.362-6.195 16.426.766 15.747 7.489 28.923 18.582 39.863 7.213 6.054 14.999 10.84 23.355 15.137l2.968 1.541c7.661 3.917 15.462 7.452 23.345 10.897 30.698 13.436 30.698 13.436 43.25 24.875l2.273 1.848c17.675 14.605 31.23 38.504 34.727 61.152.287 3.776.334 7.527.313 11.313l-.017 3.083c-.286 17.686-6.839 31.791-19.127 44.499-16.552 15.437-41.514 24.099-63.91 24.344l-2.202.024-4.604.032-4.601.062c-26.452.512-51.132-8.275-70.477-26.607-14.065-14.482-20.899-35.312-20.648-55.305 1.137-14.331 6.261-26.571 16.859-36.535 17.683-13.992 38.506-16.44 60.414-14.91 10.741 1.456 21.761 4.148 31 10-.563 2.728-.891 3.88-2.812 6-8.708 5.464-18.032 7.113-28.187 6-2.61-.654-5.117-1.455-7.664-2.316-5.47-1.601-10.381-1.388-15.586.941-6.254 3.544-9.336 8.736-11.75 15.375-4.412 17.804.76 37.269 9.914 52.699 7.216 11.418 16.636 21.041 29.988 24.863 14.94 3.116 30.563 2.899 43.91-5.25 12.887-9.435 18.799-22.88 21.188-38.312 2.333-22.08-5.324-42.921-19-60-16.231-18.806-40.494-29.022-62.622-39.18-26.536-12.214-52.501-26.863-63.816-55.445-3.785-12.555-2.766-25.817 3.438-37.375 1.779-2.912 3.721-5.463 6-8l1.586-1.828c8.965-9.68 21.02-14.779 34.113-15.52 22.989-.694 42.197 8.258 59.301 23.348a323.22 323.22 0 0 1 7.773 7.996c2.193 1.973 3.348 2.642 6.227 3.004l.699-3.008c6.302-26.521 6.302-26.521 13.301-30.992 4.831-2.134 9.249-2.335 14.438-2.312zM3270 824c2 2 2 2 2.243 4.046l-.013 2.549-.004 2.883-.04 3.136-.023 3.263c-.114 11.446-.605 22.871-1.153 34.303l-.312 6.824-.666 14.412-1.73 38.108-.173 3.846-2.819 69.13-.09 2.473-2.685 88.387-.22 8.19-.419 19.676-.164 9.71-.055 4.652-.1 6.448-.047 3.717c-.631 3.851-1.823 5.49-4.532 8.248-6.888 4.325-14.988 5.636-23 5-4.312-1.132-8.249-2.338-11-6-.306-3.091-.306-3.091-.21-6.829l.039-2.023.171-6.148.076-3.464.292-10.27.18-5.903.194-6.246.403-13.124 1.002-32.584.778-25.37.335-10.885c.68-21.573.68-21.573.741-43.155-6.915 1.179-13.774 2.56-20.625 4.063l-2.443.528c-3.775.559-3.775.559-6.932 2.409-.214 1.447-.366 2.903-.493 4.36l-.255 2.838-.268 3.123-.596 6.639-.315 3.546-5.276 52.493-.569 4.98-.823 6.866-.459 3.85c-1.351 4.718-4.038 7.114-8.131 9.67-7.707 3.246-16.42 4.467-24.488 1.73-2.203-1.094-2.203-1.094-5.328-3.094-.279-7.605.484-14.928 1.482-22.461 1.89-14.358 3.396-28.748 4.768-43.164l.268-2.779.747-7.885.227-2.357c.408-4.458.787-8.876.508-13.354-2.305-1.7-2.305-1.7-5-3-3.144-4.035-3.51-7.727-3.437-12.687l.019-2.14c.213-7.187 1.928-13.078 6.481-18.735C3158 965 3158 965 3161 964c.722-11.093 1.123-22.123 1.077-33.239l.025-11.999-.002-15.109.023-12.375-.017-4.674c-.134-12.06-.134-12.06 2.408-15.872 5.731-5.066 12.01-6.079 19.487-6.044l2.078-.049c4.726-.005 7.904.904 11.922 3.361 3.476 3.476 3.115 7.038 3.124 11.828l-.011 2.337v2.484l-.016 8.116-.004 5.633-.025 14.815-.02 15.122L3201 958c9.442-1.55 18.705-3.755 28-6l.138-3.163 1.323-29.991.679-15.407 1.604-35.066.48-10.448.554-11.444.267-6.029.201-3.597.149-3.086c.755-3.461 2.195-5.211 4.604-7.767 9.773-5.944 20.603-6.703 31-2z" fill="#d2a2e9"/><path d="M2638.852 828.105c2.179 3.594.475 8.459-.42 12.396l-2.24 8.545-1.75 6.622-.929 3.498c-9.62 36.296-18.509 72.748-24.512 109.833l-.383 2.352c-3.17 19.507-5.893 39.007-7.492 58.71l-.187 2.264c-.826 10.24-1.078 20.403-.938 30.674l4 1c31.038-48.558 41.385-104.947 48.164-161.371l.27-2.235 1.186-10.383c1.689-14.748 1.689-14.748 7.131-19.324 5.851-3.038 11.253-3.98 17.813-4l3.816-.051c4.034.405 7.667 1.41 10.621 4.363.492 6.66-.315 13.12-1.312 19.688-5.979 43.521-8.28 88.891-.687 132.313l.551 3.273c5.477 33.617 5.477 33.617 21.449 62.727.375 2.313.375 2.313 0 5-5.369 5.704-11.795 7.152-19.29 7.397l-2.272.04-2.183.067c-5.221-.022-9.282-.976-13.255-4.505-1.853-2.48-3.076-5.107-4.312-7.937l-1.116-2.425c-2.368-5.336-4.36-10.776-6.228-16.305l-.673-1.99-3.221-9.904-1.188-3.664-1.032-3.299c-.973-2.647-.973-2.647-3.371-3.335L2653 1048l-.742 2.547c-1.4 3.845-3.264 7.225-5.383 10.703l-1.202 1.988c-3.466 5.626-7.392 10.73-11.673 15.762l-2.375 3.125c-10.599 11.609-25.606 19.914-41.43 21.082-2.749.043-5.451-.05-8.195-.207l-2.852-.094c-6.331-.349-10.722-1.59-16.148-4.906-1.194-2.389-1.139-3.886-1.161-6.553l-.029-2.886-.013-3.155-.021-3.276c-.123-24.545.123-48.765 3.225-73.13l.28-2.259c5.354-43.161 14.35-85.856 25.025-127.996l1.437-5.697 4.731-18.396 1.518-5.877 2.149-8.138.605-2.434c1.543-5.542 3.5-7.941 8.254-11.203 9.362-4.787 20.812-4.291 29.852 1.105z" fill="#d2a3e9"/><path d="M1575.625 818.5c1.626 2.957 1.414 4.015 1.051 7.313l-.315 2.998L1576 832c-2.669 24.647-4.025 49.233-5 74l-4.812 2.438-2.707 1.371c-4.641 2.229-8.736 2.407-13.793 2.441l-2.264.063c-4.836.034-8.483-.231-12.424-3.312-1.657-3.158-2.645-6.473-3.687-9.875-4.99-14.877-12.056-28.493-20.625-41.625l-1.164-1.797c-3.245-4.771-6.908-8.657-12.336-10.828-9.903.388-17.547 9.545-24.187 16.125l-2.367 2.328c-6.585 6.909-11.157 15.363-11.883 24.984.397 5.862 1.859 9.357 6.125 13.438 10.485 6.672 24.324 5.673 36.217 5.602 7.943.097 14.356.846 20.908 5.648 2 3 2 3 1.843 5.063-1.065 2.448-1.908 2.851-4.323 3.921l-2.193 1.002L1515 924l-4.551 2.078-2.35 1.066c-14.838 6.801-26.842 16.005-38.099 27.855l-1.687 1.668c-17.596 18.341-26.106 41.958-25.625 67.059.787 18.243 9.494 33.95 22.438 46.461 12.142 10.392 27.195 14.172 42.875 13.813 10.607-1.093 20.415-4.238 27.375-12.687 14.652-21.854 8.839-53.271 6.048-77.783-1.866-16.463-1.866-16.463-1.423-23.53 3.248-3.958 8.038-5.932 13-7 7.915-.683 14.833-.584 22 3 2.747 2.747 2.563 4.789 3.035 8.625l.253 2.005.774 6.37.525 4.199L1581 999l.27 2.359c.631 5.83.916 11.599.968 17.461l.024 2.734.032 5.692.062 5.724c.237 15.327-.15 31.004-9.357 44.029l-1.266 1.848c-12.674 16.571-37.87 20.701-57.172 23.684-2.867.293-5.681.414-8.562.469l-2.092.074c-24.917.841-51.234-1.968-70.346-19.574-1.888-1.804-3.727-3.642-5.562-5.5l-1.801-1.77c-14.816-15.775-20.656-39.386-20.41-60.457 1.4-25.04 10.14-48.19 27.211-66.773l1.323-1.451c6.376-6.918 13.159-12.702 20.953-17.984 1.623-1.121 3.181-2.335 4.724-3.564v-3l-3.551-1.102c-26.917-8.531-26.917-8.531-34.105-20.703-3.123-7.425-2.225-15.907.594-23.32 9.867-20.839 30.089-39.694 51.445-48.227 14.591-4.983 29.325-5.449 43.58 1.278 4.973 2.577 9.904 5.326 14.244 8.882L1534 841l3-1 .48-3.762.707-4.926.307-2.475c.816-5.449 1.952-8.346 6.506-11.838 9.828-5.343 21.215-3.877 30.625 1.5zm-318.125 7.625l2.934.685c20.081 4.855 38.038 13.816 54.566 26.19l2.578 1.898c41.004 31.822 68.206 81.196 75.648 132.328 3.481 28.236.836 61.576-16.699 85.219-12.209 15.557-30.463 26.704-50.251 29.345-25.829 2.377-49.828-1.174-72.964-13.166-3.296-1.919-3.296-1.919-7.312-1.625l-1.75 2.75c-3.428 4.952-8.394 7.111-14.25 8.25-7.351.546-13.326.214-20-3l-2-2c.304-8.247 2.977-15.472 5.736-23.18l.963-2.836.901-2.54c.507-3.103-.185-4.675-1.6-7.444-1.795-2.324-3.699-4.513-5.637-6.719-1.363-2.281-1.363-2.281-1.371-4.891 1.34-3.178 2.712-3.739 5.82-5.141l2.645-1.234c2.189-.874 4.258-1.474 6.543-2.016 2.895-14.423 5.418-28.843 7.25-43.437l.258-2.05c1.134-9.148 2-18.275 1.989-27.502.081-5.149 1.149-8.096 4.503-12.01 7.198-4.7 15.585-5.741 24-5 3.858.985 7.134 2.134 10 5 .781 9.78-.209 19.772-1.187 29.5l-.196 1.98c-2.017 20.175-4.879 40.402-10.093 60.016-1.202 4.594-2.025 8.711-1.524 13.503 7.813 12.933 29.016 23.437 43 27 3.139.408 6.212.478 9.375.438l2.513-.023c10.095-.27 18.826-3.218 26.112-10.415 17.321-20.23 19.639-47.046 17.691-72.633-4.091-44.52-24.013-85.531-52.691-119.365l-1.836-2.211c-8.618-10.178-20.047-20.117-32.164-25.789l-3 1 .26 2.449c1.487 14.201 2.918 28.419 3.74 42.676l.236 3.117c.335 6.978.335 6.978-2.486 10.828-7.284 5.111-15.95 6.75-24.75 5.93-3.709-.874-6.812-1.827-9.56-4.539-2.046-3.495-2.043-6.928-2.214-10.879l-.303-5.196-.146-2.756c-.88-16.33-2.449-32.37-5.151-48.497l-.637-3.804-.577-3.284c-.419-3.098-.652-5.925-.411-9.044 9.083-10.015 21.458-8.697 33.5-5.875zM2018 946c2.199 3.299 2.257 4.309 2.287 8.146l.041 3.239.016 3.568.043 3.78.096 10.348.213 20.103.028 2.372.865 36.48.265 8.2.172 5.409.085 2.684.572 15.906.327 9.966.179 4.649.211 6.377.132 3.616c-.695 4.123-2.358 5.54-5.532 8.156-7.924 4.262-17.216 5.322-25.812 2.75-3.649-1.163-5.153-2.507-7.187-5.75-.43-2.335-.43-2.335-.508-4.957l-.111-3.013-.076-3.273-.114-3.438-.316-11.195-.236-7.787-.543-19.657-.275-10.233-.732-33.983-.207-11.222-.221-14.085-.095-5.247-.089-7.191-.069-2.114c.024-5.585 1.788-7.822 5.592-11.604 9.239-5.382 21.456-6.097 31-1zm2.938-117.125C2024 831 2024 831 2025 833c.296 7.546-.553 14.882-1.375 22.375-1.031 9.681-1.755 19.315-2.094 29.047l-.108 2.938-.425 14.481-.178 5.354-.026 2.474c-.166 4.193-.435 5.876-3.123 9.272-7.766 5.986-16.198 6.777-25.671 6.059-3.621-.96-6.319-2.319-9-5-.243-2.971-.243-2.971-.23-6.781v-2.062l.043-6.657.028-4.602L1983 887l.042-2.789c.214-10.127 1.424-20.193 2.573-30.248l.505-4.515.746-6.374.441-3.763c.845-4.042 2.131-7.059 5.391-9.675 8.219-3.924 19.87-4.78 28.238-.762zm686.437-77.187l3.398-.113c3.905.515 5.45 1.689 8.227 4.426 4.07 6.736 3.864 14.062 2.531 21.68-1.813 6.927-4.87 13.657-10.781 17.957-6.853 3.933-12.867 5.068-20.75 4.363-5.124-2.116-8.024-5.803-10.25-10.812-1.911-8.121-.578-14.828 3.25-22.187 6.536-8.843 13.043-15.066 24.375-15.312zm-58.277 1.265c3.229 2.507 4.682 5.244 5.902 9.047 1.162 10.949-.579 20.282-6.75 29.438-3.713 4.587-8.147 6.608-13.687 8.313-9.873.963-9.873.963-14.375-.937-3.447-2.856-5.765-5.546-7.187-9.812-.91-10.721-.13-18.71 6.832-27.246 7.487-8.048 18.153-13.85 29.266-8.801z" fill="#d2a2e9"/></svg>