<?xml version="1.0" encoding="UTF-8"?>
<svg xmlns="http://www.w3.org/2000/svg" xmlns:xlink="http://www.w3.org/1999/xlink" width="400px" height="135px" viewBox="0 0 401 135" version="1.1">
<g id="surface1">
<path style=" stroke:none;fill-rule:evenodd;fill:rgb(81.960785%,63.529414%,91.37255%);fill-opacity:1;" d="M 277.125 10.828125 C 272.082031 12.199219 270.804688 18.222656 275.433594 18.800781 C 280.339844 19.414062 284.5625 11.777344 279.8125 10.882812 C 279.296875 10.789062 278.738281 10.664062 278.574219 10.613281 C 278.410156 10.558594 277.757812 10.65625 277.125 10.828125 M 225.664062 12.160156 C 224.535156 12.75 224.550781 12.648438 224.523438 19.414062 C 224.5 24.722656 224.195312 30.726562 223.347656 42.570312 C 223.269531 43.695312 223.035156 46.167969 222.832031 48.066406 L 222.214844 53.820312 L 220.933594 64.6875 L 219.121094 77.804688 C 218.527344 80.957031 219.230469 81.800781 222.140625 81.4375 C 224.714844 81.117188 224.628906 81.3125 226.023438 72.359375 L 226.804688 67.371094 L 227.976562 59.316406 C 228.835938 53.128906 228.996094 52.332031 229.417969 52.066406 C 230.140625 51.609375 230.542969 52.304688 230.996094 54.78125 L 231.660156 58.296875 L 232.289062 61.621094 L 232.8125 64.347656 C 233.003906 65.203125 234.4375 65.945312 236.023438 66.007812 C 238.550781 66.109375 238.5625 66.09375 241.601562 59.128906 C 243.085938 55.722656 244.449219 52.878906 244.621094 52.8125 C 245.730469 52.378906 245.972656 53.761719 245.457031 57.582031 C 245.316406 58.605469 244.972656 62.035156 244.6875 65.199219 L 243.921875 73.125 C 242.800781 83.027344 242.914062 83.898438 245.335938 84.261719 C 248.804688 84.78125 249.113281 84.222656 249.792969 76.066406 C 249.949219 74.238281 250.238281 71.476562 250.441406 69.929688 L 251.976562 57.273438 L 252.722656 51.390625 L 253.234375 47.429688 C 253.605469 43.933594 256.71875 24.40625 257.773438 18.964844 L 258.335938 16.066406 L 257.703125 15.585938 C 255.671875 14.046875 251.3125 14.777344 250.78125 16.746094 L 250.308594 18.410156 L 249.535156 20.964844 C 246.835938 29.933594 238.9375 50.632812 237.984375 51.234375 C 237.015625 51.84375 236.410156 49.457031 234.964844 39.375 L 234.441406 35.796875 L 234.074219 33.238281 L 233.695312 30.554688 C 233.335938 27.980469 232.457031 19.84375 232.140625 16.109375 C 231.992188 14.351562 231.734375 12.785156 231.574219 12.625 C 230.65625 11.742188 227.019531 11.453125 225.664062 12.160156 M 289.957031 14.707031 C 284.71875 17.363281 286.386719 23.511719 291.9375 21.996094 C 294.21875 21.375 296.378906 18.179688 295.875 16.179688 C 295.359375 14.148438 292.476562 13.433594 289.957031 14.707031 M 190.136719 15.859375 C 188.910156 16.234375 188.488281 16.910156 187.613281 19.875 C 186.617188 23.257812 186.40625 23.359375 184.152344 21.535156 C 176.058594 14.980469 165.476562 15.808594 162.6875 23.214844 C 160.324219 29.5 165.007812 34.882812 176.441406 39.027344 C 188.472656 43.386719 192.851562 47.800781 193.277344 56.003906 C 194.078125 71.488281 174.835938 71.320312 172.433594 55.824219 C 171.90625 52.410156 172.808594 49.898438 174.976562 48.757812 C 175.863281 48.289062 176.175781 48.289062 180.089844 48.742188 C 181.28125 48.882812 184.332031 47.792969 184.777344 47.070312 C 185.269531 46.273438 180.140625 45.195312 176.921875 45.421875 C 158.847656 46.683594 163.183594 69.683594 181.597656 70.246094 C 198.714844 70.769531 205.980469 55.335938 194.164062 43.566406 C 191.136719 40.550781 189.925781 39.917969 179.683594 36.015625 C 171.203125 32.78125 166.40625 25.828125 169.902344 21.839844 C 173.339844 17.921875 180.8125 23.238281 185.273438 32.773438 C 186.292969 34.957031 186.398438 35.027344 188.589844 35.027344 C 191.085938 35.027344 192.433594 34.238281 192.515625 32.726562 C 192.808594 27.277344 193.792969 21.554688 195.027344 18.15625 C 195.859375 15.855469 193.605469 14.796875 190.136719 15.859375 M 144.4375 17.230469 C 142.261719 18.226562 142.3125 17.859375 143.375 24.878906 L 147.253906 52.285156 C 147.441406 53.832031 147.714844 55.847656 147.863281 56.761719 C 148.410156 60.105469 148.144531 61.742188 147.152344 61.128906 C 146.882812 60.960938 144.5625 57.101562 144.5625 56.820312 C 144.5625 56.6875 141.527344 51.582031 140.34375 49.730469 C 136.835938 44.226562 132.039062 37.375 129.496094 34.242188 C 121.003906 23.777344 121.082031 23.847656 118.382812 24.5625 C 116.796875 24.984375 115.777344 25.519531 115.222656 26.226562 C 114.640625 26.96875 114.484375 26.269531 116.792969 33.238281 C 121.257812 46.707031 124.011719 57.84375 126.046875 70.695312 L 126.828125 75.617188 C 126.996094 76.648438 127.734375 76.886719 129.4375 76.457031 C 132.496094 75.6875 132.90625 74.960938 132.414062 71.175781 C 131.800781 66.449219 131.128906 62.070312 130.785156 60.53125 C 130.652344 59.933594 130.417969 58.640625 130.265625 57.65625 C 130.113281 56.671875 129.457031 53.484375 128.816406 50.570312 C 128.171875 47.65625 127.710938 45.097656 127.796875 44.882812 C 128.121094 44.03125 128.945312 44.488281 130.195312 46.214844 C 138.425781 57.554688 145.597656 71.125 151.316406 86.164062 C 151.921875 87.765625 154.828125 87.792969 156.519531 86.210938 L 157.253906 85.523438 L 156.933594 82.328125 L 156.195312 74.53125 L 153.496094 48.578125 L 152.214844 38.097656 L 151.328125 30.9375 C 150.828125 25.507812 149.574219 17.234375 149.203125 16.9375 C 148.546875 16.40625 145.882812 16.570312 144.4375 17.230469 M 155.691406 19.710938 C 155.136719 19.84375 154.289062 20.257812 153.800781 20.632812 L 152.914062 21.308594 L 153.074219 26.570312 C 153.207031 31.019531 153.828125 37.476562 154.15625 37.808594 C 154.835938 38.503906 158.007812 38.179688 159.570312 37.257812 C 160.660156 36.613281 160.769531 36.054688 160.410156 32.980469 C 160.25 31.570312 160.074219 28.164062 160.027344 25.40625 C 159.964844 21.613281 159.859375 20.320312 159.597656 20.070312 C 159.125 19.617188 156.917969 19.414062 155.691406 19.710938 M 270.078125 23.777344 C 269.644531 23.875 269.164062 24.03125 269.011719 24.125 C 268.777344 24.269531 263.933594 33.890625 262.75 36.5625 L 261.722656 38.863281 C 256.535156 50.375 250.441406 71.824219 251.867188 73.546875 C 254.660156 76.914062 261.523438 75.214844 266.875 69.828125 C 270.453125 66.230469 270.53125 66.234375 270.785156 70.082031 C 271.242188 76.992188 271.832031 78.332031 274.613281 78.808594 C 277.730469 79.34375 278.070312 78.824219 277.386719 74.53125 C 276.070312 66.289062 278.039062 53.671875 282.445312 42.058594 L 283.890625 38.25 L 284.851562 35.71875 L 284.242188 35.257812 C 282.078125 33.621094 278.316406 33.945312 277.527344 35.832031 L 276.84375 37.457031 C 276.722656 37.738281 276.4375 38.542969 276.207031 39.246094 C 273.691406 46.957031 268.707031 57.53125 265.175781 62.640625 C 260.78125 69.003906 258.285156 70.664062 259.140625 66.660156 C 260.492188 60.300781 263.710938 50.574219 266.5625 44.234375 L 267.871094 41.292969 C 268.613281 39.613281 273.535156 29.75 274.949219 27.109375 L 275.832031 25.457031 L 275.3125 24.902344 C 274.519531 24.058594 271.621094 23.433594 270.078125 23.777344 M 110.59375 24.054688 C 105.9375 24.699219 105.730469 25.429688 107.898438 33.429688 L 110.082031 41.933594 C 110.378906 43.269531 111.058594 46.027344 111.59375 48.066406 L 113.652344 56.378906 L 115.476562 63.96875 C 116.292969 67.28125 116.34375 67.777344 115.925781 68.195312 C 115.421875 68.699219 114.980469 68.273438 112.84375 65.234375 C 109.40625 60.347656 104.496094 54.042969 101.53125 50.71875 L 99.355469 48.238281 C 94.808594 43.050781 85.855469 34.515625 84.960938 34.515625 C 83.078125 34.515625 80.214844 35.945312 79.660156 37.164062 C 79.421875 37.6875 80.082031 39.339844 83.144531 45.894531 C 83.863281 47.429688 85.941406 52.515625 88.15625 58.167969 C 90.617188 64.441406 94.175781 75.683594 96.125 83.339844 C 96.761719 85.851562 97.101562 86.082031 99.179688 85.421875 C 101.808594 84.589844 102.441406 83.394531 101.765625 80.554688 C 99.753906 72.132812 98.542969 67.851562 96 60.152344 C 92.921875 50.832031 94.113281 51.335938 103.429688 63.28125 C 110.058594 71.777344 116.28125 81.550781 120.683594 90.382812 C 122.648438 94.320312 123.09375 94.558594 125.875 93.171875 C 128.015625 92.101562 128.019531 92.734375 125.769531 81.691406 L 124.261719 74.277344 L 121.222656 59.828125 L 119.789062 53.183594 L 118.492188 47.480469 C 118.214844 46.386719 117.597656 43.683594 117.125 41.472656 C 116.648438 39.265625 115.609375 35.558594 114.816406 33.238281 C 112.933594 27.746094 112.746094 26.996094 113.066406 26.273438 C 113.78125 24.65625 112.777344 23.75 110.59375 24.054688 M 294.722656 28.488281 C 293.808594 28.792969 293.710938 29.007812 293.222656 31.832031 C 292.648438 35.125 291.417969 41.121094 290.152344 46.777344 C 288.550781 53.933594 284.96875 65.828125 281.96875 73.957031 C 280.222656 78.6875 280.21875 78.648438 282.617188 79.324219 C 285.578125 80.15625 286.4375 79.613281 287.851562 76.015625 C 290.457031 69.390625 291.839844 65.375 294.214844 57.527344 C 296.25 50.792969 297.042969 49.367188 297.660156 51.3125 C 298.800781 54.910156 299.410156 81.078125 298.472656 86.0625 C 298.421875 86.328125 298.304688 87.558594 298.207031 88.796875 C 298.113281 90.035156 297.757812 92.910156 297.421875 95.1875 L 296.808594 99.332031 L 297.609375 100.027344 C 298.582031 100.871094 300.738281 101.386719 301.71875 101.015625 C 302.410156 100.75 302.90625 99.945312 304.015625 97.285156 L 305.730469 93.324219 L 307.519531 89.234375 L 309.308594 85.140625 L 311.355469 80.410156 L 313.917969 74.402344 C 314.789062 72.363281 316.007812 69.199219 316.628906 67.371094 C 317.25 65.542969 318.378906 62.78125 319.136719 61.234375 C 322.203125 54.992188 329.058594 37.457031 328.699219 36.78125 C 328.011719 35.5 324.175781 34.371094 322.65625 35 C 321.933594 35.300781 321.714844 35.777344 319.183594 42.652344 L 315.050781 53.691406 L 309.199219 68.652344 C 308.734375 69.777344 308.042969 71.523438 307.664062 72.53125 C 306.128906 76.632812 305.355469 75.882812 305.320312 70.265625 C 305.292969 65.710938 304.996094 57.433594 304.839844 56.9375 C 304.789062 56.769531 304.675781 55.605469 304.585938 54.351562 C 304.398438 51.679688 304.363281 51.394531 303.542969 45.472656 C 302.640625 38.972656 301.140625 31.148438 300.570312 29.992188 C 300.03125 28.898438 296.347656 27.953125 294.722656 28.488281 M 73.1875 37.871094 C 70.699219 38.878906 70.230469 39.789062 70.886719 42.308594 C 71.433594 44.417969 71.160156 44.675781 68.78125 44.304688 C 62.554688 43.339844 57.496094 46.144531 54.554688 52.195312 C 50.21875 61.117188 52.402344 65.847656 60.335938 64.726562 C 63.378906 64.292969 63.46875 64.46875 61.839844 67.527344 C 56.101562 78.304688 60.320312 91.339844 70.71875 94.945312 C 78.589844 97.675781 92.792969 90.410156 93.617188 83.222656 C 93.984375 80.03125 90.171875 69.414062 87.023438 64.859375 C 86.277344 63.78125 83.941406 64.226562 82.066406 65.808594 C 80.726562 66.9375 80.757812 67.113281 83.109375 71.636719 C 90.007812 84.910156 88.460938 91.40625 78.40625 91.40625 C 64.777344 91.40625 60.523438 72.890625 71.492188 61.308594 C 73.832031 58.835938 73.875 58.582031 71.996094 58.429688 C 71.140625 58.359375 70.351562 58.554688 68.703125 59.246094 C 59.421875 63.136719 56.074219 59.835938 60.320312 50.972656 C 62.765625 45.859375 66.230469 46.597656 73.363281 53.746094 C 76.121094 56.507812 76.148438 56.519531 78.554688 55.488281 C 81.457031 54.246094 81.746094 53.53125 80.601562 50.449219 C 80.121094 49.15625 79.546875 47.429688 79.328125 46.613281 L 78.410156 43.339844 C 78.125 42.355469 77.722656 40.703125 77.511719 39.667969 C 77.304688 38.636719 77.070312 37.6875 76.992188 37.558594 C 76.742188 37.15625 74.496094 37.339844 73.1875 37.871094 M 158.484375 42.195312 C 154.953125 42.753906 154.621094 43.398438 155.402344 48.214844 L 156.441406 54.972656 C 157.769531 64.269531 159.195312 71.828125 159.679688 72.136719 C 162.421875 73.878906 165.546875 71.308594 164.910156 67.832031 C 164.367188 64.878906 163.921875 61.71875 162.585938 51.433594 C 161.976562 46.746094 161.371094 42.800781 161.242188 42.671875 C 160.820312 42.25 159.535156 42.027344 158.484375 42.195312 M 338.785156 45.902344 C 333.929688 46.972656 328.144531 50.914062 324.949219 55.335938 C 324.433594 56.050781 323.941406 56.691406 323.863281 56.761719 C 321.691406 58.640625 317.925781 67.867188 317.078125 73.378906 C 313.90625 94.011719 328.984375 105.375 344.5 94.050781 C 347.417969 91.921875 350.589844 88.441406 351.5625 86.304688 C 352.054688 85.226562 352.917969 83.875 353.496094 83.277344 C 354.523438 82.222656 356.324219 79.027344 356.644531 77.695312 C 357.164062 75.550781 351.1875 73.074219 350.398438 75.105469 C 347.527344 82.527344 342.136719 89.894531 337.261719 93.078125 C 326.824219 99.882812 320.199219 90.226562 323.746094 73.378906 C 326.890625 58.457031 343.550781 43.5 347.957031 51.648438 C 349.683594 54.839844 349.4375 56.15625 346.6875 58.421875 C 341.214844 62.929688 335.285156 69.484375 332 74.660156 C 330.167969 77.539062 330.214844 77.4375 330.519531 78.011719 C 330.855469 78.640625 333.105469 79.726562 334.351562 79.863281 C 335.773438 80.019531 336.480469 79.609375 337.421875 78.085938 C 340.183594 73.621094 345.65625 67.421875 350.140625 63.664062 L 351.800781 62.246094 C 352.703125 61.402344 357.863281 57.617188 360.324219 55.996094 C 363.660156 53.796875 363.679688 53.675781 360.949219 52.210938 C 358.707031 51.011719 357.210938 50.882812 355.710938 51.761719 C 354.332031 52.570312 354.1875 52.519531 352.777344 50.722656 C 349.472656 46.519531 344.214844 44.710938 338.785156 45.902344 M 29.070312 64.5625 C 29.019531 64.613281 28.085938 64.679688 27 64.710938 C 23.007812 64.816406 17.429688 66.621094 15.804688 68.328125 C 14.371094 69.839844 14.296875 70.398438 15.378906 71.546875 C 17.242188 73.519531 20.199219 77.285156 23.113281 81.398438 C 24.46875 83.308594 25.601562 83.339844 27.882812 81.527344 C 29.886719 79.9375 30 78.953125 28.421875 76.777344 L 26.5625 74.128906 C 26.070312 73.410156 25.179688 72.207031 24.582031 71.457031 C 19.941406 65.617188 35.707031 69.34375 44.722656 76.210938 C 61.605469 89.078125 61.738281 109.203125 44.917969 105.613281 C 41.480469 104.882812 41.804688 105.164062 40.765625 102 C 38.359375 94.660156 34.34375 85.90625 33.390625 85.914062 C 31.925781 85.929688 29.042969 88.039062 28.71875 89.332031 C 28.613281 89.75 29.191406 91.207031 30.726562 94.371094 C 31.910156 96.820312 33.371094 100.066406 33.96875 101.585938 C 35.148438 104.574219 35.148438 104.644531 33.917969 106.179688 C 33.171875 107.109375 33.457031 107.566406 35.1875 108.222656 C 36.644531 108.777344 36.515625 108.546875 37.585938 112.59375 C 38.246094 115.105469 38.417969 115.273438 39.847656 114.800781 C 41.503906 114.253906 43.164062 112.472656 43.164062 111.25 C 43.164062 110.007812 43.136719 110.027344 45.339844 109.816406 C 56.378906 108.769531 62.8125 102.925781 62.828125 93.925781 C 62.832031 91.957031 62.785156 91.777344 61.945312 90.601562 C 59.683594 87.4375 58.238281 84.230469 57.6875 81.136719 C 56.5 74.46875 42.339844 65.4375 32.054688 64.792969 C 30.789062 64.710938 29.625 64.605469 29.460938 64.558594 C 29.300781 64.507812 29.125 64.511719 29.070312 64.5625 M 366.324219 68.074219 C 366.179688 68.25 365.191406 70.03125 364.125 72.03125 C 359.152344 81.359375 357.863281 83.351562 356.800781 83.351562 C 354.890625 83.351562 351.875 88.003906 353.238281 88.847656 C 353.84375 89.222656 353.28125 90.289062 349.597656 95.761719 C 343.410156 104.957031 343.757812 104.367188 344.148438 104.957031 C 345.769531 107.414062 349.15625 107.402344 350.84375 104.933594 L 352.410156 102.691406 L 353.613281 100.996094 L 355.769531 97.925781 L 358.640625 93.769531 C 360.164062 91.515625 360.070312 91.542969 362.992188 92.449219 C 367.007812 93.691406 366.945312 93.472656 364.410156 97.363281 L 355.535156 111.347656 L 351.203125 118.195312 L 349.128906 121.460938 L 349.582031 122.226562 C 350.074219 123.0625 352.195312 124.261719 353.175781 124.261719 C 354.265625 124.261719 354.738281 123.777344 356.980469 120.355469 L 369.148438 101.902344 L 373.550781 95.382812 L 386.253906 76.871094 C 390.707031 70.558594 390.660156 70.738281 388.222656 69.242188 C 385.441406 67.539062 383.890625 67.648438 382.609375 69.636719 L 377.398438 77.507812 L 371.777344 85.980469 C 370.316406 88.214844 370.558594 88.144531 367.488281 87.226562 C 363.644531 86.078125 363.652344 86.527344 367.386719 80.335938 C 371.574219 73.394531 372.796875 70.9375 372.414062 70.230469 C 371.492188 68.527344 367.191406 67.003906 366.324219 68.074219 "/>
<path style=" stroke:none;fill-rule:evenodd;fill:rgb(18.039216%,17.647059%,18.039216%);fill-opacity:1;" d="M 276.46875 8.917969 C 272.914062 9.835938 270.484375 12.734375 270.484375 16.050781 C 270.484375 16.777344 270.257812 17.867188 269.972656 18.535156 C 269.691406 19.191406 269.460938 20.226562 269.460938 20.832031 C 269.460938 21.773438 269.375 21.957031 268.863281 22.082031 C 267.445312 22.441406 265.429688 25.808594 261.695312 34.074219 L 260.363281 37.011719 C 259.359375 39.222656 255.929688 47.972656 255.359375 49.792969 C 254.824219 51.488281 254.476562 51.9375 254.746094 50.578125 C 254.835938 50.132812 255.027344 48.722656 255.167969 47.449219 C 255.511719 44.375 258.652344 25.582031 259.128906 23.742188 C 259.332031 22.949219 259.5 21.949219 259.5 21.523438 C 259.5 21.097656 259.734375 19.769531 260.019531 18.566406 C 261.542969 12.140625 250.378906 10.113281 248.636719 16.5 L 247.984375 18.855469 L 247.523438 20.519531 C 247.335938 21.203125 246.574219 23.609375 245.195312 27.871094 C 244.578125 29.777344 242.125 36.363281 239.523438 43.082031 L 238.628906 45.480469 C 238.128906 46.882812 237.949219 46.582031 237.570312 43.722656 L 236.890625 38.992188 C 235.859375 32.222656 234.609375 21.445312 234.339844 17.003906 C 234.046875 12.125 233.84375 11.589844 231.9375 10.621094 C 228.851562 9.058594 223.558594 9.941406 222.714844 12.164062 C 222.589844 12.492188 222.367188 17.511719 222.21875 23.320312 L 221.6875 38.480469 C 221.449219 42.65625 221.28125 44.601562 220.40625 53.183594 L 218.140625 72.359375 C 217.285156 78.671875 217.070312 80.644531 217.191406 81.101562 C 217.265625 81.390625 217.199219 82.578125 217.042969 83.738281 C 216.574219 87.238281 217.390625 88.273438 220.734375 88.429688 C 225.648438 88.65625 225.824219 88.230469 228.621094 69.417969 L 229.171875 65.964844 L 229.457031 64.304688 L 230.023438 67.246094 C 230.898438 71.753906 232.140625 73.128906 235.351562 73.125 C 238.527344 73.121094 239.460938 72.332031 241.222656 68.183594 C 241.917969 66.546875 242.511719 65.238281 242.542969 65.269531 C 242.578125 65.304688 242.441406 67.113281 242.238281 69.292969 L 240.976562 83.652344 C 240.449219 89.808594 240.871094 90.78125 244.246094 91.175781 C 248.035156 91.621094 249.554688 90.5625 250.023438 87.148438 C 250.183594 85.972656 250.421875 84.554688 250.550781 83.992188 C 250.699219 83.34375 250.828125 82.691406 250.9375 82.039062 C 251.097656 81.015625 251.105469 81.015625 253.625 81.796875 C 257.261719 82.925781 262.183594 81.121094 266.320312 77.148438 L 267.929688 75.601562 L 267.9375 76.601562 C 267.996094 84.015625 272.199219 88.015625 276.96875 85.195312 C 277.941406 84.617188 277.96875 84.617188 278.5 85.089844 C 280.484375 86.855469 284.921875 86.941406 286.339844 85.242188 C 287.269531 84.125 291.351562 73.347656 293.738281 65.710938 C 294.902344 61.976562 294.976562 61.820312 295.011719 63.027344 C 295.03125 63.730469 295.097656 64.589844 295.160156 64.941406 C 295.222656 65.292969 295.320312 70.011719 295.375 75.425781 C 295.492188 86.667969 295.304688 90.175781 294.082031 99.421875 C 293.238281 105.800781 293.480469 106.511719 296.808594 107.519531 C 300.433594 108.617188 301.421875 107.941406 303.726562 102.785156 L 306.355469 96.902344 L 308.21875 92.683594 L 310.988281 86.386719 L 312.753906 82.390625 L 312.9375 84.851562 C 314.390625 104.578125 331.136719 111.804688 345 98.683594 C 346.160156 97.589844 346.078125 97.761719 343.914062 101.011719 C 342.863281 102.59375 342 104.101562 342 104.367188 C 342 104.628906 341.480469 105.617188 340.851562 106.5625 C 338.210938 110.5 342.96875 115.015625 347.496094 112.863281 C 348.183594 112.539062 355.242188 103.082031 358.117188 98.640625 C 358.308594 98.34375 359.953125 98.632812 360.539062 99.0625 C 360.929688 99.347656 360.765625 99.703125 358.828125 102.734375 L 354.8125 109.101562 L 350.28125 116.398438 C 348.816406 118.757812 347.617188 120.753906 347.617188 120.839844 C 347.617188 120.925781 347.109375 121.816406 346.484375 122.820312 C 344.101562 126.660156 344.625 128.636719 348.382812 129.988281 C 351.980469 131.285156 351.894531 131.363281 359.609375 119.785156 L 374.328125 97.925781 L 384.589844 83.1875 C 392.957031 71.332031 393.09375 70.976562 390.257812 68.410156 C 386.144531 64.691406 383.117188 65.179688 379.867188 70.089844 L 376.992188 74.402344 L 374.472656 78.238281 C 369.066406 86.585938 369.601562 85.980469 368.152344 85.417969 L 367.101562 85.015625 L 369.640625 80.667969 C 372.6875 75.445312 374.691406 71.535156 374.691406 70.816406 C 374.691406 67.96875 368.996094 64.886719 365.917969 66.066406 C 364.816406 66.488281 364.761719 66.570312 361.769531 72.171875 C 358.851562 77.648438 358.734375 77.820312 358.589844 76.929688 C 357.921875 72.871094 349.964844 70.746094 348.628906 74.277344 C 347.992188 75.960938 347.21875 77.578125 346.890625 77.90625 C 346.703125 78.09375 346.339844 78.820312 346.085938 79.515625 C 344.832031 82.949219 339.769531 89.238281 336.558594 91.351562 C 331.117188 94.9375 326.667969 93.582031 325.25 87.910156 C 324.382812 84.441406 324.671875 77.070312 325.84375 72.871094 C 328.339844 63.925781 341.460938 52.488281 344.007812 57.035156 C 344.359375 57.65625 344.316406 57.730469 342.738281 59.203125 C 339.3125 62.398438 336.589844 65.292969 334.582031 67.882812 C 333.816406 68.867188 333.054688 69.820312 332.882812 70 C 332.496094 70.40625 330.054688 74.132812 329.140625 75.703125 C 328.769531 76.347656 328.460938 77.179688 328.460938 77.546875 C 328.460938 77.917969 328.003906 78.941406 327.441406 79.828125 C 325.632812 82.683594 326.617188 85.007812 330.078125 86.039062 C 333.492188 87.050781 335.011719 86.488281 337.023438 83.460938 C 342.371094 75.414062 349.738281 68.445312 360.007812 61.707031 C 362.671875 59.957031 363.144531 59.273438 362.597656 57.964844 C 362.238281 57.101562 362.242188 57.097656 363.152344 56.609375 C 367.867188 54.085938 361.171875 47.539062 355.808594 49.429688 L 354.675781 49.832031 L 353.511719 48.609375 C 351.828125 46.851562 350.542969 45.9375 348.511719 45.066406 C 346.894531 44.371094 346.328125 44.1875 344.679688 43.8125 C 339.65625 42.683594 332.308594 45.292969 327.152344 50.046875 C 326.277344 50.859375 325.621094 51.347656 325.703125 51.136719 C 325.78125 50.925781 326.535156 49.027344 327.378906 46.917969 C 329.914062 40.59375 331.015625 37.648438 331.015625 37.207031 C 331.015625 33.695312 322.121094 31.332031 320.179688 34.332031 C 319.976562 34.644531 318.871094 37.546875 317.722656 40.78125 L 315.003906 48.195312 C 314.65625 49.039062 313.582031 51.859375 312.621094 54.460938 L 307.417969 67.941406 C 307.332031 68.027344 307.25 67.359375 307.234375 66.457031 C 307.21875 65.554688 307.179688 64.457031 307.144531 64.015625 C 307.109375 63.578125 307.003906 61.503906 306.902344 59.414062 C 306.804688 57.320312 306.679688 55.378906 306.625 55.097656 C 306.570312 54.816406 306.457031 53.699219 306.375 52.609375 C 305.890625 46.09375 303.390625 31.085938 302.507812 29.351562 C 301.722656 27.8125 298.496094 26.335938 295.925781 26.335938 C 294.996094 26.335938 294.953125 26.300781 295.304688 25.886719 C 296 25.066406 296.589844 23.46875 296.65625 22.226562 C 296.695312 21.550781 296.980469 20.503906 297.292969 19.90625 C 298.925781 16.769531 297.785156 13.375 294.820312 12.539062 C 289.769531 11.117188 284.972656 14.195312 284.636719 19.082031 C 284.578125 19.886719 284.292969 21.039062 284 21.644531 C 282.074219 25.628906 284.519531 28.945312 289.414062 28.996094 L 291.617188 29.019531 L 291.488281 30.042969 C 291.417969 30.605469 291.195312 31.527344 290.992188 32.089844 C 290.417969 33.679688 290.210938 34.503906 289.894531 36.433594 C 287.816406 49.125 284.027344 63.554688 279.96875 74.246094 C 279.410156 75.726562 279.289062 75.605469 279.050781 73.320312 C 278.351562 66.597656 279.441406 57.921875 281.851562 51.007812 C 282.746094 48.4375 284.734375 43.230469 285.207031 42.21875 C 285.449219 41.691406 285.554688 41.015625 285.46875 40.496094 C 285.394531 40.027344 285.410156 39.589844 285.507812 39.53125 C 286.089844 39.171875 286.90625 35.828125 286.59375 35.078125 C 285.859375 33.296875 282.023438 31.929688 279.175781 32.429688 C 276.519531 32.898438 276.21875 33.261719 274.5625 37.96875 L 273.550781 40.78125 L 272.269531 44.105469 C 270.128906 49.71875 267.5625 55.175781 265.300781 58.925781 C 263.640625 61.679688 262.128906 63.832031 262.40625 63.054688 L 263.21875 60.660156 C 263.953125 58.464844 265.265625 54.941406 265.761719 53.820312 C 265.949219 53.398438 266.347656 52.429688 266.644531 51.667969 C 266.96875 50.851562 267.304688 50.042969 267.65625 49.238281 L 268.695312 46.917969 C 269.535156 45.035156 272.730469 38.640625 274.445312 35.410156 L 276.273438 31.960938 C 276.691406 31.167969 276.710938 29.859375 276.316406 29.464844 C 276.109375 29.257812 276.101562 29.070312 276.289062 28.839844 C 276.773438 28.242188 277.546875 26.730469 277.71875 26.046875 C 277.820312 25.625 278.171875 25.257812 278.664062 25.054688 C 280.511719 24.289062 282.527344 21.039062 282.621094 18.664062 C 282.65625 17.867188 282.925781 16.71875 283.25 16.007812 C 285.230469 11.667969 281.386719 7.644531 276.46875 8.917969 M 277.125 10.828125 C 272.082031 12.199219 270.804688 18.222656 275.433594 18.800781 C 280.339844 19.414062 284.5625 11.777344 279.8125 10.882812 C 279.296875 10.789062 278.738281 10.664062 278.574219 10.613281 C 278.410156 10.558594 277.757812 10.65625 277.125 10.828125 M 225.664062 12.160156 C 224.535156 12.75 224.550781 12.648438 224.523438 19.414062 C 224.5 24.722656 224.195312 30.726562 223.347656 42.570312 C 223.269531 43.695312 223.035156 46.167969 222.832031 48.066406 L 222.214844 53.820312 L 220.933594 64.6875 L 219.121094 77.804688 C 218.527344 80.957031 219.230469 81.800781 222.140625 81.4375 C 224.714844 81.117188 224.628906 81.3125 226.023438 72.359375 L 226.804688 67.371094 L 227.976562 59.316406 C 228.835938 53.128906 228.996094 52.332031 229.417969 52.066406 C 230.140625 51.609375 230.542969 52.304688 230.996094 54.78125 L 231.660156 58.296875 L 232.289062 61.621094 L 232.8125 64.347656 C 233.003906 65.203125 234.4375 65.945312 236.023438 66.007812 C 238.550781 66.109375 238.5625 66.09375 241.601562 59.128906 C 243.085938 55.722656 244.449219 52.878906 244.621094 52.8125 C 245.730469 52.378906 245.972656 53.761719 245.457031 57.582031 C 245.316406 58.605469 244.972656 62.035156 244.6875 65.199219 L 243.921875 73.125 C 242.800781 83.027344 242.914062 83.898438 245.335938 84.261719 C 248.804688 84.78125 249.113281 84.222656 249.792969 76.066406 C 249.949219 74.238281 250.238281 71.476562 250.441406 69.929688 L 251.976562 57.273438 L 252.722656 51.390625 L 253.234375 47.429688 C 253.605469 43.933594 256.71875 24.40625 257.773438 18.964844 L 258.335938 16.066406 L 257.703125 15.585938 C 255.671875 14.046875 251.3125 14.777344 250.78125 16.746094 L 250.308594 18.410156 L 249.535156 20.964844 C 246.835938 29.933594 238.9375 50.632812 237.984375 51.234375 C 237.015625 51.84375 236.410156 49.457031 234.964844 39.375 L 234.441406 35.796875 L 234.074219 33.238281 L 233.695312 30.554688 C 233.335938 27.980469 232.457031 19.84375 232.140625 16.109375 C 231.992188 14.351562 231.734375 12.785156 231.574219 12.625 C 230.65625 11.742188 227.019531 11.453125 225.664062 12.160156 M 191.050781 13.835938 C 188.070312 14.1875 187.015625 15.054688 186.054688 17.9375 L 185.390625 19.941406 L 183.761719 18.777344 C 177.058594 13.988281 168.542969 13.945312 163.378906 18.671875 L 161.941406 19.988281 L 161.660156 19.367188 C 160.75 17.371094 155.742188 17.0625 152.933594 18.832031 L 151.980469 19.433594 L 151.863281 18.855469 C 151.800781 18.539062 151.6875 17.832031 151.613281 17.285156 C 151.238281 14.484375 147.085938 13.746094 143.082031 15.773438 C 140.230469 17.21875 140.160156 17.550781 141.226562 24.417969 L 145.460938 53.308594 L 145.617188 54.84375 L 144.511719 52.925781 C 142.015625 48.589844 136.855469 40.746094 134 36.945312 C 132.132812 34.457031 128.203125 29.382812 127.839844 28.992188 C 127.699219 28.835938 126.503906 27.433594 125.1875 25.875 C 123.648438 24.050781 122.519531 22.945312 122.019531 22.769531 C 120.523438 22.246094 117.402344 22.613281 115.742188 23.503906 C 115.234375 23.773438 115.101562 23.730469 114.664062 23.175781 C 112.4375 20.34375 104.207031 23.214844 104.210938 26.816406 C 104.210938 27.324219 104.679688 29.410156 105.25 31.449219 C 105.824219 33.488281 106.980469 37.859375 107.824219 41.164062 L 113.035156 61.867188 C 113.117188 62.214844 112.355469 61.351562 111.34375 59.949219 C 105.183594 51.4375 90.855469 35.625 87.046875 33.136719 C 85.417969 32.070312 81.796875 32.835938 79.222656 34.789062 C 78.066406 35.660156 77.804688 35.761719 77.339844 35.511719 C 74.234375 33.847656 68.003906 38.003906 68.566406 41.363281 L 68.726562 42.316406 L 65.972656 42.320312 C 55.742188 42.347656 45.519531 58.855469 52.066406 64.78125 C 52.363281 65.050781 52.664062 65.742188 52.757812 66.371094 C 53.070312 68.4375 54.808594 70.34375 57.046875 71.070312 C 57.921875 71.355469 58.011719 71.464844 57.886719 72.066406 C 57.808594 72.4375 57.613281 73.457031 57.453125 74.332031 L 57.164062 75.917969 L 55.082031 73.808594 C 45.722656 64.328125 31.859375 60.398438 20.316406 63.960938 C 13.839844 65.957031 10.832031 69.722656 13.472656 72.523438 C 14.953125 74.09375 15.101562 74.316406 15.242188 75.222656 C 15.324219 75.75 15.816406 76.546875 16.5625 77.351562 L 18.550781 79.546875 C 19.40625 80.519531 22.710938 84.878906 24.390625 87.246094 C 24.953125 88.039062 25.722656 88.820312 26.097656 88.984375 C 26.566406 89.1875 26.75 89.433594 26.6875 89.769531 C 26.632812 90.039062 27.378906 91.839844 28.339844 93.773438 C 30.230469 97.578125 31.195312 99.664062 32.296875 102.308594 L 33 104.007812 L 32.335938 105.144531 C 31.179688 107.117188 31.671875 108.839844 33.601562 109.578125 L 34.65625 109.984375 L 34.535156 111.238281 C 34.429688 112.371094 34.488281 112.558594 35.175781 113.199219 C 35.59375 113.589844 36.167969 114.433594 36.449219 115.078125 C 36.804688 115.878906 37.207031 116.34375 37.730469 116.5625 C 38.375 116.828125 38.546875 117.105469 38.839844 118.332031 C 39.828125 122.511719 45.660156 121.773438 47.386719 117.25 L 47.804688 116.152344 L 49.636719 115.992188 C 59.203125 115.160156 66.238281 108.796875 66.847656 100.417969 C 66.925781 99.328125 67.03125 98.4375 67.082031 98.4375 C 67.132812 98.4375 67.726562 98.835938 68.402344 99.320312 C 76.125 104.875 92.25 100.558594 96.117188 91.898438 L 96.585938 90.855469 L 97.46875 91.742188 C 99.335938 93.609375 104.230469 91.84375 105.355469 88.894531 C 105.753906 87.84375 105.746094 87.6875 105.089844 84.875 L 104.214844 81.050781 C 104.027344 80.207031 103.53125 78.347656 102.058594 72.996094 C 101.710938 71.730469 100.972656 69.285156 100.421875 67.5625 C 99.867188 65.839844 99.457031 64.433594 99.503906 64.433594 C 99.550781 64.433594 100.253906 65.265625 101.066406 66.285156 L 102.6875 68.265625 C 102.765625 68.335938 103.167969 68.851562 103.582031 69.414062 L 104.648438 70.820312 C 107.652344 74.5625 113.417969 83.179688 116.285156 88.210938 C 118.335938 91.808594 120.425781 95.703125 121.503906 97.945312 C 122.914062 100.871094 124.828125 101.453125 127.976562 99.910156 C 130.4375 98.707031 130.914062 97.597656 130.320312 94.472656 L 128.335938 84.242188 L 128.179688 83.472656 L 129.367188 83.566406 C 133.714844 83.914062 136.144531 80.890625 135.375 76.085938 C 135.238281 75.230469 134.949219 73.207031 134.730469 71.589844 C 134.1875 67.5625 132.277344 57.011719 131.867188 55.761719 C 131.617188 54.996094 134.617188 59.578125 137.335938 64.117188 C 142.273438 72.351562 148.398438 85.203125 150.660156 92.070312 C 151.792969 95.503906 159.652344 94.511719 159.628906 90.9375 C 159.628906 90.410156 159.101562 84.117188 158.714844 80.027344 C 158.542969 78.167969 158.550781 78.121094 159.019531 78.507812 C 162.738281 81.5625 168.042969 78.367188 167.339844 73.5 C 167.175781 72.363281 167.039062 71.050781 167.039062 70.582031 L 167.039062 69.722656 L 167.769531 70.730469 C 176.082031 82.21875 198.597656 78.1875 201.40625 64.710938 C 203.140625 56.386719 200.90625 47.8125 195.5625 42.257812 C 194.007812 40.640625 193.828125 40.359375 194.128906 39.996094 C 194.351562 39.726562 194.585938 38.144531 194.789062 35.574219 C 195.140625 31.058594 195.78125 27.664062 196.917969 24.273438 C 197.835938 21.53125 197.851562 21.242188 197.160156 20.359375 L 196.632812 19.6875 L 197.160156 18.273438 C 198.414062 14.917969 196.109375 13.246094 191.050781 13.835938 M 289.957031 14.707031 C 284.71875 17.363281 286.386719 23.511719 291.9375 21.996094 C 294.21875 21.375 296.378906 18.179688 295.875 16.179688 C 295.359375 14.148438 292.476562 13.433594 289.957031 14.707031 M 190.136719 15.859375 C 188.910156 16.234375 188.488281 16.910156 187.613281 19.875 C 186.617188 23.257812 186.40625 23.359375 184.152344 21.535156 C 176.058594 14.980469 165.476562 15.808594 162.6875 23.214844 C 160.324219 29.5 165.007812 34.882812 176.441406 39.027344 C 188.472656 43.386719 192.851562 47.800781 193.277344 56.003906 C 194.078125 71.488281 174.835938 71.320312 172.433594 55.824219 C 171.90625 52.410156 172.808594 49.898438 174.976562 48.757812 C 175.863281 48.289062 176.175781 48.289062 180.089844 48.742188 C 181.28125 48.882812 184.332031 47.792969 184.777344 47.070312 C 185.269531 46.273438 180.140625 45.195312 176.921875 45.421875 C 158.847656 46.683594 163.183594 69.683594 181.597656 70.246094 C 198.714844 70.769531 205.980469 55.335938 194.164062 43.566406 C 191.136719 40.550781 189.925781 39.917969 179.683594 36.015625 C 171.203125 32.78125 166.40625 25.828125 169.902344 21.839844 C 173.339844 17.921875 180.8125 23.238281 185.273438 32.773438 C 186.292969 34.957031 186.398438 35.027344 188.589844 35.027344 C 191.085938 35.027344 192.433594 34.238281 192.515625 32.726562 C 192.808594 27.277344 193.792969 21.554688 195.027344 18.15625 C 195.859375 15.855469 193.605469 14.796875 190.136719 15.859375 M 144.4375 17.230469 C 142.261719 18.226562 142.3125 17.859375 143.375 24.878906 L 147.253906 52.285156 C 147.441406 53.832031 147.714844 55.847656 147.863281 56.761719 C 148.410156 60.105469 148.144531 61.742188 147.152344 61.128906 C 146.882812 60.960938 144.5625 57.101562 144.5625 56.820312 C 144.5625 56.6875 141.527344 51.582031 140.34375 49.730469 C 136.835938 44.226562 132.039062 37.375 129.496094 34.242188 C 121.003906 23.777344 121.082031 23.847656 118.382812 24.5625 C 116.796875 24.984375 115.777344 25.519531 115.222656 26.226562 C 114.640625 26.96875 114.484375 26.269531 116.792969 33.238281 C 121.257812 46.707031 124.011719 57.84375 126.046875 70.695312 L 126.828125 75.617188 C 126.996094 76.648438 127.734375 76.886719 129.4375 76.457031 C 132.496094 75.6875 132.90625 74.960938 132.414062 71.175781 C 131.800781 66.449219 131.128906 62.070312 130.785156 60.53125 C 130.652344 59.933594 130.417969 58.640625 130.265625 57.65625 C 130.113281 56.671875 129.457031 53.484375 128.816406 50.570312 C 128.171875 47.65625 127.710938 45.097656 127.796875 44.882812 C 128.121094 44.03125 128.945312 44.488281 130.195312 46.214844 C 138.425781 57.554688 145.597656 71.125 151.316406 86.164062 C 151.921875 87.765625 154.828125 87.792969 156.519531 86.210938 L 157.253906 85.523438 L 156.933594 82.328125 L 156.195312 74.53125 L 153.496094 48.578125 L 152.214844 38.097656 L 151.328125 30.9375 C 150.828125 25.507812 149.574219 17.234375 149.203125 16.9375 C 148.546875 16.40625 145.882812 16.570312 144.4375 17.230469 M 155.691406 19.710938 C 155.136719 19.84375 154.289062 20.257812 153.800781 20.632812 L 152.914062 21.308594 L 153.074219 26.570312 C 153.207031 31.019531 153.828125 37.476562 154.15625 37.808594 C 154.835938 38.503906 158.007812 38.179688 159.570312 37.257812 C 160.660156 36.613281 160.769531 36.054688 160.410156 32.980469 C 160.25 31.570312 160.074219 28.164062 160.027344 25.40625 C 159.964844 21.613281 159.859375 20.320312 159.597656 20.070312 C 159.125 19.617188 156.917969 19.414062 155.691406 19.710938 M 270.078125 23.777344 C 269.644531 23.875 269.164062 24.03125 269.011719 24.125 C 268.777344 24.269531 263.933594 33.890625 262.75 36.5625 L 261.722656 38.863281 C 256.535156 50.375 250.441406 71.824219 251.867188 73.546875 C 254.660156 76.914062 261.523438 75.214844 266.875 69.828125 C 270.453125 66.230469 270.53125 66.234375 270.785156 70.082031 C 271.242188 76.992188 271.832031 78.332031 274.613281 78.808594 C 277.730469 79.34375 278.070312 78.824219 277.386719 74.53125 C 276.070312 66.289062 278.039062 53.671875 282.445312 42.058594 L 283.890625 38.25 L 284.851562 35.71875 L 284.242188 35.257812 C 282.078125 33.621094 278.316406 33.945312 277.527344 35.832031 L 276.84375 37.457031 C 276.722656 37.738281 276.4375 38.542969 276.207031 39.246094 C 273.691406 46.957031 268.707031 57.53125 265.175781 62.640625 C 260.78125 69.003906 258.285156 70.664062 259.140625 66.660156 C 260.492188 60.300781 263.710938 50.574219 266.5625 44.234375 L 267.871094 41.292969 C 268.613281 39.613281 273.535156 29.75 274.949219 27.109375 L 275.832031 25.457031 L 275.3125 24.902344 C 274.519531 24.058594 271.621094 23.433594 270.078125 23.777344 M 110.59375 24.054688 C 105.9375 24.699219 105.730469 25.429688 107.898438 33.429688 L 110.082031 41.933594 C 110.378906 43.269531 111.058594 46.027344 111.59375 48.066406 L 113.652344 56.378906 L 115.476562 63.96875 C 116.292969 67.28125 116.34375 67.777344 115.925781 68.195312 C 115.421875 68.699219 114.980469 68.273438 112.84375 65.234375 C 109.40625 60.347656 104.496094 54.042969 101.53125 50.71875 L 99.355469 48.238281 C 94.808594 43.050781 85.855469 34.515625 84.960938 34.515625 C 83.078125 34.515625 80.214844 35.945312 79.660156 37.164062 C 79.421875 37.6875 80.082031 39.339844 83.144531 45.894531 C 83.863281 47.429688 85.941406 52.515625 88.15625 58.167969 C 90.617188 64.441406 94.175781 75.683594 96.125 83.339844 C 96.761719 85.851562 97.101562 86.082031 99.179688 85.421875 C 101.808594 84.589844 102.441406 83.394531 101.765625 80.554688 C 99.753906 72.132812 98.542969 67.851562 96 60.152344 C 92.921875 50.832031 94.113281 51.335938 103.429688 63.28125 C 110.058594 71.777344 116.28125 81.550781 120.683594 90.382812 C 122.648438 94.320312 123.09375 94.558594 125.875 93.171875 C 128.015625 92.101562 128.019531 92.734375 125.769531 81.691406 L 124.261719 74.277344 L 121.222656 59.828125 L 119.789062 53.183594 L 118.492188 47.480469 C 118.214844 46.386719 117.597656 43.683594 117.125 41.472656 C 116.648438 39.265625 115.609375 35.558594 114.816406 33.238281 C 112.933594 27.746094 112.746094 26.996094 113.066406 26.273438 C 113.78125 24.65625 112.777344 23.75 110.59375 24.054688 M 172.1875 27.839844 C 171.257812 28.429688 174.558594 31.496094 177.835938 33.089844 C 181.53125 34.882812 181.609375 34.871094 180.101562 32.800781 C 177.28125 28.917969 173.863281 26.777344 172.1875 27.839844 M 294.722656 28.488281 C 293.808594 28.792969 293.710938 29.007812 293.222656 31.832031 C 292.648438 35.125 291.417969 41.121094 290.152344 46.777344 C 288.550781 53.933594 284.96875 65.828125 281.96875 73.957031 C 280.222656 78.6875 280.21875 78.648438 282.617188 79.324219 C 285.578125 80.15625 286.4375 79.613281 287.851562 76.015625 C 290.457031 69.390625 291.839844 65.375 294.214844 57.527344 C 296.25 50.792969 297.042969 49.367188 297.660156 51.3125 C 298.800781 54.910156 299.410156 81.078125 298.472656 86.0625 C 298.421875 86.328125 298.304688 87.558594 298.207031 88.796875 C 298.113281 90.035156 297.757812 92.910156 297.421875 95.1875 L 296.808594 99.332031 L 297.609375 100.027344 C 298.582031 100.871094 300.738281 101.386719 301.71875 101.015625 C 302.410156 100.75 302.90625 99.945312 304.015625 97.285156 L 305.730469 93.324219 L 307.519531 89.234375 L 309.308594 85.140625 L 311.355469 80.410156 L 313.917969 74.402344 C 314.789062 72.363281 316.007812 69.199219 316.628906 67.371094 C 317.25 65.542969 318.378906 62.78125 319.136719 61.234375 C 322.203125 54.992188 329.058594 37.457031 328.699219 36.78125 C 328.011719 35.5 324.175781 34.371094 322.65625 35 C 321.933594 35.300781 321.714844 35.777344 319.183594 42.652344 L 315.050781 53.691406 L 309.199219 68.652344 C 308.734375 69.777344 308.042969 71.523438 307.664062 72.53125 C 306.128906 76.632812 305.355469 75.882812 305.320312 70.265625 C 305.292969 65.710938 304.996094 57.433594 304.839844 56.9375 C 304.789062 56.769531 304.675781 55.605469 304.585938 54.351562 C 304.398438 51.679688 304.363281 51.394531 303.542969 45.472656 C 302.640625 38.972656 301.140625 31.148438 300.570312 29.992188 C 300.03125 28.898438 296.347656 27.953125 294.722656 28.488281 M 73.1875 37.871094 C 70.699219 38.878906 70.230469 39.789062 70.886719 42.308594 C 71.433594 44.417969 71.160156 44.675781 68.78125 44.304688 C 62.554688 43.339844 57.496094 46.144531 54.554688 52.195312 C 50.21875 61.117188 52.402344 65.847656 60.335938 64.726562 C 63.378906 64.292969 63.46875 64.46875 61.839844 67.527344 C 56.101562 78.304688 60.320312 91.339844 70.71875 94.945312 C 78.589844 97.675781 92.792969 90.410156 93.617188 83.222656 C 93.984375 80.03125 90.171875 69.414062 87.023438 64.859375 C 86.277344 63.78125 83.941406 64.226562 82.066406 65.808594 C 80.726562 66.9375 80.757812 67.113281 83.109375 71.636719 C 90.007812 84.910156 88.460938 91.40625 78.40625 91.40625 C 64.777344 91.40625 60.523438 72.890625 71.492188 61.308594 C 73.832031 58.835938 73.875 58.582031 71.996094 58.429688 C 71.140625 58.359375 70.351562 58.554688 68.703125 59.246094 C 59.421875 63.136719 56.074219 59.835938 60.320312 50.972656 C 62.765625 45.859375 66.230469 46.597656 73.363281 53.746094 C 76.121094 56.507812 76.148438 56.519531 78.554688 55.488281 C 81.457031 54.246094 81.746094 53.53125 80.601562 50.449219 C 80.121094 49.15625 79.546875 47.429688 79.328125 46.613281 L 78.410156 43.339844 C 78.125 42.355469 77.722656 40.703125 77.511719 39.667969 C 77.304688 38.636719 77.070312 37.6875 76.992188 37.558594 C 76.742188 37.15625 74.496094 37.339844 73.1875 37.871094 M 163.046875 39.136719 C 163.589844 44.421875 164.386719 50.625 164.519531 50.625 C 164.609375 50.625 164.832031 50.257812 165.019531 49.804688 C 165.570312 48.476562 168.066406 46.183594 170.035156 45.199219 L 171.820312 44.304688 L 170.390625 43.601562 C 168.035156 42.453125 165.628906 40.730469 164.226562 39.195312 L 162.90625 37.746094 L 163.046875 39.136719 M 158.484375 42.195312 C 154.953125 42.753906 154.621094 43.398438 155.402344 48.214844 L 156.441406 54.972656 C 157.769531 64.269531 159.195312 71.828125 159.679688 72.136719 C 162.421875 73.878906 165.546875 71.308594 164.910156 67.832031 C 164.367188 64.878906 163.921875 61.71875 162.585938 51.433594 C 161.976562 46.746094 161.371094 42.800781 161.242188 42.671875 C 160.820312 42.25 159.535156 42.027344 158.484375 42.195312 M 338.785156 45.902344 C 333.929688 46.972656 328.144531 50.914062 324.949219 55.335938 C 324.433594 56.050781 323.941406 56.691406 323.863281 56.761719 C 321.691406 58.640625 317.925781 67.867188 317.078125 73.378906 C 313.90625 94.011719 328.984375 105.375 344.5 94.050781 C 347.417969 91.921875 350.589844 88.441406 351.5625 86.304688 C 352.054688 85.226562 352.917969 83.875 353.496094 83.277344 C 354.523438 82.222656 356.324219 79.027344 356.644531 77.695312 C 357.164062 75.550781 351.1875 73.074219 350.398438 75.105469 C 347.527344 82.527344 342.136719 89.894531 337.261719 93.078125 C 326.824219 99.882812 320.199219 90.226562 323.746094 73.378906 C 326.890625 58.457031 343.550781 43.5 347.957031 51.648438 C 349.683594 54.839844 349.4375 56.15625 346.6875 58.421875 C 341.214844 62.929688 335.285156 69.484375 332 74.660156 C 330.167969 77.539062 330.214844 77.4375 330.519531 78.011719 C 330.855469 78.640625 333.105469 79.726562 334.351562 79.863281 C 335.773438 80.019531 336.480469 79.609375 337.421875 78.085938 C 340.183594 73.621094 345.65625 67.421875 350.140625 63.664062 L 351.800781 62.246094 C 352.703125 61.402344 357.863281 57.617188 360.324219 55.996094 C 363.660156 53.796875 363.679688 53.675781 360.949219 52.210938 C 358.707031 51.011719 357.210938 50.882812 355.710938 51.761719 C 354.332031 52.570312 354.1875 52.519531 352.777344 50.722656 C 349.472656 46.519531 344.214844 44.710938 338.785156 45.902344 M 186.972656 52.1875 C 186.9375 54.566406 182.691406 56.171875 177.882812 55.621094 L 176.082031 55.417969 L 175.375 56.257812 C 174.554688 57.234375 174.589844 57.625 175.722656 59.957031 C 179.660156 68.050781 192.175781 66.984375 191.238281 58.636719 C 190.972656 56.273438 187 50.269531 186.972656 52.1875 M 64.832031 55.292969 C 64.453125 55.890625 63.90625 56.996094 63.609375 57.75 L 63.070312 59.121094 L 63.980469 58.953125 C 64.476562 58.859375 66.050781 58.28125 67.472656 57.675781 L 70.058594 56.566406 L 68.300781 55.386719 C 66.105469 53.910156 65.707031 53.902344 64.832031 55.292969 M 84.382812 54.972656 L 84.941406 56.652344 C 85.820312 59.285156 81.90625 62.898438 78.175781 62.898438 C 77.449219 62.898438 77.390625 62.964844 77.390625 63.78125 C 77.390625 64.53125 77.074219 65 75.230469 66.976562 C 69.371094 73.261719 67.21875 82.734375 70.847656 86.273438 C 77.074219 92.339844 86.835938 89.648438 85.503906 82.238281 C 85.296875 81.082031 84.65625 79.730469 81.632812 74.046875 C 81.265625 73.355469 80.964844 72.527344 80.964844 72.199219 C 80.964844 71.871094 80.5625 70.859375 80.074219 69.945312 C 77.949219 66.007812 81.207031 62.023438 86.214844 62.441406 C 87.175781 62.519531 87.589844 62.46875 87.507812 62.28125 C 87.441406 62.128906 86.824219 60.558594 86.132812 58.796875 C 85.089844 56.125 83.9375 53.609375 84.382812 54.972656 M 29.070312 64.5625 C 29.019531 64.613281 28.085938 64.679688 27 64.710938 C 23.007812 64.816406 17.429688 66.621094 15.804688 68.328125 C 14.371094 69.839844 14.296875 70.398438 15.378906 71.546875 C 17.242188 73.519531 20.199219 77.285156 23.113281 81.398438 C 24.46875 83.308594 25.601562 83.339844 27.882812 81.527344 C 29.886719 79.9375 30 78.953125 28.421875 76.777344 L 26.5625 74.128906 C 26.070312 73.410156 25.179688 72.207031 24.582031 71.457031 C 19.941406 65.617188 35.707031 69.34375 44.722656 76.210938 C 61.605469 89.078125 61.738281 109.203125 44.917969 105.613281 C 41.480469 104.882812 41.804688 105.164062 40.765625 102 C 38.359375 94.660156 34.34375 85.90625 33.390625 85.914062 C 31.925781 85.929688 29.042969 88.039062 28.71875 89.332031 C 28.613281 89.75 29.191406 91.207031 30.726562 94.371094 C 31.910156 96.820312 33.371094 100.066406 33.96875 101.585938 C 35.148438 104.574219 35.148438 104.644531 33.917969 106.179688 C 33.171875 107.109375 33.457031 107.566406 35.1875 108.222656 C 36.644531 108.777344 36.515625 108.546875 37.585938 112.59375 C 38.246094 115.105469 38.417969 115.273438 39.847656 114.800781 C 41.503906 114.253906 43.164062 112.472656 43.164062 111.25 C 43.164062 110.007812 43.136719 110.027344 45.339844 109.816406 C 56.378906 108.769531 62.8125 102.925781 62.828125 93.925781 C 62.832031 91.957031 62.785156 91.777344 61.945312 90.601562 C 59.683594 87.4375 58.238281 84.230469 57.6875 81.136719 C 56.5 74.46875 42.339844 65.4375 32.054688 64.792969 C 30.789062 64.710938 29.625 64.605469 29.460938 64.558594 C 29.300781 64.507812 29.125 64.511719 29.070312 64.5625 M 366.324219 68.074219 C 366.179688 68.25 365.191406 70.03125 364.125 72.03125 C 359.152344 81.359375 357.863281 83.351562 356.800781 83.351562 C 354.890625 83.351562 351.875 88.003906 353.238281 88.847656 C 353.84375 89.222656 353.28125 90.289062 349.597656 95.761719 C 343.410156 104.957031 343.757812 104.367188 344.148438 104.957031 C 345.769531 107.414062 349.15625 107.402344 350.84375 104.933594 L 352.410156 102.691406 L 353.613281 100.996094 L 355.769531 97.925781 L 358.640625 93.769531 C 360.164062 91.515625 360.070312 91.542969 362.992188 92.449219 C 367.007812 93.691406 366.945312 93.472656 364.410156 97.363281 L 355.535156 111.347656 L 351.203125 118.195312 L 349.128906 121.460938 L 349.582031 122.226562 C 350.074219 123.0625 352.195312 124.261719 353.175781 124.261719 C 354.265625 124.261719 354.738281 123.777344 356.980469 120.355469 L 369.148438 101.902344 L 373.550781 95.382812 L 386.253906 76.871094 C 390.707031 70.558594 390.660156 70.738281 388.222656 69.242188 C 385.441406 67.539062 383.890625 67.648438 382.609375 69.636719 L 377.398438 77.507812 L 371.777344 85.980469 C 370.316406 88.214844 370.558594 88.144531 367.488281 87.226562 C 363.644531 86.078125 363.652344 86.527344 367.386719 80.335938 C 371.574219 73.394531 372.796875 70.9375 372.414062 70.230469 C 371.492188 68.527344 367.191406 67.003906 366.324219 68.074219 M 30.792969 76.761719 C 31.277344 77.496094 31.671875 78.289062 31.671875 78.515625 C 31.671875 78.746094 32.027344 79.382812 32.460938 79.929688 C 33.519531 81.257812 34.226562 82.675781 34.226562 83.476562 C 34.226562 83.917969 34.421875 84.21875 34.828125 84.40625 C 35.207031 84.578125 35.851562 85.492188 36.546875 86.851562 C 37.160156 88.042969 37.753906 89.074219 37.867188 89.144531 C 38.429688 89.492188 42.546875 98.5 43.835938 102.203125 C 44.394531 103.800781 44.417969 103.8125 47.550781 103.992188 C 53.878906 104.355469 56.785156 100.777344 55.4375 94.277344 C 54.007812 87.394531 42.542969 78.070312 32.765625 75.84375 C 29.808594 75.171875 29.757812 75.191406 30.792969 76.761719 "/>
</g>
</svg>
