<svg version="1.1" xmlns="http://www.w3.org/2000/svg" viewBox="125 74.72 1731 275.75">
<path d="M0 0 C14.85 0 29.7 0 45 0 C66.57540541 43.01338785 66.57540541 43.01338785 73.28564453 57.21337891 C78.34412224 67.89739151 83.67732577 78.44576922 89 89 C91.86072939 85.52896701 93.74526004 81.69086275 95.67578125 77.66015625 C96.0339241 76.92148819 96.39206696 76.18282013 96.76106262 75.42176819 C97.53994816 73.81408735 98.31688504 72.2054613 99.09210205 70.5960083 C100.32624917 68.03395715 101.56545675 65.47441316 102.80615234 62.91552734 C104.5875429 59.24109357 106.36725561 55.56585403 108.14599609 51.89013672 C112.62640456 42.63743586 117.13273521 33.39737874 121.64389038 24.15963745 C123.11514915 21.14518336 124.58364077 18.12939175 126.05200195 15.11352539 C126.95379727 13.26571868 127.85572716 11.41797764 128.7578125 9.5703125 C129.38149467 8.2871389 129.38149467 8.2871389 130.01777649 6.9780426 C130.39750107 6.20169968 130.77722565 5.42535675 131.16845703 4.62548828 C131.49975616 3.94592072 131.8310553 3.26635315 132.1723938 2.56619263 C133 1 133 1 134 0 C148.85 0 163.7 0 179 0 C178.67 90.42 178.34 180.84 178 274 C164.8 274 151.6 274 138 274 C137.67 212.29 137.34 150.58 137 87 C121.56596998 117.68976839 121.56596998 117.68976839 106.60546875 148.56640625 C101.2609337 159.8021496 95.59592223 170.88811487 90 182 C87.27743523 179.58772753 85.85715757 177.07517018 84.25 173.828125 C83.72994385 172.78350098 83.2098877 171.73887695 82.67407227 170.66259766 C82.12162842 169.53644043 81.56918457 168.4102832 81 167.25 C80.42113037 166.08130371 79.84226074 164.91260742 79.24584961 163.70849609 C75.16649136 155.45903851 71.18800918 147.16211905 67.24511719 138.84667969 C62.9727455 129.86635829 58.51942203 120.97897319 54.03344727 112.10400391 C49.84992819 103.80041711 45.93718887 95.43683329 42 87 C41.67 148.71 41.34 210.42 41 274 C27.8 274 14.6 274 1 274 C0.67 183.58 0.34 93.16 0 0 Z " fill="#C2C2C2" transform="translate(1677,76)"/>
<path d="M0 0 C0.76896606 0.00021149 1.53793213 0.00042297 2.3302002 0.00064087 C14.59107491 0.03423013 26.10918286 0.92790662 37.9375 4.375 C38.60007812 4.55691895 39.26265625 4.73883789 39.9453125 4.92626953 C72.60754476 14.02712558 102.50460245 38.19426229 119.25 67.5625 C120.50187106 69.82213956 121.72143539 72.09556051 122.9375 74.375 C123.64519531 75.65117187 123.64519531 75.65117187 124.3671875 76.953125 C134.19626755 95.39028137 137.1712629 116.12778429 137.1875 136.75 C137.18817474 137.51544128 137.18884949 138.28088257 137.18954468 139.06951904 C137.17403345 150.12075915 136.85133129 160.64838599 133.9375 171.375 C133.75525879 172.05111328 133.57301758 172.72722656 133.38525391 173.42382812 C131.00244935 182.07916165 127.99482831 190.35308232 123.9375 198.375 C123.42445313 199.41140625 122.91140625 200.4478125 122.3828125 201.515625 C115.75627292 214.40225958 106.85129677 224.95585227 96.9375 235.375 C96.29425781 236.08269531 95.65101563 236.79039062 94.98828125 237.51953125 C74.94665562 258.86538414 43.43005102 273.2760396 14.19970703 274.53613281 C12.86498338 274.55600401 11.5301577 274.56973462 10.1953125 274.578125 C9.46867401 274.58382507 8.74203552 274.58952515 7.99337769 274.59539795 C6.4588158 274.60479519 4.92423421 274.61136079 3.38964844 274.61523438 C1.10312941 274.6248295 -1.18244544 274.65585565 -3.46875 274.6875 C-17.59829937 274.79066741 -31.1543702 272.88519511 -44.5625 268.25 C-45.87323486 267.80321899 -45.87323486 267.80321899 -47.21044922 267.34741211 C-60.27874785 262.71475366 -72.2756348 256.09989668 -83.0625 247.375 C-83.87581787 246.71975342 -83.87581787 246.71975342 -84.70556641 246.05126953 C-97.55289186 235.6179662 -108.1219399 224.40328215 -117.0625 210.375 C-117.75214844 209.29734375 -118.44179688 208.2196875 -119.15234375 207.109375 C-137.85503197 176.23737525 -141.68599564 137.62492154 -133.46044922 102.828125 C-124.68076139 68.10396641 -101.68048299 37.54171326 -71.13696289 18.87158203 C-61.13821136 12.94683675 -51.05495358 8.47453841 -39.9375 5.0625 C-39.15084961 4.81983398 -38.36419922 4.57716797 -37.55371094 4.32714844 C-25.17589574 0.7273478 -12.81015323 -0.03261733 0 0 Z M-72.63671875 72.13671875 C-90.74945927 93.69364762 -98.66628084 118.34045107 -97.0625 146.375 C-95.10663015 166.62941062 -87.34777369 184.9555458 -74.0625 200.375 C-73.54429687 201.03757812 -73.02609375 201.70015625 -72.4921875 202.3828125 C-62.3721717 214.94383714 -47.50408005 224.27328012 -32.5 229.6875 C-31.82799561 229.93024658 -31.15599121 230.17299316 -30.46362305 230.4230957 C-20.54074421 233.79675517 -10.75078206 234.74079201 -0.3125 234.6875 C1.40102661 234.68012817 1.40102661 234.68012817 3.14916992 234.67260742 C29.29242414 234.31087219 51.39435706 223.4748917 70.125 205.625 C90.57018419 184.35005996 97.50933286 159.54625335 97.21875 130.48046875 C96.54241336 104.8439286 83.64935044 82.21585684 65.49609375 64.62890625 C24.88272521 28.85193885 -35.90227639 32.72662657 -72.63671875 72.13671875 Z " fill="#C2C2C2" transform="translate(821.0625,75.625)"/>
<path d="M0 0 C21 0 21 0 25.76953125 4.3359375 C27.3659668 7.2121582 27.3659668 7.2121582 28.8125 10.375 C30.00066998 12.58567607 31.19084531 14.79527527 32.3828125 17.00390625 C32.9696582 18.15648926 33.55650391 19.30907227 34.16113281 20.49658203 C37.20087685 26.28791593 40.71176662 31.77597719 44.1875 37.3125 C45.5357046 39.50276831 46.88209613 41.69415379 48.2265625 43.88671875 C51.94017814 49.91644308 55.70715199 55.91070503 59.49951172 61.89111328 C65.4068489 71.20752178 71.23988289 80.57024631 77.08105469 89.92822266 C78.96048007 92.93673794 80.84297196 95.94330979 82.7265625 98.94921875 C87.94085073 107.27397666 93.14979669 115.601325 98.2890625 123.97265625 C98.6470845 124.55567505 99.00510651 125.13869385 99.37397766 125.73937988 C101.10102036 128.55289585 102.82547728 131.36793236 104.54663086 134.18505859 C105.48454468 135.71573975 105.48454468 135.71573975 106.44140625 137.27734375 C106.98482666 138.16671631 107.52824707 139.05608887 108.08813477 139.97241211 C110.65040284 144.02996368 113.33807805 148.00711708 116 152 C116.33 101.84 116.66 51.68 117 0 C130.2 0 143.4 0 157 0 C157 90.42 157 180.84 157 274 C136 274 136 274 131.4140625 270.03125 C129.93969727 267.39892578 129.93969727 267.39892578 128.625 264.5 C127.5240089 262.46513105 126.42107626 260.43131163 125.31640625 258.3984375 C124.50647217 256.81047363 124.50647217 256.81047363 123.68017578 255.19042969 C120.93729766 249.98207001 117.73325745 245.07997198 114.5625 240.125 C113.3006907 238.10845449 112.04158676 236.09021371 110.78515625 234.0703125 C107.65122499 229.04341889 104.51323316 224.01908204 101.37304688 218.99609375 C99.49692697 215.99508444 97.62151111 212.99363588 95.74609375 209.9921875 C93.26156813 206.01668778 90.77438801 202.04286705 88.28515625 198.0703125 C81.06516378 186.54239434 73.90337994 174.98081654 66.78735352 163.38842773 C62.29711339 156.08275131 57.75969755 148.8093745 53.15551758 141.57495117 C49.03268769 135.09029914 45.02941959 128.54780683 41 122 C40.67 172.16 40.34 222.32 40 274 C26.8 274 13.6 274 0 274 C0 183.58 0 93.16 0 0 Z " fill="#C2C2C2" transform="translate(489,76)"/>
<path d="M0 0 C13.2 0 26.4 0 40 0 C40.33 44.22 40.66 88.44 41 134 C45.62 125.75 50.24 117.5 55 109 C59.9375 100.5625 59.9375 100.5625 62.328125 96.53125 C67.65349797 87.53292393 72.83120701 78.44725782 78.04882812 69.38623047 C79.94169137 66.10119378 81.83742707 62.81783564 83.734375 59.53515625 C91.01163588 46.93971263 98.2562196 34.32628885 105.45874023 21.68798828 C106.70124452 19.5093815 107.96713213 17.3439218 109.25756836 15.19335938 C111.0957679 12.0389429 111.0957679 12.0389429 112.18188477 8.54101562 C113.69407155 4.65801057 114.74189221 2.63870865 118 0 C125.72384702 -2.02358786 134.04997506 -1.11791095 141.9375 -0.75 C144.16977942 -0.68977751 146.4022137 -0.63502975 148.63476562 -0.5859375 C154.09323123 -0.45398364 159.54590098 -0.25352082 165 0 C160.79498884 8.60860981 156.39929491 17.00978844 151.5 25.25 C150.26891013 27.34078023 149.03846367 29.43193942 147.80859375 31.5234375 C147.18065918 32.58916992 146.55272461 33.65490234 145.90576172 34.75292969 C142.76168973 40.1098548 139.66197746 45.49218808 136.5625 50.875 C135.30208567 53.06250134 134.04166899 55.25000134 132.78125 57.4375 C132.15605469 58.52289063 131.53085937 59.60828125 130.88671875 60.7265625 C129.0203162 63.9647516 127.15126237 67.20139438 125.28125 70.4375 C120.12105241 79.36923681 114.96353779 88.3022758 109.8515625 97.26171875 C109.50586212 97.8673465 109.16016174 98.47297424 108.8039856 99.09695435 C107.08818163 102.10378388 105.37509094 105.11211028 103.66650391 108.12304688 C100.75702845 113.23724048 97.82963538 118.32764342 94.734375 123.33203125 C94.25524658 124.11312256 93.77611816 124.89421387 93.2824707 125.69897461 C92.42076164 127.09313197 91.54543017 128.47901557 90.65307617 129.85375977 C88.87889934 132.73145843 87.95727934 134.48769655 88.2421875 137.90429688 C88.99891385 140.99556302 89.96250208 143.13738792 91.59765625 145.8515625 C92.14357422 146.77066406 92.68949219 147.68976563 93.25195312 148.63671875 C93.84943359 149.62285156 94.44691406 150.60898438 95.0625 151.625 C96.34641601 153.78304329 97.62891157 155.94193216 98.91015625 158.1015625 C99.58191895 159.22981445 100.25368164 160.35806641 100.94580078 161.52050781 C104.02725948 166.71993252 107.00852273 171.97657218 109.99459839 177.23114014 C115.27430343 186.52002354 120.60110138 195.77973798 126 205 C131.71178966 214.75652143 137.33980887 224.55934759 142.93579102 234.38256836 C146.37440913 240.41669071 149.82754844 246.44171364 153.3125 252.44921875 C153.66139786 253.05123108 154.01029572 253.65324341 154.36976624 254.27349854 C156.04062609 257.15614154 157.71419861 260.03710705 159.39233398 262.91552734 C159.98344971 263.93469238 160.57456543 264.95385742 161.18359375 266.00390625 C161.70493896 266.89924072 162.22628418 267.7945752 162.76342773 268.71704102 C164 271 164 271 165 274 C149.49 274 133.98 274 118 274 C114.5040625 267.874375 114.5040625 267.874375 110.9375 261.625 C103.6226014 248.81792179 96.2648546 236.03603101 88.88525391 223.26611328 C86.93442194 219.88638912 84.98816494 216.5040644 83.04296875 213.12109375 C76.46388524 201.68458647 69.86211677 190.26949258 63 179 C62.41734375 179.98355469 61.8346875 180.96710938 61.234375 181.98046875 C60.84243958 182.64141037 60.45050415 183.30235199 60.04669189 183.98332214 C59.17960916 185.45723014 58.32086791 186.93607606 57.47039795 188.41963196 C55.08031766 192.57106855 52.62562979 196.59298413 49.85742188 200.50390625 C39.66023344 215.51378736 39.37246829 229.08302999 39.75 246.8125 C39.76200658 249.46287143 39.76855162 252.11327343 39.76953125 254.76367188 C39.77354038 261.18028858 39.88884568 267.58083821 40 274 C26.8 274 13.6 274 0 274 C0 183.58 0 93.16 0 0 Z " fill="#C2C2C2" transform="translate(125,76)"/>
<path d="M0 0 C13.2 0 26.4 0 40 0 C40.0093457 6.12216064 40.01869141 12.24432129 40.02832031 18.55200195 C40.06208276 38.77638178 40.11742698 59.00065996 40.18390274 79.22495747 C40.22368098 91.48729479 40.2560797 103.74956804 40.27099609 116.01196289 C40.28401884 126.70214998 40.31099963 137.39219604 40.35461307 148.0823037 C40.37721363 153.74057775 40.39291151 159.39867793 40.39188385 165.05700111 C40.39113642 170.38813561 40.40912081 175.71888596 40.44116783 181.04992104 C40.44965221 183.00131477 40.45142674 184.95275166 40.44580269 186.90415573 C40.40994599 201.26363435 41.23445593 212.05975398 51.70703125 222.83984375 C60.21042269 230.85070485 68.26703544 233.52001966 79.97851562 233.41943359 C90.33274855 233.04269507 98.65133105 229.27704449 106 222 C113.41856642 212.97434807 116.14341809 203.3608101 116.15821838 191.80595398 C116.16315636 190.98497138 116.16809434 190.16398879 116.17318195 189.31812793 C116.18852856 186.5697533 116.19690989 183.82140199 116.20532227 181.07299805 C116.21490302 179.10184016 116.22491322 177.13068433 116.23532104 175.15953064 C116.26235479 169.80877079 116.28337267 164.45800214 116.30332303 159.10721183 C116.32519199 153.51512787 116.35257624 147.92307101 116.37937927 142.33100891 C116.42929382 131.74181603 116.47423726 121.1526081 116.51740164 110.56338578 C116.56678457 98.50785857 116.62169879 86.45235854 116.67708123 74.39685762 C116.79088229 49.5979292 116.89699524 24.79897578 117 0 C130.2 0 143.4 0 157 0 C157.0452073 26.09574024 157.08202436 52.1914486 157.10362434 78.28721809 C157.1139217 90.40487193 157.12795252 102.52249965 157.15087891 114.64013672 C157.17086001 125.20612604 157.18372763 135.77209644 157.18817699 146.33810413 C157.19077638 151.92882753 157.19685386 157.5194968 157.21146011 163.11020279 C157.22511868 168.38128881 157.22920603 173.65229884 157.22621536 178.92340088 C157.22676184 180.84936818 157.23068967 182.77533823 157.23841095 184.70129013 C157.33852762 210.98125752 152.8191904 232.68168524 133.94140625 252.14453125 C118.29913819 267.65190744 99.81090362 274.20603245 78.125 274.4375 C56.91374703 274.31639536 37.83642975 267.51762511 22.51269531 252.55664062 C4.55619934 234.07849047 -0.64844156 213.16399194 -0.45410156 188.11157227 C-0.4529709 186.05027285 -0.4536112 183.98897183 -0.45587158 181.92767334 C-0.45701112 176.37694159 -0.4336258 170.82656127 -0.40557575 165.27591062 C-0.38043439 159.4583679 -0.37821011 153.64081559 -0.37347412 147.82322693 C-0.36108159 136.82699161 -0.32831064 125.83091688 -0.28807616 114.83475202 C-0.24324218 102.30745846 -0.22134225 89.7801569 -0.20129442 77.25280297 C-0.15957447 51.50175932 -0.0862689 25.7509356 0 0 Z " fill="#C2C2C2" transform="translate(1488,76)"/>
<path d="M0 0 C90.93965517 0 90.93965517 0 119 25 C119.82886719 25.68578125 120.65773438 26.3715625 121.51171875 27.078125 C142.07754589 44.51226418 153.98052243 69.51592223 156.72265625 96.1015625 C158.81913248 125.57034109 152.16182965 153.12439554 133 176 C132.16726563 176.99644531 131.33453125 177.99289063 130.4765625 179.01953125 C112.41058981 199.95338486 88.05231749 212.68713644 60.5625 215.6875 C53.718334 216.07200371 46.85495816 216 40 216 C40 235.14 40 254.28 40 274 C26.8 274 13.6 274 0 274 C0 183.58 0 93.16 0 0 Z M40 40 C40 84.88 40 129.76 40 176 C65.27711925 174.79632765 81.80196728 171.51825059 99.41015625 153.5390625 C111.3328795 139.91893611 117.91355448 123.03216463 117.28515625 104.8359375 C115.76444661 89.71216768 111.3179014 77.00414325 102 65 C101.55140625 64.38640625 101.1028125 63.7728125 100.640625 63.140625 C90.91419674 50.66791112 75.32906384 42.6531072 60 40 C53.4 40 46.8 40 40 40 Z " fill="#C2C2C2" transform="translate(997,76)"/>
<path d="M0 0 C45.54 0 91.08 0 138 0 C138 13.2 138 26.4 138 40 C105.66 40 73.32 40 40 40 C40 65.41 40 90.82 40 117 C65.74 117 91.48 117 118 117 C118 130.2 118 143.4 118 157 C92.26 157 66.52 157 40 157 C40 182.41 40 207.82 40 234 C72.34 234 104.68 234 138 234 C138 247.2 138 260.4 138 274 C92.46 274 46.92 274 0 274 C0 183.58 0 93.16 0 0 Z " fill="#C2C2C2" transform="translate(313,76)"/>
<path d="M0 0 C1.5999636 0.00373747 3.19992952 0.00658097 4.79989624 0.00857544 C8.97884618 0.01615416 13.15765361 0.03575204 17.33654785 0.0579834 C22.36775264 0.08219609 27.3990055 0.09125029 32.43025208 0.10289001 C40.04474586 0.12218069 47.65892791 0.16054305 55.2734375 0.1953125 C55.2734375 13.3953125 55.2734375 26.5953125 55.2734375 40.1953125 C50.56449219 40.22109375 45.85554688 40.246875 41.00390625 40.2734375 C38.00059847 40.29863752 34.99738826 40.32499443 31.99414062 40.35546875 C27.2390114 40.40361102 22.48410839 40.44772724 17.72875977 40.46630859 C13.88997915 40.4815786 10.05179491 40.5162035 6.21328163 40.56362152 C4.75710582 40.57832975 3.3008448 40.58634738 1.84459496 40.58719635 C-10.10351227 40.60115277 -20.23099549 42.22200803 -29.65234375 50.0703125 C-37.08020857 57.68002711 -41.0530868 66.79769846 -41.80859375 77.33203125 C-41.50911437 87.78528763 -34.21119821 95.86147594 -27.0546875 102.77734375 C-15.797236 112.9446987 -2.62598836 120.86324715 10.17089844 128.91699219 C28.81635917 140.69029894 46.66113674 156.42221164 53.2734375 178.1953125 C53.49644531 178.92234375 53.71945312 179.649375 53.94921875 180.3984375 C58.53110575 198.72598552 54.67934276 218.73507969 45.7109375 235.03515625 C33.88487263 254.55363832 17.0416199 267.04840452 -4.7265625 273.1953125 C-8.86429067 274.20819198 -12.73993884 274.3161875 -16.99536133 274.30883789 C-17.70810211 274.30898392 -18.4208429 274.30912994 -19.15518188 274.3092804 C-21.4980174 274.30858682 -23.84077222 274.3008205 -26.18359375 274.29296875 C-27.81312517 274.2911026 -29.44265715 274.28967963 -31.07218933 274.28868103 C-35.35144614 274.28487138 -39.63066876 274.27505438 -43.90991211 274.26397705 C-49.04947961 274.25192634 -54.18905857 274.2473533 -59.32863617 274.24152374 C-67.12796869 274.23184177 -74.92722626 274.21267437 -82.7265625 274.1953125 C-82.7265625 260.9953125 -82.7265625 247.7953125 -82.7265625 234.1953125 C-77.95703125 234.18113281 -73.1875 234.16695312 -68.2734375 234.15234375 C-65.22909478 234.13225689 -62.18489907 234.11071168 -59.140625 234.08398438 C-54.32188264 234.04181471 -49.50351349 234.0046822 -44.68457031 233.99975586 C-40.79383452 233.99543761 -36.90393845 233.96668815 -33.01346588 233.92188072 C-31.5385759 233.9090171 -30.06358484 233.90455797 -28.58864594 233.90915871 C-15.62789052 233.94013411 -5.17370586 231.52708772 4.37109375 222.29296875 C11.31788042 214.63295963 15.08289206 205.1173493 14.67578125 194.6953125 C12.42086416 180.68417716 -1.05188418 170.17855236 -11.7265625 162.1953125 C-18.09925966 157.61637078 -24.72036177 153.41090739 -31.4140625 149.3203125 C-53.63107712 135.69384708 -73.88927796 119.14557286 -81.05078125 93.0234375 C-85.62864005 73.86523072 -81.2140284 54.30078369 -71.703125 37.36328125 C-60.87145642 20.00264247 -44.38670326 7.23938784 -24.66323853 1.60598755 C-16.49451207 -0.260717 -8.32326506 -0.05755543 0 0 Z " fill="#C2C2C2" transform="translate(1261.7265625,75.8046875)"/>
<path d="M0 0 C38.94 0 77.88 0 118 0 C118 13.2 118 26.4 118 40 C105.13 40 92.26 40 79 40 C79 104.02 79 168.04 79 234 C91.87 234 104.74 234 118 234 C118 247.2 118 260.4 118 274 C79.06 274 40.12 274 0 274 C0 260.8 0 247.6 0 234 C12.87 234 25.74 234 39 234 C39 169.98 39 105.96 39 40 C26.13 40 13.26 40 0 40 C0 26.8 0 13.6 0 0 Z " fill="#C2C2C2" transform="translate(1342,76)"/>
</svg>